<svg xmlns="http://www.w3.org/2000/svg" width="89" height="71" fill="none"><g fill="#00BFDE" clip-path="url(#a)"><path d="M1.992.29c0 .16-.465.716-1.03 1.246-.996.9-1.029.954-.896 3.365.1 2.252.166 2.49 1.096 3.39.564.53 1.228.928 1.527.901.3-.026.764.106 1.063.318.365.239.565.265.565.053 0-.212 10.494-.291 40.282-.318 22.117 0 40.615-.026 41.046-.053 1.196-.08 2.358-1.06 2.59-2.145.1-.53.333-1.034.466-1.113.398-.186.365-2.146-.034-2.358-.199-.08-.332-.45-.332-.768 0-.822-1.66-2.464-2.39-2.332-.3.053-.632-.053-.765-.185-.332-.45-81.262-.397-81.793.026-.3.239-.399.239-.399 0C2.988.132 2.756 0 2.49 0s-.498.132-.498.29ZM18.265 13.22c0 .264-1.229.317-5.38.29-6.675-.052-5.978-.132-7.04.663-.997.742-1.262 2.597-.366 2.888.266.08.498.344.498.61 0 .45.465.476 6.709.397 5.313-.08 6.84-.16 7.24-.477.331-.265.365-.371.066-.371-.498 0-.565-2.57-.067-2.702.2-.053-.1-.424-.664-.875-.531-.424-.996-.609-.996-.424ZM25.072 13.776c-.531.424-.764.795-.564.795.265 0 .398.476.398 1.324 0 .795-.133 1.325-.365 1.325-.266 0-.266.132.033.397.365.345 2.856.398 18.63.398h18.232v-2.093c0-1.722-.1-2.12-.564-2.252-.333-.106-8.236-.186-17.568-.16-11.856 0-17.036-.079-17.136-.264-.066-.159-.531.08-1.096.53ZM78.041 13.246c0 .16-2.258.265-5.977.265h-5.978v4.504h6.077c3.321 0 6.376.08 6.808.159.531.133.73.053.73-.265 0-.238.233-.424.499-.424.398 0 .498-.344.498-1.536-.033-1.457-.066-1.537-1.328-2.226-.731-.397-1.329-.609-1.329-.477ZM85.347 31.235c0 13.962.1 17.75.431 17.856.665.185 2.259-.291 2.757-.795.365-.397.431-3.523.465-17.061 0-16.32 0-16.584-.665-17.14-.464-.372-1.095-.584-1.826-.584h-1.162v17.724ZM6.144 22.784c-.366.424-.764.795-.897.795-.565 0-.232 1.907.399 2.437.365.318.664.742.664.927 0 .265 1.361.345 6.442.345 7.406 0 6.94.185 6.94-2.65 0-2.808.433-2.649-6.674-2.649h-6.21l-.664.795ZM25.04 22.571c-.134.345-.233 1.272-.233 2.067 0 .795.1 1.722.232 2.04l.233.61h36.164v-5.3H25.272l-.233.583ZM66.086 24.638v2.65h12.918l.864-.663c.664-.556.83-.954.83-1.987 0-1.033-.166-1.43-.83-1.987l-.864-.662H66.086v2.649ZM5.845 31.659c-.133.37-.365.662-.531.662-.2 0-.333.477-.333 1.06 0 .848.233 1.219 1.23 2.013.697.557 1.294.848 1.36.69.167-.451 10.694-.451 10.694 0 0 .158.465-.027.996-.451.565-.45.864-.821.665-.874-.167-.053-.333-.875-.333-1.934v-1.828H6.044l-.2.662ZM24.907 32.85c0 1.246-.133 1.855-.399 1.855-.2 0 .033.371.565.795.564.45 1.03.689 1.096.53.1-.186 5.28-.265 17.135-.265 9.332.026 17.236-.053 17.568-.16.465-.131.565-.529.565-2.383v-2.226h-36.53v1.855ZM66.086 33.38v2.385h5.978c3.387 0 5.977.106 5.977.239 0 .132.598 0 1.329-.318l1.328-.583v-1.67c0-1.27-.1-1.642-.498-1.642-.266 0-.498-.185-.498-.397 0-.344-.963-.397-6.808-.397h-6.808v2.384ZM18.265 39.713c0 .264-1.229.318-5.38.291-6.675-.053-5.978-.132-7.04.662-.997.742-1.262 2.597-.366 2.888.266.08.498.344.498.61 0 .45.465.476 6.709.397 5.346-.053 6.84-.16 7.24-.477.331-.265.365-.371.066-.371-.498 0-.565-2.57-.067-2.702.2-.053-.1-.424-.664-.875-.531-.423-.996-.609-.996-.423ZM25.072 40.269c-.531.424-.764.795-.564.795.265 0 .398.477.398 1.324 0 .795-.133 1.325-.365 1.325-.266 0-.266.133.033.397.365.345 2.856.398 18.63.398h18.232v-2.093c0-1.722-.1-2.12-.564-2.252-.333-.106-8.236-.185-17.568-.159-11.856 0-17.036-.08-17.136-.265-.066-.159-.531.08-1.096.53ZM78.041 39.765c0 .133-2.59.239-5.977.239h-5.978v4.503h6.077c3.321 0 6.376.08 6.808.16.531.132.73.052.73-.266 0-.238.233-.424.499-.424.398 0 .498-.37.498-1.669v-1.642l-1.328-.583c-.731-.318-1.329-.45-1.329-.318ZM6.144 49.276c-.366.424-.764.795-.897.795-.166 0-.266.477-.266 1.06 0 .582.133 1.06.3 1.06.165 0 .464.344.697.794l.398.795h6.443c7.339 0 6.874.185 6.874-2.65 0-2.808.432-2.649-6.675-2.649h-6.21l-.664.795ZM25.04 49.065c-.134.344-.233 1.271-.233 2.066 0 .795.1 1.722.232 2.04l.233.61h36.164v-5.3H25.272l-.233.584ZM66.086 51.131v2.65h12.918l.864-.663c.664-.556.83-.954.83-1.987 0-1.033-.166-1.43-.83-1.987l-.864-.662H66.086v2.649ZM87.007 50.812c0 .186-.365.477-.83.636-.797.291-.83.371-.83 2.914 0 2.252.1 2.676.664 3.126.963.769 2.059.69 2.59-.185.2-.397.399-1.696.399-2.914 0-2.067-.067-2.252-.997-3.047-.53-.477-.996-.715-.996-.53ZM5.977 58.098c0 .265-.232.53-.498.61-.896.291-.63 2.145.366 2.887 1.062.795.398.716 6.907.663 3.487-.027 5.347.053 5.513.238.133.185.564 0 1.162-.503.531-.424.764-.795.565-.795-.266 0-.399-.477-.399-1.325 0-.874.133-1.324.399-1.324.299 0 .265-.106-.067-.371-.398-.318-1.893-.424-7.24-.477-6.243-.08-6.708-.053-6.708.397ZM72.495 57.674l-6.41.08v4.503h5.979c4.018 0 5.977.106 5.977.292 0 .159.598-.053 1.329-.477 1.261-.715 1.328-.795 1.328-2.278 0-1.166-.1-1.51-.498-1.51-.266 0-.498-.186-.498-.398 0-.212-.2-.37-.399-.344-.232.053-3.32.106-6.808.132ZM24.574 58.15c-.299.266-.299.398-.033.398.232 0 .365.53.365 1.325 0 .848-.133 1.324-.398 1.324-.2 0 .033.371.564.795.565.45 1.03.689 1.096.53.1-.185 5.28-.265 17.136-.265 9.332.027 17.235-.053 17.568-.159.465-.132.564-.53.564-2.252v-2.093H43.204c-15.774 0-18.265.053-18.63.398ZM3.585 66.735c-1.129.636-1.229.794-1.262 1.934 0 .927.166 1.404.664 1.801.665.53 1.096.53 40.183.53H82.69l.133-.583c.398-1.563.465-3.92.1-3.92H43.767c-21.287 0-38.788-.08-38.854-.213-.034-.132-.665.08-1.329.45Z"/></g><defs><clipPath id="a"><path fill="#fff" d="M0 0h89v71H0z"/></clipPath></defs></svg>