<svg xmlns="http://www.w3.org/2000/svg" width="72" height="74" fill="none"><g fill="#00BFDE" clip-path="url(#a)"><path d="M8.807.042c-.01.042-.072.061-.072.021 0-.027-.063 0-.082.036-.008.015-.031.028-.048.028a.093.093 0 0 0-.058.025c-.02.021-.03.021-.043-.004-.015-.026-.019-.026-.03.006-.008.021-.025.034-.04.028-.014-.007-.032.002-.04.02-.005.018-.022.028-.038.022-.017-.009-.032.002-.038.03-.012.048-.037.054-.05.014-.006-.015-.012-.01-.012.01-.002.047-.073.1-.117.087C8.116.36 8.1.37 8.09.404a1.155 1.155 0 0 1-.164.213c-.14.156-.25.327-.344.543a.638.638 0 0 0-.04.123.047.047 0 0 1-.026.04c-.017.006-.023.034-.017.072.006.044-.002.067-.021.076-.021.008-.027.031-.02.084a.174.174 0 0 1-.02.123c-.03.048-.031 1.115-.031 13.526 0 8.965-.006 13.47-.02 13.47-.01 0-.019-.01-.019-.02 0-.015-1.231-.022-3.654-.022H.061l-.011.047c-.006.027-.012 1.735-.012 3.793 0 2.483-.005 3.746-.019 3.746-.036 0-.02.06.02.07.028.008.038.03.038.084 0 .043.01.083.021.091.014.009.017.047.012.095-.006.057-.002.083.017.091.017.007.027.042.027.095 0 .047.01.091.021.1.012.006.017.05.013.095-.003.053.002.084.018.09.015.007.025.047.025.096 0 .046.01.09.021.099.013.008.017.046.012.095-.008.066-.004.082.019.082.025 0 .029.017.019.093-.01.072-.006.096.015.106.018.006.03.04.03.085 0 .04.009.08.02.088.014.009.018.049.01.104-.008.07-.004.093.017.103.018.007.03.04.03.085 0 .04.009.08.02.089.014.008.018.046.012.095-.006.057-.002.082.017.09.018.007.027.043.027.096 0 .046.01.09.021.099.012.006.018.05.014.095-.004.053.002.085.017.091.016.006.025.047.025.095 0 .047.01.09.021.1.014.008.018.046.012.095-.008.065-.004.082.02.082s.028.017.018.093c-.01.072-.005.095.016.105.017.007.029.04.029.085 0 .04.01.08.02.089.014.008.018.048.01.103-.007.07-.003.093.018.104.017.006.029.04.029.084 0 .04.01.08.02.09.014.008.018.046.012.094-.006.057-.002.083.018.091.017.006.027.042.027.095 0 .047.01.091.02.1.012.006.018.05.014.095-.004.048.002.084.016.09.025.011.048.136.052.282.001.063.011.09.03.09.021 0 .023.022.016.093-.01.072-.006.095.015.106.017.006.029.04.029.084 0 .04.01.08.021.09.014.008.017.048.01.103-.008.07-.004.093.017.103.017.007.029.04.029.085 0 .04.01.08.021.089.014.008.017.046.012.095-.006.057-.002.082.017.09.017.007.027.043.027.096 0 .046.01.09.021.099.012.006.017.05.014.095-.004.049.001.085.015.09.025.011.048.136.052.284.002.061.011.089.03.089.022 0 .024.02.016.093-.01.072-.006.095.015.105.018.007.03.04.03.085 0 .04.009.08.02.089.014.008.018.048.01.103-.008.07-.004.093.017.104.018.006.03.04.03.084 0 .04.009.08.02.09.014.008.018.046.012.094-.006.057-.002.083.017.091.018.006.027.042.027.095 0 .047.01.091.021.1.012.006.018.05.014.094-.004.05.002.085.015.091.025.01.048.136.052.284.002.06.012.088.031.088.021 0 .023.021.015.093-.01.072-.005.095.016.106.017.006.029.04.029.084 0 .04.01.08.02.09.014.008.018.048.01.103-.007.07-.003.093.018.103.017.007.029.04.029.085 0 .04.01.08.02.089.014.008.018.046.012.095-.005.057-.002.082.018.09.017.007.027.043.027.096 0 .046.01.09.02.099.012.006.018.05.014.095-.004.049.002.084.016.09.025.011.048.136.052.284.001.061.011.089.03.089.021 0 .023.02.016.093-.01.072-.006.095.015.105.017.007.029.04.029.085 0 .04.01.08.021.089.014.008.017.048.01.103-.008.07-.004.093.017.104.017.006.029.04.029.084 0 .04.01.08.021.089.014.008.017.047.012.095-.006.057-.002.082.017.09.017.007.027.043.027.096 0 .047.01.09.021.1.012.006.017.05.014.094-.004.049.001.085.015.091.025.01.048.136.052.283.002.062.011.09.03.09.022 0 .024.02.016.092-.01.072-.006.095.015.106.018.006.03.04.03.084 0 .04.009.08.02.09.014.008.018.048.01.103-.008.07-.004.093.017.103.018.007.03.04.03.085 0 .04.009.08.02.088.014.009.018.047.012.096-.006.057-.002.082.017.09.018.007.027.043.027.096 0 .046.01.09.021.099.012.006.018.05.014.095-.004.049.002.084.015.09.025.011.048.136.052.282.002.063.012.09.031.09.021 0 .023.022.015.094-.01.072-.005.095.016.105.017.007.029.04.029.085 0 .04.01.08.02.088.014.009.018.05.01.104-.007.07-.003.093.018.104.017.006.029.04.029.084 0 .04.01.08.02.089.014.008.018.046.012.095-.005.057-.002.082.018.09.017.007.027.043.027.096 0 .046.01.09.02.1.012.006.018.05.014.094-.004.049.002.085.016.091.025.01.048.135.052.281.001.064.011.091.03.091.021 0 .023.021.016.093-.01.072-.006.095.015.106.017.006.029.04.029.084 0 .04.01.08.021.089.014.009.017.049.01.104-.008.07-.004.092.017.103.017.006.029.04.029.085 0 .04.01.08.021.088.014.009.017.047.012.096-.006.056-.002.082.017.09.017.007.027.043.027.095 0 .047.01.091.021.1.012.006.017.05.014.095-.004.048.001.084.015.09.025.011.048.136.052.282.002.063.011.09.03.09.022 0 .024.022.016.093-.01.072-.006.096.015.106.018.007.03.04.03.085 0 .04.009.08.02.088.014.009.018.047.012.096-.006.057-.002.082.017.09.018.007.027.043.027.096 0 .046.01.09.021.099.014.008.018.046.012.095-.006.057-.002.082.017.09.018.007.027.043.027.096 0 .046.01.09.021.1.012.005.018.05.014.094-.004.057.002.085.021.093.02.009.023.034.014.093-.01.066-.004.085.019.095.025.01.029.032.02.097-.007.068-.003.085.02.085.025 0 .029.017.02.093-.01.072-.006.095.015.106.017.006.029.04.029.084 0 .04.01.08.02.089.014.008.018.046.012.095-.005.057-.002.082.018.09.017.007.027.043.027.096 0 .046.01.09.02.1.014.008.018.046.012.094-.005.057-.002.083.018.091.017.007.027.042.027.095 0 .047.01.091.02.1.012.006.018.05.014.095-.004.057.002.084.021.093.02.008.023.033.014.093-.01.065-.004.084.02.095.024.01.028.032.02.097-.007.068-.004.084.02.084s.028.017.019.093c-.01.072-.006.096.015.106.017.007.029.04.029.085 0 .04.01.08.021.088.014.009.017.047.012.096-.006.056-.002.082.017.09.017.007.027.043.027.095 0 .047.01.091.021.1.014.008.017.046.012.095-.006.057-.002.082.017.09.017.007.027.043.027.096 0 .046.01.09.021.1.012.005.017.05.014.094-.004.057.001.085.02.093.02.009.024.034.014.093-.01.066-.004.085.02.095.024.01.028.032.02.097-.007.068-.003.085.02.085.025 0 .029.017.02.093-.01.072-.007.095.014.106.018.006.03.04.03.084 0 .04.009.08.02.089.014.008.018.046.012.095-.006.057-.002.082.017.09.018.007.027.043.027.096 0 .046.01.09.021.1.014.008.018.046.012.094-.006.057-.002.083.017.091.018.007.027.042.027.095 0 .047.01.091.021.1.012.006.018.05.014.095-.004.057.002.084.021.093.02.008.023.033.014.093-.01.065-.004.084.019.095.025.01.029.031.02.097-.007.068-.003.084.02.084.025 0 .029.017.02.093-.01.072-.006.096.015.106.017.006.029.04.029.085 0 .04.01.08.02.088.014.009.018.047.012.095-.005.057-.002.083.018.091.017.007.027.042.027.095 0 .047.01.091.02.1.014.008.018.046.012.095-.005.057-.002.082.018.09.017.007.027.043.027.096 0 .046.01.09.02.099.012.006.018.05.014.095-.004.057.002.085.021.093.02.008.023.034.014.093-.01.066-.004.085.02.095.024.01.028.032.02.097-.007.068-.004.085.02.085.025 0 .028.017.019.093-.01.072-.006.095.015.105.017.007.029.04.029.085 0 .04.01.08.021.089.014.008.017.046.012.095-.006.057-.002.082.017.09.017.007.027.043.027.096 0 .046.01.09.021.1.014.008.017.046.012.094-.006.057-.002.083.017.091.017.006.027.042.027.095 0 .047.01.091.021.1.012.006.017.05.014.095-.004.057.001.084.02.093.02.008.024.033.014.092-.01.066-.004.085.02.096.024.01.028.031.02.097-.007.067-.003.084.02.084.025 0 .029.017.02.093-.01.072-.007.095.014.106.018.006.03.04.03.084 0 .04.009.08.02.09.014.008.018.046.012.094-.006.057-.002.083.017.091.018.006.027.042.027.095 0 .047.01.091.021.1.014.008.018.046.012.095-.006.057-.002.082.017.09.018.007.027.043.027.096 0 .046.01.09.021.099.012.006.018.05.014.095-.004.057.002.085.021.093.02.009.023.034.014.093-.01.066-.004.085.019.095.025.01.029.032.02.097-.007.068-.003.085.02.085.025 0 .029.017.02.093-.01.072-.006.095.015.105.017.007.029.04.029.085 0 .04.01.08.02.089.014.008.018.046.012.095-.005.057-.002.082.018.09.017.007.027.043.027.096 0 .046.01.09.02.1.014.008.018.046.012.094-.005.057-.002.083.018.091.017.006.027.042.027.095 0 .047.01.091.02.1.014.008.018.046.012.095-.007.065-.004.082.02.082.025 0 .028.017.019.093-.01.074-.006.095.019.105.023.011.027.034.02.098-.008.061-.003.084.019.093.023.01.026.034.017.095-.008.061-.004.084.017.095.017.006.029.04.029.084 0 .04.01.08.021.09.014.008.018.046.012.094-.006.057-.002.083.017.091.017.007.027.042.027.095 0 .047.01.091.021.1.014.008.017.046.012.095-.006.057-.002.082.017.09.017.007.027.043.027.096 0 .046.01.09.021.099.014.008.017.046.012.095-.008.066-.004.082.019.082.025 0 .029.017.02.093-.01.074-.007.095.018.106.023.01.027.034.02.097-.008.061-.002.085.019.093.023.01.027.034.017.095-.008.062-.004.085.017.095.018.007.03.04.03.085 0 .04.009.08.02.089.014.008.018.046.012.095-.006.057-.002.082.017.09.018.007.027.043.027.096 0 .046.01.09.021.099.014.008.018.047.012.095-.006.057-.002.082.017.09.018.007.027.043.027.096 0 .046.01.09.021.1.014.008.018.046.012.094-.008.066-.004.083.02.083s.028.017.018.093c-.01.074-.005.095.02.105.023.011.027.034.019.098-.008.061-.002.084.02.093.022.01.026.034.017.095-.008.061-.004.084.017.095.017.006.029.04.029.084 0 .04.01.08.02.09.014.007.018.046.012.094-.005.057-.002.083.018.091.017.006.027.042.027.095 0 .047.01.091.02.1.014.008.018.046.012.095-.005.057-.002.082.018.09.017.007.027.043.027.096 0 .046.01.09.02.099.014.008.018.046.012.095-.007.065-.004.082.02.082.025 0 .028.017.019.093-.01.074-.006.095.02.106.022.01.026.034.018.097-.007.061-.002.085.02.093.023.01.026.034.017.095-.008.062-.004.085.017.095.017.007.029.04.029.085 0 .04.01.08.021.089.014.008.018.046.012.095-.006.057-.002.082.017.09.017.007.027.043.027.096 0 .046.01.09.021.099.014.008.017.046.012.095-.006.057-.002.082.017.09.017.007.027.043.027.096 0 .046.01.09.02.097.01.007.018.05.018.095s.01.089.022.097c.011.007.017.04.013.074-.006.036.002.064.017.07.014.006.025.036.025.066 0 .03.01.053.02.053.011 0 .019.012.019.025 0 .04.117.291.135.291.01 0 .023.022.03.047.008.027.095.137.193.245.1.108.18.205.18.214 0 .01.014.029.03.044.019.017.028.019.028.004 0-.013.014-.019.03-.013.015.009.028.026.028.04 0 .015.015.04.033.056.027.025.029.025.017 0-.013-.022-.006-.026.029-.013.025.008.05.025.052.034.004.01.023.019.044.019.02 0 .037.008.037.019 0 .01.019.023.044.027.023.004.04.02.038.032-.001.012.008.03.024.036.015.006.028.002.028-.009 0-.012.014-.02.03-.02.015 0 .028.014.028.033 0 .025.014.03.06.019.048-.013.06-.008.07.03.009.044.082.063.082.023 0-.028.11-.028.125 0 .017.03 54.058.03 54.058 0 0-.013.026-.021.057-.021.033 0 .058.008.058.02 0 .011.017.022.038.022.022 0 .039-.015.039-.032 0-.042.058-.067.077-.032.01.02.025.013.058-.025.027-.032.046-.04.052-.023.011.034.063.01.063-.03 0-.017.014-.027.035-.023.017.004.044-.006.056-.025.02-.028.026-.028.044 0 .015.027.02.025.02-.007 0-.02.014-.044.034-.05a.233.233 0 0 0 .06-.045.075.075 0 0 1 .06-.019c.022.007.038 0 .038-.014 0-.04.069-.102.123-.108.057-.009.173-.131.21-.226a.547.547 0 0 1 .07-.12c.047-.052.112-.17.166-.299.017-.04.038-.09.048-.11a.209.209 0 0 0 .017-.07c0-.016.01-.031.02-.031.011 0 .019-.028.019-.061 0-.036.008-.07.02-.076.009-.007.018-.04.018-.074 0-.072.018-.131.037-.119.006.004.01-.027.006-.074-.006-.059 0-.084.023-.095.023-.01.027-.031.017-.105-.008-.072-.006-.093.015-.093.02 0 .03-.028.031-.091.004-.146.027-.27.052-.281.014-.007.02-.042.016-.091-.004-.044.002-.089.013-.095.012-.009.021-.053.021-.1 0-.052.01-.088.027-.095.02-.008.023-.033.017-.09-.005-.05-.001-.087.012-.096.012-.008.021-.048.021-.088 0-.045.012-.078.03-.085.02-.01.024-.034.016-.103-.007-.055-.003-.096.01-.104.012-.008.021-.048.021-.089 0-.044.012-.078.03-.084.02-.01.024-.034.014-.106-.007-.072-.005-.093.016-.093.02 0 .029-.027.03-.089.004-.147.028-.272.053-.283.013-.006.019-.042.015-.09-.004-.045.002-.09.014-.096.011-.008.02-.052.02-.099 0-.053.01-.089.028-.095.019-.008.023-.034.017-.091-.006-.049-.002-.087.011-.095.012-.009.022-.049.022-.089 0-.044.011-.078.029-.084.02-.01.025-.034.017-.104-.008-.055-.004-.095.01-.103.01-.009.02-.049.02-.09 0-.044.012-.077.03-.084.02-.01.024-.034.015-.105-.008-.072-.006-.093.015-.093.02 0 .03-.028.031-.089.004-.148.027-.273.052-.283.013-.007.02-.042.015-.091-.004-.044.002-.089.014-.095.011-.009.021-.053.021-.1 0-.052.01-.088.027-.095.02-.008.023-.033.017-.09-.006-.049-.002-.087.012-.096.011-.008.02-.048.02-.088 0-.045.012-.078.03-.085.021-.01.025-.034.017-.103-.008-.055-.004-.095.01-.104.011-.008.02-.048.02-.089 0-.044.012-.078.03-.084.02-.01.025-.034.015-.106-.008-.072-.006-.093.015-.093.02 0 .03-.027.031-.088.004-.148.027-.273.052-.284.014-.006.02-.042.016-.09-.004-.045.002-.09.013-.096.012-.008.021-.052.021-.099 0-.053.01-.089.027-.095.02-.008.023-.034.018-.09-.006-.05-.002-.087.011-.096.012-.008.021-.053.021-.1 0-.052.01-.088.027-.094.02-.009.023-.034.017-.091-.005-.049-.001-.087.012-.095.012-.009.021-.049.021-.09 0-.043.012-.077.03-.084.02-.01.024-.033.014-.105-.01-.076-.005-.093.02-.093.023 0 .027-.017.019-.085-.008-.065-.004-.086.021-.097.023-.01.029-.03.02-.095-.01-.06-.006-.085.013-.093.02-.008.025-.036.021-.093-.004-.044.002-.089.013-.095.012-.008.022-.053.022-.1 0-.052.01-.088.027-.094.019-.009.023-.034.017-.091-.006-.049-.002-.087.011-.095.012-.009.022-.053.022-.1 0-.053.01-.088.026-.095.02-.008.024-.034.018-.09-.006-.05-.002-.087.011-.096.012-.008.022-.048.022-.089 0-.044.011-.078.028-.084.022-.01.025-.034.016-.106-.01-.076-.006-.093.02-.093.022 0 .026-.017.018-.084-.007-.066-.004-.087.022-.097.023-.011.028-.03.019-.096-.01-.059-.006-.084.013-.093.02-.008.025-.035.021-.092-.004-.045.002-.09.014-.095.011-.009.021-.053.021-.1 0-.053.01-.089.027-.095.02-.008.023-.034.017-.09-.005-.05-.002-.087.012-.096.011-.008.02-.053.02-.1 0-.052.01-.088.028-.094.02-.009.023-.034.017-.091-.006-.049-.002-.087.012-.095.011-.009.02-.049.02-.089 0-.044.012-.078.03-.085.02-.01.025-.033.015-.105-.01-.076-.006-.093.02-.093.022 0 .026-.017.019-.085-.008-.065-.004-.086.02-.097.024-.01.03-.03.02-.095-.01-.06-.006-.084.013-.093.02-.008.025-.036.022-.093-.004-.044.002-.089.013-.095.012-.009.021-.053.021-.1 0-.052.01-.088.027-.094.02-.009.023-.034.018-.091-.006-.049-.002-.087.011-.095.012-.009.021-.053.021-.1 0-.052.01-.088.027-.095.02-.008.023-.034.017-.09-.005-.05-.001-.087.012-.096.012-.008.021-.048.021-.088 0-.045.012-.079.03-.085.02-.01.024-.034.014-.106-.01-.076-.005-.093.02-.093.023 0 .027-.017.019-.084-.008-.066-.004-.087.021-.097.023-.01.029-.03.02-.095-.01-.06-.006-.085.013-.093.02-.009.025-.036.021-.093-.004-.045.002-.09.013-.096.012-.008.022-.052.022-.099 0-.053.01-.089.027-.095.019-.008.023-.034.017-.09-.006-.05-.002-.087.012-.096.011-.008.02-.053.02-.1 0-.052.01-.088.028-.094.019-.009.023-.034.017-.091-.006-.049-.002-.087.011-.095.012-.009.022-.049.022-.089 0-.044.011-.078.029-.084.02-.011.024-.034.015-.106-.01-.076-.006-.093.02-.093.022 0 .026-.017.018-.085-.007-.065-.004-.086.022-.097.023-.01.028-.03.019-.095-.01-.06-.006-.084.013-.093.02-.008.025-.036.021-.093-.004-.044.002-.089.014-.095.011-.008.021-.053.021-.1 0-.052.01-.088.027-.094.02-.009.023-.034.017-.091-.005-.049-.002-.087.012-.095.011-.009.021-.053.021-.1 0-.052.01-.088.027-.095.02-.008.023-.033.017-.09-.006-.05-.002-.087.012-.096.011-.008.02-.048.02-.088 0-.045.013-.079.03-.085.021-.01.025-.034.015-.106-.01-.076-.006-.093.02-.093.022 0 .026-.016.019-.084-.008-.066-.004-.087.02-.097.024-.01.03-.03.02-.095-.01-.06-.006-.085.013-.093.02-.009.026-.036.022-.093-.004-.045.002-.089.013-.095.012-.009.021-.053.021-.1 0-.053.01-.089.027-.095.02-.008.023-.034.018-.09-.006-.05-.002-.087.011-.096.012-.008.021-.053.021-.1 0-.052.01-.088.027-.094.02-.009.023-.034.018-.091-.006-.049-.002-.087.011-.095.012-.009.021-.049.021-.089 0-.044.012-.078.03-.084.02-.01.024-.034.016-.096-.01-.06-.005-.084.018-.095.02-.008.027-.031.019-.092-.008-.064-.004-.087.02-.098.024-.01.028-.031.019-.105-.01-.076-.006-.093.019-.093.023 0 .027-.017.019-.083-.006-.048-.002-.086.011-.095.012-.008.022-.053.022-.1 0-.052.01-.088.027-.094.019-.009.023-.034.017-.091-.006-.049-.002-.087.011-.095.012-.009.022-.053.022-.1 0-.052.01-.088.027-.095.019-.008.023-.033.017-.09-.006-.05-.002-.087.011-.096.012-.008.022-.048.022-.088 0-.045.011-.078.029-.085.02-.01.024-.034.017-.095-.01-.061-.006-.084.017-.095.021-.008.027-.032.02-.093-.008-.063-.004-.087.019-.097.025-.01.028-.032.019-.106-.01-.076-.006-.093.02-.093.022 0 .026-.017.018-.082-.005-.049-.002-.087.012-.095.011-.009.021-.053.021-.1 0-.053.01-.088.027-.095.02-.008.023-.033.017-.09-.005-.05-.002-.087.012-.096.011-.008.021-.052.021-.099 0-.053.01-.089.027-.095.02-.008.023-.034.017-.09-.005-.05-.002-.088.012-.096.011-.008.02-.049.02-.089 0-.044.013-.078.03-.084.021-.01.025-.034.017-.095-.01-.062-.006-.085.017-.096.022-.008.027-.031.02-.092-.008-.064-.004-.087.019-.098.025-.01.029-.031.02-.105-.01-.076-.007-.093.018-.093.023 0 .027-.017.02-.083-.006-.048-.002-.086.011-.095.012-.008.021-.053.021-.1 0-.052.01-.088.027-.094.02-.009.023-.034.018-.091-.006-.049-.002-.087.011-.095.012-.009.021-.053.021-.1 0-.052.01-.088.027-.094.02-.009.023-.034.018-.091-.006-.049-.002-.087.011-.096.012-.008.021-.048.021-.088 0-.045.012-.078.03-.085.02-.01.024-.034.016-.095-.01-.061-.005-.084.018-.095.02-.008.027-.032.019-.093-.008-.063-.004-.087.02-.097.024-.01.028-.032.019-.106-.01-.076-.006-.093.019-.093.023 0 .027-.017.019-.082-.006-.049-.002-.087.011-.095.012-.009.022-.053.022-.1 0-.052.01-.088.027-.095.019-.008.023-.033.017-.09-.006-.05-.002-.087.011-.096.012-.008.022-.052.022-.099 0-.053.01-.089.027-.095.019-.008.023-.034.017-.09-.006-.05-.002-.087.011-.096.012-.008.022-.049.022-.089 0-.044.011-.078.029-.084.02-.01.025-.034.017-.095-.01-.062-.006-.085.017-.095.021-.009.027-.032.02-.093-.008-.064-.004-.087.019-.098.025-.01.028-.031.019-.105-.01-.076-.006-.093.02-.093.022 0 .026-.017.018-.083-.005-.048-.002-.086.012-.095.011-.008.021-.053.021-.099 0-.053.01-.089.027-.095.02-.009.023-.034.017-.091-.005-.049-.002-.087.012-.095.011-.008.021-.053.021-.1 0-.052.01-.088.027-.094.02-.009.023-.034.017-.091-.005-.049-.002-.087.012-.095.011-.009.021-.049.021-.09 0-.044.011-.077.029-.084.021-.01.025-.033.017-.095-.01-.061-.006-.084.018-.095.02-.008.026-.032.019-.093-.008-.063-.004-.087.019-.097.025-.01.029-.032.02-.106-.01-.076-.007-.093.018-.093.023 0 .027-.017.02-.082-.006-.049-.002-.087.011-.095.012-.009.021-.053.021-.1 0-.052.01-.088.027-.095.02-.008.023-.033.018-.09-.006-.049-.002-.087.011-.096.012-.008.021-.052.021-.099 0-.053.01-.089.027-.095.02-.008.023-.034.018-.09-.006-.05-.002-.087.011-.096.012-.008.021-.049.021-.089 0-.044.012-.078.03-.084.02-.01.024-.034.016-.104-.007-.055-.003-.095.01-.103.012-.009.021-.049.021-.089 0-.044.012-.078.03-.084.02-.011.024-.034.014-.106-.01-.076-.005-.093.02-.093.023 0 .027-.017.019-.082-.006-.05-.002-.087.011-.096.012-.008.022-.053.022-.099 0-.048.01-.089.025-.095.015-.006.02-.038.017-.09-.004-.045.002-.09.013-.096.012-.008.022-.053.022-.1 0-.052.01-.088.027-.094.019-.009.023-.034.017-.091-.006-.049-.002-.087.011-.095.012-.009.022-.049.022-.09 0-.044.011-.077.029-.084.02-.01.025-.033.017-.103-.008-.055-.004-.095.01-.104.011-.008.02-.048.02-.088 0-.045.012-.079.03-.085.02-.01.025-.034.015-.106-.01-.076-.006-.093.02-.093.022 0 .026-.017.018-.082-.005-.049-.002-.087.012-.095.011-.009.021-.053.021-.1 0-.048.01-.088.025-.095.016-.006.021-.038.017-.09-.003-.045.002-.09.014-.095.011-.009.021-.053.021-.1 0-.053.01-.088.027-.095.02-.008.023-.034.017-.09-.005-.05-.002-.087.012-.096.011-.008.021-.048.021-.089 0-.044.011-.078.029-.084.021-.01.025-.034.017-.104-.007-.054-.004-.095.01-.103.011-.009.02-.049.02-.089 0-.044.013-.078.03-.084.021-.011.025-.034.015-.106-.01-.076-.006-.093.02-.093.023 0 .026-.017.019-.082-.006-.05-.002-.087.011-.095.012-.009.021-.053.021-.1 0-.048.01-.089.025-.095.016-.006.022-.038.018-.09-.004-.045.002-.09.013-.096.012-.008.021-.053.021-.1 0-.052.01-.088.027-.094.02-.009.023-.034.018-.091-.006-.049-.002-.087.011-.095.012-.009.021-.049.021-.089 0-.044.012-.078.03-.084.02-.011.024-.034.016-.104-.007-.055-.003-.095.01-.104.012-.008.021-.048.021-.088 0-.045.012-.079.03-.085.02-.01.024-.034.014-.105-.01-.077-.005-.093.02-.093.023 0 .027-.017.019-.083-.006-.049-.002-.087.012-.095.011-.009.02-.053.02-.1 0-.048.01-.088.026-.094.015-.007.02-.038.017-.091-.004-.045.002-.089.013-.095.012-.009.022-.053.022-.1 0-.053.01-.088.027-.095.019-.008.023-.034.017-.09-.006-.05-.002-.087.011-.096.012-.008.022-.048.022-.089 0-.044.011-.078.028-.084.022-.01.025-.034.018-.103-.008-.055-.004-.096.01-.104.011-.008.02-.049.02-.089 0-.044.012-.078.03-.084.02-.01.025-.034.015-.106-.01-.076-.006-.093.02-.093.022 0 .026-.017.018-.082-.005-.049-.002-.087.012-.095.011-.009.021-.053.021-.1 0-.048.01-.088.025-.095.016-.006.021-.038.017-.09-.003-.045.002-.09.014-.096.011-.008.021-.053.021-.1 0-.052.01-.088.027-.094.02-.009.023-.034.017-.091-.005-.049-.002-.087.012-.095.011-.009.021-.049.021-.089 0-.044.011-.078.029-.084.021-.011.025-.034.017-.104-.007-.055-.004-.095.01-.104.011-.008.021-.048.021-.09 0-.055.01-.076.038-.085.039-.01.056-.07.02-.07-.014 0-.02-1.27-.02-3.767 0-2.071-.005-3.787-.011-3.814l-.012-.047-3.682.004-3.683.007.004-13.507c.005-11.466.002-13.511-.021-13.52-.02-.008-.023-.035-.016-.095.006-.059.002-.084-.017-.093-.016-.006-.027-.031-.027-.055a.225.225 0 0 0-.02-.084 1.756 1.756 0 0 0-.038-.085.253.253 0 0 1-.02-.074c0-.016-.005-.031-.014-.031-.008 0-.027-.032-.04-.07a1.376 1.376 0 0 0-.18-.292.42.42 0 0 1-.073-.13c0-.043-.056-.104-.079-.09-.023.018-.152-.092-.152-.126 0-.015-.013-.038-.029-.053-.019-.017-.029-.019-.029-.004 0 .012-.013.019-.028.012-.016-.008-.03-.025-.03-.04 0-.014-.013-.038-.028-.053-.02-.019-.029-.019-.029-.002 0 .034-.03.03-.065-.008-.016-.017-.043-.032-.058-.032a.03.03 0 0 1-.03-.03c0-.04-.049-.056-.076-.027-.015.017-.021.015-.021-.01 0-.026-.016-.034-.052-.032-.035.002-.052-.006-.048-.023.004-.021-.014-.024-.064-.013-.06.013-.07.008-.08-.032-.006-.03-.026-.044-.056-.044-.025 0-.046.008-.046.021 0 .01-.035.021-.077.021-.043 0-.077-.01-.077-.02 0-.03-53.887-.03-53.904 0-.006.01-.046.02-.089.02-.04 0-.075-.01-.075-.02 0-.041-.073-.022-.082.02ZM61.379 8.28v4.727L46.492 13c-8.189-.002-19.6-.007-25.362-.011-5.758-.002-10.47.002-10.47.01 0 .011-.008.018-.02.018-.013 0-.019-1.592-.019-4.73V3.56l25.344.007c16.203.002 25.35-.002 25.364-.017.01-.01.025-.015.035-.009.007.007.015 2.139.015 4.738Zm-.004 14.3c.002 3.323 0 6.055-.006 6.072-.008.023-.015.026-.032.006-.018-.018-.799-.025-3.175-.025h-3.15l-.006-.725c-.004-.397-.002-.735.002-.75.008-.03.06-.036.06-.006s.073.002.085-.034c.007-.023.026-.027.069-.017.044.01.057.006.054-.015-.004-.019.011-.025.048-.023.036.002.052-.006.052-.032 0-.025.005-.027.02-.01.028.03.076.012.076-.028 0-.036.05-.04.063-.004.008.017.016.009.025-.021.01-.038.018-.042.039-.023.021.019.029.015.038-.01.008-.022.025-.033.04-.026.014.006.032-.002.04-.021.005-.017.022-.028.038-.021.017.008.032-.003.038-.03.008-.034.016-.038.039-.019.02.021.029.017.038-.021.006-.026.02-.042.03-.038.013.004.04-.013.06-.036.026-.028.041-.034.047-.015.01.032.061-.01.061-.05 0-.015.014-.032.03-.04.015-.007.028 0 .028.012 0 .015.01.013.029-.004.015-.015.029-.038.029-.055 0-.034.071-.078.096-.061.011.006.027-.009.036-.036.022-.06.149-.174.174-.155.027.017.24-.222.28-.312a1.09 1.09 0 0 1 .128-.195.698.698 0 0 0 .094-.137c0-.01.017-.026.038-.032a.057.057 0 0 0 .039-.05c0-.022.017-.064.038-.094a.207.207 0 0 0 .039-.076c0-.012.006-.023.015-.023.008 0 .066-.11.127-.243.062-.133.121-.243.131-.243.01 0 .014-.019.006-.04-.006-.023-.002-.047.01-.055.01-.006.019-.032.019-.055s.011-.046.027-.053c.015-.006.02-.031.015-.061-.006-.034.002-.057.02-.063.019-.009.024-.032.019-.064-.006-.034.001-.057.019-.063.019-.009.025-.034.019-.074-.006-.042.002-.068.021-.076.021-.009.027-.032.02-.095-.008-.064-.005-.083.017-.083.023 0 .027-.02.019-.105-.006-.083-.002-.108.021-.119.025-.01.029-.04.02-.19-.01-.152-.008-.177.02-.19.03-.013.031-.184.031-2.124v-2.11h-1.656l.002 2.138c.002 2.455.003 2.2-.016 2.185-.01-.007-.013.036-.008.093.006.082.002.107-.02.118-.024.008-.03.03-.02.074.008.044.002.063-.02.074-.017.006-.024.025-.018.044a.124.124 0 0 1-.01.076c-.01.026-.042.102-.071.167-.027.068-.06.123-.07.123-.01 0-.017.019-.017.042 0 .023-.017.06-.038.078-.021.021-.039.051-.039.066 0 .015-.025.057-.056.09a.787.787 0 0 0-.096.134c-.046.082-.213.239-.213.2 0-.016-.014-.01-.039.013-.021.021-.038.05-.038.066 0 .04-.072.078-.083.044-.008-.017-.012-.013-.012.009a.132.132 0 0 1-.036.067c-.027.028-.04.03-.058.01-.02-.02-.027-.016-.036.022-.006.027-.022.044-.033.04-.015-.006-.023-.807-.027-2.99l-.004-2.984H53.355v2.99c0 2.976 0 2.99-.038 2.99-.021 0-.039-.01-.039-.02 0-.014-.013-.022-.029-.022a.03.03 0 0 1-.028-.03c0-.014-.014-.04-.03-.054-.018-.017-.028-.02-.028-.005 0 .038-.048.007-.067-.044-.012-.027-.033-.044-.054-.04-.048.008-.36-.334-.36-.393a.064.064 0 0 0-.039-.057c-.02-.007-.044-.036-.05-.066a.14.14 0 0 0-.034-.067c-.02-.013-.048-.07-.168-.347a.1.1 0 0 1-.005-.066c.005-.016-.004-.035-.024-.044-.023-.01-.028-.03-.02-.074.009-.044.003-.065-.02-.074-.023-.01-.027-.031-.017-.095.008-.053.004-.087-.01-.09-.013-.005-.02-.647-.017-2.2l.002-2.192h-1.657v2.168c0 1.96.004 2.17.03 2.2.024.027.03.068.024.18-.006.11 0 .145.021.154.02.008.023.034.016.104-.01.071-.006.095.015.105.017.006.029.038.029.074 0 .034.01.07.021.078.011.007.017.04.013.074-.005.038.002.064.02.072.017.006.025.03.019.063-.006.03 0 .055.015.062.016.006.027.036.027.065 0 .03.01.053.02.053.011 0 .019.015.019.032s.007.048.017.07c.01.018.054.12.098.226.046.103.089.194.096.2a.702.702 0 0 1 .056.11c.025.057.05.102.06.102.008 0 .025.027.036.063.01.034.027.063.039.063.01 0 .023.02.03.04a.47.47 0 0 0 .08.119.394.394 0 0 1 .078.14c.006.037.023.06.043.06.04 0 .348.339.348.385 0 .034.021.049.063.04.033-.006.091.043.114.1.017.036.038.055.062.05.04-.008.107.053.11.1 0 .02.005.023.009.008.008-.019.021-.019.058-.002.025.013.046.032.046.042 0 .009.011.017.027.017.013 0 .03.02.036.045.006.025.02.038.033.03.012-.007.037.008.058.035.02.028.036.038.038.023 0-.027.077-.01.077.017 0 .01.017.02.039.02.02 0 .038.014.038.031 0 .03.021.04.07.034.013-.002.028.012.034.034.012.03.017.031.029.008.01-.015.027-.021.038-.015.012.009.018.026.01.036-.006.013.008.015.038.006.037-.008.05-.004.05.02 0 .016.014.035.03.044.015.006.028.002.028-.009 0-.012.014-.02.03-.02a.03.03 0 0 1 .028.029c0 .036.052.061.062.03.005-.015.023-.02.042-.011.017.008.029.023.021.036-.006.012.017.019.062.015l.073-.005.006.765c.001.508-.002.767-.016.767-.01 0-.02-.01-.02-.02 0-.015-.984-.022-2.916-.022H47.48l-.037-.049c-.034-.042-.036-.07-.026-.308.007-.218.003-.266-.02-.294-.025-.027-.029-.076-.019-.296.008-.22.004-.268-.02-.295-.024-.028-.028-.076-.018-.296.007-.22.003-.268-.02-.296-.025-.027-.029-.076-.019-.296.008-.22.004-.268-.02-.296-.024-.027-.028-.076-.018-.296.007-.22.003-.268-.02-.295-.025-.028-.029-.076-.019-.296.008-.22.004-.268-.02-.296-.024-.027-.028-.076-.018-.296.007-.22.004-.268-.02-.296-.025-.027-.028-.076-.019-.296.008-.22.004-.268-.02-.295-.024-.028-.028-.076-.018-.302.01-.233.005-.271-.02-.282-.027-.01-.028-.05-.019-.295.008-.245.006-.286-.019-.296-.027-.01-.029-.05-.02-.296.008-.245.007-.285-.018-.296-.027-.01-.03-.05-.02-.296.008-.247.006-.285-.02-.296-.028-.012-.03-.046-.018-.274.01-.222.008-.264-.018-.275-.019-.008-.028-.04-.028-.106 0-.052-.01-.101-.022-.11-.011-.006-.017-.035-.011-.063.004-.03-.002-.053-.017-.059-.016-.006-.027-.023-.027-.036 0-.042-.083-.23-.1-.23-.008 0-.016-.01-.016-.023a.207.207 0 0 0-.038-.077.207.207 0 0 1-.039-.093c0-.023-.01-.04-.02-.04-.032 0-.345-.34-.345-.372 0-.012-.014-.035-.03-.05-.018-.02-.028-.02-.028-.002 0 .035-.066-.015-.089-.07-.011-.028-.032-.042-.055-.038-.025.002-.047-.013-.058-.043-.014-.033-.033-.046-.064-.042-.03.005-.048-.008-.06-.042-.01-.027-.018-.036-.018-.023-.002.038-.04.034-.04-.002 0-.015-.014-.04-.03-.055-.019-.02-.029-.02-.029-.002 0 .033-.03.03-.065-.009-.015-.017-.042-.031-.058-.031-.017 0-.03-.011-.03-.022 0-.012-.018-.02-.039-.02s-.038-.016-.038-.032c0-.03-.022-.04-.07-.034-.013.002-.029-.013-.034-.032-.01-.025-.018-.03-.039-.01-.021.018-.029.014-.038-.024-.01-.03-.018-.038-.025-.023-.014.038-.064.034-.064-.002 0-.04-.048-.057-.075-.028-.015.017-.021.015-.021-.01 0-.026-.015-.034-.052-.032-.033.002-.052-.006-.05-.021.002-.013-.008-.03-.023-.036-.016-.006-.029-.002-.029.009 0 .012-.014.02-.029.02a.03.03 0 0 1-.029-.029c0-.017-.013-.034-.029-.042-.015-.007-.029-.002-.029.008 0 .013-.013.021-.028.021-.016 0-.03-.014-.03-.031 0-.024-.017-.03-.06-.028-.045.004-.062-.002-.059-.02.004-.022-.013-.024-.063-.014-.056.011-.067.007-.067-.023s-.012-.034-.066-.023c-.046.01-.07.006-.082-.015-.02-.036-.083-.063-.083-.036 0 .034-.058.023-.071-.012-.008-.026-.027-.03-.085-.02-.058.011-.077.007-.087-.018-.01-.026-.029-.032-.086-.022-.058.01-.077.007-.087-.02-.01-.028-.029-.033-.106-.022-.077.01-.096.009-.105-.021-.012-.032-.03-.034-.104-.023-.07.01-.099.006-.122-.021-.025-.026-.052-.03-.129-.02-.078.011-.098.009-.107-.02-.012-.032-.031-.037-.154-.024-.123.013-.145.01-.154-.02-.012-.033-.035-.035-.19-.022-.149.013-.181.01-.208-.02-.027-.029-.068-.03-.33-.02-.267.012-.3.01-.311-.02-.01-.03-.067-.035-.547-.035-.475.002-.536.004-.546.036-.012.03-.046.032-.302.02-.252-.012-.294-.01-.321.02-.026.03-.058.034-.2.021-.145-.013-.176-.008-.203.021-.026.028-.055.032-.154.021-.1-.01-.128-.008-.153.021-.025.026-.052.032-.131.02-.085-.011-.104-.007-.114.023-.01.03-.029.031-.115.02-.087-.012-.104-.008-.116.022-.01.027-.029.034-.096.023-.067-.01-.087-.006-.096.021-.01.026-.03.03-.096.021-.068-.01-.087-.006-.096.02-.01.025-.03.03-.087.018-.058-.01-.077-.006-.087.022-.007.025-.027.03-.075.02-.052-.01-.069-.006-.079.022-.007.027-.025.032-.069.021-.044-.01-.058-.006-.058.019 0 .02-.013.034-.029.034-.015 0-.028-.009-.028-.021 0-.028-.064 0-.083.036-.012.02-.035.025-.073.017-.042-.011-.056-.007-.052.014.004.02-.014.026-.058.021-.04-.002-.06.005-.058.022.004.017-.013.027-.042.025-.027-.002-.056.01-.063.025-.008.017-.031.03-.049.03a.103.103 0 0 0-.06.025c-.018.021-.028.021-.034.002-.011-.033-.063-.01-.063.03 0 .021-.014.03-.037.021-.023-.006-.042.002-.048.021-.008.02-.025.026-.05.017-.029-.01-.038-.004-.038.023 0 .028-.006.03-.03.009-.022-.021-.03-.02-.04.006-.006.02-.023.028-.038.021-.014-.006-.031.005-.039.021-.005.02-.023.028-.038.021-.014-.006-.033.005-.039.026-.007.019-.025.03-.04.023-.017-.008-.033.002-.038.03-.008.034-.016.038-.039.019-.021-.021-.029-.017-.038.02-.006.026-.022.043-.035.039-.012-.006-.033.008-.046.032-.016.027-.037.038-.064.031-.027-.008-.042 0-.048.028-.01.04-.056.072-.083.053-.007-.007-.019.006-.023.027-.011.049-.13.146-.13.108 0-.017-.014-.01-.04.012-.02.022-.037.05-.037.062 0 .034-.216.266-.247.266-.013 0-.023.017-.023.04 0 .021-.02.061-.044.089a1.431 1.431 0 0 0-.117.22c-.04.093-.081.186-.091.205a.23.23 0 0 0-.017.08c0 .023-.012.049-.025.055-.02.008-.025.04-.018.112.006.074 0 .11-.023.135-.027.03-.029.07-.019.298.012.239.01.266-.02.279-.028.013-.03.042-.018.296.011.253.01.283-.02.296-.029.012-.03.042-.019.295.012.254.01.284-.02.296-.028.013-.03.043-.018.296.011.254.01.283-.02.296-.028.013-.03.042-.019.296.012.253.01.283-.02.296-.028.012-.03.042-.018.291.011.243.01.283-.02.313-.026.032-.03.07-.019.296.012.228.01.266-.02.296-.026.031-.03.07-.018.295.011.229.01.267-.02.296-.026.032-.03.07-.019.296.012.228.01.266-.019.296-.027.032-.03.07-.02.296.012.228.01.266-.019.296-.027.031-.03.07-.019.296.012.228.01.266-.019.295-.027.032-.03.07-.02.296.012.228.01.266-.019.296-.026.032-.03.07-.019.296l.014.26-.872-.007c-.685-.004-.875 0-.887.021-.025.043-.035.011-.038-.116-.004-.082-.014-.122-.033-.13-.023-.011-.027-.047-.017-.216.01-.167.005-.21-.02-.235-.023-.025-.027-.063-.019-.165.008-.105.002-.135-.02-.145-.022-.009-.026-.04-.02-.148.005-.104.002-.14-.02-.148-.02-.009-.024-.034-.017-.104.01-.072.006-.095-.015-.105-.02-.009-.03-.043-.03-.106 0-.053-.009-.102-.02-.11-.014-.008-.018-.049-.01-.103.008-.07.004-.093-.017-.104-.018-.006-.03-.04-.03-.085 0-.04-.007-.08-.018-.086-.01-.007-.02-.045-.02-.085 0-.04-.007-.078-.019-.084-.01-.007-.019-.04-.019-.074 0-.034-.01-.068-.021-.076-.014-.009-.017-.045-.012-.085.008-.05.004-.072-.013-.072-.014 0-.035-.05-.05-.122a.59.59 0 0 0-.043-.142.178.178 0 0 1-.015-.078c0-.032-.008-.06-.02-.06-.009 0-.018-.022-.018-.05 0-.03-.008-.06-.02-.065-.01-.007-.019-.03-.019-.051a.438.438 0 0 0-.04-.127c-.022-.05-.037-.11-.031-.13.006-.022-.002-.043-.017-.05a.045.045 0 0 1-.027-.04.5.5 0 0 0-.039-.116.453.453 0 0 1-.038-.118c0-.017-.01-.038-.02-.045-.01-.006-.019-.031-.019-.055 0-.02-.008-.04-.02-.04-.009 0-.018-.01-.018-.02a11.508 11.508 0 0 0-.48-1.083 1.041 1.041 0 0 0-.074-.148c-.023-.01-.081-.137-.081-.173 0-.019-.008-.034-.02-.034-.01 0-.042-.044-.07-.101a.9.9 0 0 0-.078-.127.107.107 0 0 1-.025-.06.048.048 0 0 0-.027-.041c-.015-.007-.036-.04-.048-.074-.01-.034-.027-.062-.038-.062-.01 0-.025-.019-.031-.042a.345.345 0 0 0-.054-.093 1.486 1.486 0 0 1-.09-.127 4.093 4.093 0 0 0-.12-.177.386.386 0 0 1-.073-.135c0-.02-.017-.04-.036-.049-.044-.015-.106-.114-.104-.165.002-.02-.01-.036-.03-.036-.041 0-.176-.169-.176-.22 0-.018-.012-.033-.027-.033-.038 0-.317-.336-.333-.4-.015-.063-.308-.388-.335-.37-.02.013-.306-.26-.306-.295-.002-.045-.076-.123-.125-.13-.061-.006-.163-.109-.163-.162 0-.034-.021-.048-.066-.04-.03.006-.11-.063-.127-.116-.011-.03-.026-.047-.038-.04-.027.019-.077-.017-.104-.076-.013-.028-.035-.049-.048-.045-.035.009-.098-.036-.098-.067 0-.04-.052-.085-.062-.055-.01.034-.111-.06-.111-.102 0-.025-.006-.027-.016-.01-.011.02-.025.019-.058-.007-.023-.017-.042-.044-.042-.059s-.02-.025-.042-.025c-.027.002-.052-.017-.066-.047-.015-.034-.025-.04-.03-.023-.006.021-.023.013-.058-.025-.027-.03-.056-.051-.066-.047-.01.004-.026-.015-.036-.04-.014-.034-.033-.046-.064-.042-.03.004-.048-.009-.06-.043-.01-.027-.018-.035-.018-.023-.002.043-.03.032-.05-.02-.014-.032-.033-.045-.064-.041-.03.004-.048-.008-.06-.042-.011-.028-.019-.036-.019-.023-.002.038-.04.033-.04-.003 0-.014-.016-.042-.033-.057-.021-.02-.027-.02-.017-.004.019.038-.037.034-.073-.004-.016-.017-.039-.032-.05-.032-.012 0-.025-.012-.031-.03-.006-.016-.023-.025-.039-.018-.015.006-.034-.009-.044-.038-.01-.028-.02-.038-.02-.026-.001.045-.04.032-.059-.02-.01-.026-.017-.035-.017-.022-.002.044-.035.032-.046-.02-.01-.035-.018-.04-.039-.018-.023.019-.03.015-.038-.021-.01-.04-.016-.043-.04-.02-.026.022-.032.022-.032-.008 0-.027-.01-.034-.04-.023-.03.01-.042.004-.05-.032-.008-.036-.015-.04-.029-.017-.013.024-.021.022-.04-.004-.012-.019-.039-.03-.056-.025-.02.004-.035-.002-.035-.015s-.017-.023-.038-.023c-.021 0-.039-.015-.039-.032 0-.03-.02-.04-.07-.034-.014.003-.026-.006-.026-.019 0-.015-.015-.019-.038-.01-.025.008-.043.002-.05-.017-.006-.02-.025-.028-.048-.021-.023.008-.037 0-.037-.021 0-.04-.046-.062-.075-.03-.015.017-.021.015-.021-.013 0-.03-.012-.034-.048-.023-.035.009-.048.004-.048-.019 0-.017-.014-.036-.03-.044-.015-.007-.028-.002-.028.008 0 .013-.008.021-.02.021-.009 0-.019-.012-.019-.03 0-.02-.017-.029-.052-.027-.036.002-.052-.004-.048-.023.004-.021-.01-.025-.054-.015-.044.01-.057.006-.057-.017 0-.017-.014-.036-.03-.044-.014-.006-.028-.002-.028.008 0 .013-.013.021-.029.021a.03.03 0 0 1-.029-.03c0-.016-.013-.033-.029-.041-.015-.007-.028-.003-.028.008 0 .013-.014.021-.03.021a.03.03 0 0 1-.028-.03c0-.035-.052-.06-.062-.029-.006.015-.023.02-.042.01-.017-.008-.027-.025-.02-.037.008-.017-.005-.02-.047-.009-.045.01-.062.006-.072-.019-.007-.023-.027-.027-.067-.019-.04.009-.058.002-.067-.023-.01-.028-.027-.032-.066-.023-.036.008-.06.004-.07-.017-.02-.036-.084-.064-.084-.036 0 .031-.054.025-.07-.006-.02-.037-.084-.064-.084-.037 0 .034-.057.024-.07-.012-.008-.026-.028-.03-.085-.02-.058.011-.077.007-.087-.018-.01-.026-.029-.032-.087-.021-.057.01-.076.006-.086-.021-.01-.028-.029-.032-.106-.022-.077.011-.096.009-.106-.02-.011-.03-.029-.035-.115-.022-.087.01-.106.007-.116-.021-.01-.03-.03-.034-.12-.021-.09.01-.118.006-.143-.023-.027-.028-.056-.032-.164-.021-.108.012-.136.008-.163-.02-.027-.03-.062-.033-.258-.02-.194.012-.233.008-.26-.02-.025-.03-.1-.033-.521-.036-.441 0-.491.003-.503.034-.011.032-.038.034-.25.021-.211-.01-.24-.008-.25.021-.011.03-.035.034-.173.022-.139-.013-.162-.01-.173.02-.01.03-.03.033-.118.02-.086-.01-.111-.007-.138.02-.025.028-.052.035-.117.024-.062-.008-.093-.004-.114.021-.021.023-.05.03-.102.02-.052-.011-.077-.005-.096.02-.02.026-.044.032-.096.022-.058-.011-.075-.007-.085.023-.01.027-.027.031-.087.02-.057-.01-.077-.003-.086.022-.01.025-.027.032-.077.021-.05-.01-.067-.006-.077.021-.01.028-.027.032-.079.021-.054-.012-.067-.008-.067.02 0 .016-.014.031-.03.031-.015 0-.028-.008-.028-.02 0-.028-.064 0-.083.035-.011.021-.034.025-.073.017-.042-.01-.056-.006-.056.019 0 .038-.05.046-.061.008-.006-.014-.025-.004-.052.028-.03.032-.048.042-.054.025-.01-.03-.067-.01-.089.032-.011.019-.034.025-.063.017-.033-.01-.046-.004-.046.019 0 .038-.033.042-.043.006-.005-.015-.025-.004-.052.028-.029.031-.048.042-.053.025-.012-.034-.064-.01-.064.027a.03.03 0 0 1-.029.03c-.015 0-.029-.008-.029-.021 0-.01-.013-.015-.029-.009-.015.007-.025.024-.023.036.002.015-.017.024-.048.021-.036-.002-.054.007-.054.028 0 .017-.007.03-.019.03-.01 0-.02-.009-.02-.022 0-.01-.013-.014-.028-.008-.015.008-.029.027-.029.044 0 .024-.013.028-.048.02-.035-.011-.048-.005-.048.018 0 .038-.038.045-.038.005-.002-.015-.012-.011-.027.012-.016.021-.035.036-.043.034-.042-.008-.065.004-.065.036 0 .023-.012.032-.037.023-.023-.006-.042.002-.048.021-.008.02-.025.026-.05.017-.027-.01-.038-.004-.038.02 0 .04-.039.046-.039.006-.002-.015-.011-.009-.029.014-.013.022-.036.032-.046.024-.011-.007-.027 0-.033.019-.005.017-.023.025-.038.019-.014-.007-.03.004-.039.02-.005.02-.023.028-.038.022-.014-.006-.03.004-.038.021-.006.02-.024.028-.039.021-.014-.006-.03.005-.039.021-.005.02-.023.028-.038.021-.013-.006-.03.005-.038.022-.006.019-.024.027-.039.02-.013-.006-.033.005-.038.026-.008.02-.025.03-.04.023-.018-.008-.034.002-.04.03-.01.046-.044.057-.046.015 0-.013-.01-.002-.019.025-.01.03-.029.045-.044.038-.015-.006-.033.002-.038.02-.006.018-.03.029-.054.024-.03-.004-.05.009-.064.04-.017.039-.027.043-.046.022-.017-.02-.025-.015-.033.023-.007.025-.02.047-.03.047-.01 0-.033.014-.049.033-.017.017-.046.028-.065.024-.021-.007-.037.004-.042.031-.008.03-.024.04-.056.034-.031-.004-.05.008-.064.04-.01.028-.029.049-.042.049-.014 0-.025.008-.025.017 0 .01-.021.03-.046.042-.037.017-.05.017-.058-.002-.004-.015-.01-.009-.01.01-.002.043-.08.106-.119.098-.013-.005-.035.014-.044.04-.021.053-.07.082-.07.044 0-.015-.009-.013-.028.004-.016.015-.03.038-.03.055 0 .015-.016.038-.038.051-.028.017-.038.017-.038-.002 0-.015-.015-.01-.038.013-.022.02-.039.048-.039.06 0 .014-.017.037-.038.052-.03.019-.039.019-.039.002 0-.015-.015-.009-.038.012-.022.021-.039.051-.039.064 0 .04-.09.101-.102.067-.006-.014-.017-.002-.029.028-.025.072-.11.154-.161.16l-.058.007c-.01.002-.015.02-.015.042 0 .047-.19.233-.249.245-.048.01-.098.06-.098.1 0 .04-.542.63-.58.63-.022 0-.04.022-.047.056-.015.07-.212.324-.25.324-.016 0-.027.019-.027.042 0 .023-.039.084-.083.137a.796.796 0 0 0-.106.148.191.191 0 0 1-.07.078c-.028.013-.049.04-.049.06 0 .02-.021.059-.046.086a.56.56 0 0 0-.077.12c-.018.038-.044.075-.06.08-.013.007-.03.035-.036.064-.008.028-.021.05-.033.05-.01 0-.029.028-.039.064-.011.034-.028.064-.038.064-.012 0-.029.027-.039.063-.011.034-.028.063-.038.063-.012 0-.029.028-.039.064-.011.034-.028.063-.036.063-.01 0-.035.045-.058.098a.333.333 0 0 1-.069.107.049.049 0 0 0-.027.043c0 .03-.056.154-.079.175a2.25 2.25 0 0 0-.096.19c-.046.1-.089.184-.096.19a2.728 2.728 0 0 0-.171.395c0 .015-.008.028-.02.028-.01 0-.019.012-.019.027a.678.678 0 0 1-.046.133 6.393 6.393 0 0 0-.14.347l-.056.135a.295.295 0 0 0-.027.091c0 .015-.014.034-.03.04-.015.009-.022.021-.017.032.012.021-.028.163-.053.199a.14.14 0 0 0-.016.067c0 .028-.008.049-.02.049-.009 0-.018.023-.018.053s-.012.059-.027.065c-.016.006-.021.03-.018.06.006.027 0 .056-.011.063-.012.008-.021.042-.021.078 0 .034-.008.061-.02.061-.01 0-.019.028-.019.061 0 .036-.008.07-.019.076-.011.007-.02.04-.02.077 0 .038-.009.06-.026.06-.021 0-.025.02-.018.075.008.055.004.076-.019.086-.02.009-.027.03-.019.085.008.053.004.074-.02.084-.02.009-.026.03-.018.085.007.053.001.074-.02.082-.02.011-.027.034-.019.093.006.049.002.087-.011.096-.012.008-.022.056-.022.107s-.007.1-.019.106c-.01.006-.02.055-.02.108 0 .06-.009.097-.026.105-.021.009-.025.038-.017.127.01.089.005.116-.018.125-.025.01-.029.04-.019.148.008.112.004.14-.021.15-.025.01-.029.04-.02.19.01.154.008.177-.02.19-.03.013-.031.038-.02.228l.012.214H10.62v-6.035c0-4.666.006-6.04.023-6.058.017-.02 5.672-.024 25.375-.022l25.35.007.006 6.043ZM42.194 20.24c.013.023.057.026.227.015.182-.015.215-.01.244.019.027.03.054.034.175.021.123-.013.146-.01.156.02.01.029.03.033.121.02.09-.01.118-.006.143.023.025.028.052.032.105.022.056-.011.081-.005.1.02.02.026.045.032.097.022.052-.01.077-.004.096.021.02.025.044.032.09.021.048-.008.068-.004.077.021.008.028.027.032.077.021.048-.008.068-.004.077.021.008.028.027.032.077.022.048-.009.068-.005.075.019.008.023.027.03.06.02.034-.01.058 0 .088.035.025.031.043.04.048.025.01-.036.062-.032.062.004 0 .038.052.061.063.028.006-.017.024-.009.053.023.032.038.048.044.069.023.02-.019.027-.017.027.01 0 .026.011.032.048.022.034-.009.048-.004.048.019 0 .04.046.061.075.03.015-.017.021-.013.021.014 0 .028.01.034.039.023.025-.008.042-.002.05.02.005.016.023.025.038.019.014-.007.03.004.039.02.005.02.023.028.038.022.015-.007.035.008.044.038.01.027.02.038.02.023.002-.04.028-.03.05.021.011.026.038.047.063.049a.162.162 0 0 1 .087.05l.042.047-.066.066c-.042.04-.069.056-.075.04-.01-.034-.061.012-.061.054 0 .02-.012.028-.027.022-.015-.007-.033.002-.038.019a.045.045 0 0 1-.04.03c-.016 0-.03.008-.03.02 0 .011-.017.021-.038.021-.021 0-.039.011-.039.024 0 .012-.017.019-.036.012-.023-.006-.043.003-.048.022-.008.019-.025.025-.05.016-.024-.008-.039-.004-.039.011a.02.02 0 0 1-.023.02c-.052-.007-.073.003-.073.033 0 .017-.014.032-.029.032-.015 0-.029-.009-.029-.021 0-.011-.013-.015-.029-.009-.015.009-.029.027-.029.044 0 .024-.013.028-.057.017-.044-.01-.058-.006-.054.015.004.02-.014.025-.056.021-.046-.002-.063.004-.063.028 0 .017-.014.031-.03.031-.015 0-.028-.008-.028-.019 0-.01-.017-.014-.039-.008-.02.006-.038.025-.038.042 0 .026-.016.03-.066.02-.05-.011-.067-.007-.077.02-.01.026-.026.032-.077.021-.05-.01-.067-.006-.076.022-.01.025-.027.031-.077.02-.048-.01-.068-.006-.077.02-.012.034-.089.044-.089.012 0-.027-.083 0-.108.036-.015.024-.042.028-.102.017-.061-.01-.088-.006-.111.021-.025.026-.052.032-.125.021-.073-.01-.1-.006-.125.02-.025.03-.054.031-.162.02-.108-.012-.137-.008-.163.02-.027.03-.062.034-.226.025-.138-.008-.198-.004-.207.013-.022.038-1.726.038-1.761.002-.017-.02-.079-.023-.217-.015-.172.009-.197.006-.208-.025-.01-.03-.031-.034-.148-.021-.108.01-.147.006-.18-.02-.032-.025-.067-.03-.14-.018-.079.01-.098.008-.107-.022-.012-.03-.03-.034-.116-.02-.085.01-.106.006-.115-.022-.01-.025-.03-.032-.087-.021-.06.01-.077.006-.087-.021-.01-.03-.026-.034-.086-.023-.06.01-.077.006-.087-.02-.01-.027-.027-.031-.077-.02-.05.01-.067.004-.077-.022-.01-.027-.027-.031-.067-.023-.04.01-.06.004-.067-.017-.012-.036-.085-.063-.085-.034 0 .01-.014.02-.029.02a.03.03 0 0 1-.029-.03c0-.017-.013-.034-.029-.043-.015-.006-.029-.002-.029.009 0 .013-.013.021-.028.021a.03.03 0 0 1-.03-.03c0-.016-.013-.033-.028-.042-.015-.006-.029-.002-.029.009 0 .012-.013.02-.029.02a.03.03 0 0 1-.029-.029c0-.017-.013-.034-.029-.042-.015-.006-.028-.002-.028.01 0 .013-.012.02-.023.013-.014-.004-.023-.02-.02-.034.002-.014-.013-.019-.044-.01-.035.008-.048.004-.048-.02 0-.04-.046-.06-.075-.029-.016.017-.021.013-.021-.014 0-.028-.01-.034-.039-.024-.025.009-.042.002-.05-.019-.005-.017-.023-.025-.038-.019-.014.006-.031-.004-.039-.02-.006-.02-.02-.03-.036-.024-.014.006-.03-.01-.035-.038-.01-.038-.017-.043-.036-.021-.018.019-.031.017-.058-.01-.02-.02-.035-.05-.035-.069 0-.027-.004-.027-.017-.006-.012.023-.027.017-.07-.023l-.053-.05.042-.047c.023-.026.056-.043.071-.036.016.006.027-.002.027-.02 0-.016.017-.04.037-.052.05-.027.065-.027.048.004-.01.02-.004.02.017-.002.017-.015.033-.042.033-.06 0-.027.006-.027.03-.006.026.024.031.022.041-.018.008-.036.015-.04.038-.022.022.022.03.017.039-.02.008-.037.015-.04.037-.022.02.02.028.015.038-.01.006-.02.021-.034.035-.032.048.006.069-.004.069-.034 0-.038.058-.042.058-.006 0 .015.017.004.036-.023.025-.037.045-.047.075-.034.031.01.043.004.043-.02 0-.04.03-.046.042-.008.006.015.025.004.052-.027.029-.032.048-.043.054-.026.01.03.067.01.088-.03.012-.02.035-.025.073-.016.043.01.056.006.056-.02 0-.018.014-.033.029-.033.015 0 .029.008.029.021 0 .028.063 0 .083-.036.011-.019.036-.025.078-.015.049.009.068.005.076-.02.013-.037.07-.047.07-.015 0 .027.085 0 .103-.034.011-.021.038-.026.098-.017.067.013.085.008.096-.021.01-.032.027-.036.1-.024.067.009.094.005.12-.02.023-.026.051-.032.123-.022.073.01.1.007.125-.019.025-.027.055-.032.179-.019.129.01.15.009.16-.023.01-.032.036-.034.23-.02.181.012.221.01.23-.016.014-.044 1.585-.042 1.61.002Zm-18.922.12c.027.03.073.034.366.022.29-.01.338-.009.363.02.025.028.058.03.175.02.125-.013.147-.01.156.019.01.03.029.034.114.023.077-.01.105-.006.13.02.024.024.05.029.118.02.071-.01.09-.006.1.021.01.026.027.032.087.021.06-.01.076-.006.086.024.01.027.027.031.079.02.048-.008.067-.003.077.022.008.027.027.032.075.023.042-.01.067-.004.079.015.02.036.083.063.083.036 0-.013.013-.021.029-.021.015 0 .028.015.028.034 0 .025.014.03.056.019.039-.009.062-.005.073.017.021.04.08.059.089.03.005-.018.025-.01.052.022.034.04.046.045.06.024.01-.024.024-.017.057.02.027.032.046.043.052.028.01-.036.042-.032.042.007 0 .023.014.03.049.019.034-.009.051-.002.06.02.007.024.024.03.057.022.032-.009.046-.004.046.019 0 .04.046.061.075.03.016-.018.021-.015.021.012 0 .03.012.034.048.023.037-.01.048-.004.048.021 0 .032.022.043.073.036a.02.02 0 0 1 .024.02c0 .014.015.019.038.01.025-.008.042-.002.05.017.006.019.025.027.048.021.02-.006.037 0 .037.013 0 .012.017.023.038.023.021 0 .039.015.039.032 0 .03.02.04.069.034.014-.003.029.012.035.031.005.02.025.03.038.023.015-.006.033.003.039.02.005.018.023.029.034.025.014-.007.039.01.058.034.02.025.033.033.035.019 0-.028.077-.01.077.017 0 .01.013.018.029.018.017 0 .038.022.048.047.01.027.017.036.017.021.002-.042.035-.03.046.021.01.038.015.04.04.017.026-.02.031-.02.031.006 0 .017.014.043.03.058.02.019.028.019.028.002 0-.02.01-.02.038-.002.022.012.039.038.039.059 0 .03.004.031.02.004.009-.017.018-.025.022-.021l.027.053c.014.025.039.04.064.036.025-.005.04.004.04.023 0 .017.014.042.029.057.02.017.029.019.029.004 0-.013.013-.019.029-.013.015.009.029.026.029.04 0 .015.013.039.028.053.02.017.03.02.03.005 0-.013.013-.02.028-.013.015.008.029.025.029.04 0 .038.052.083.062.053.01-.032.111.057.111.097 0 .017.008.028.017.021.026-.019.08.009.08.04 0 .013.017.043.038.064.025.023.038.03.038.012 0-.04.116.06.135.117.012.03.029.044.044.04.035-.017.187.13.187.182 0 .038.02.048.075.04.013-.002.18.167.37.376.255.28.348.397.355.446.008.044.023.065.047.065.038 0 .173.17.173.218 0 .015.019.038.044.05a.212.212 0 0 1 .071.08.505.505 0 0 0 .083.12c.029.03.052.073.052.09 0 .02.008.034.02.034.02 0 .365.568.365.606 0 .013.019.049.044.079.04.048.09.141.117.224.012.033.054.11.07.126.02.021.173.37.173.395 0 .015.01.028.019.028.011 0 .02.019.02.04 0 .023.009.049.018.055.012.009.016.032.01.055-.008.021-.004.04.008.04.01 0 .03.032.046.068.015.038.046.114.07.169.02.055.04.114.04.129a.11.11 0 0 0 .015.048c.01.01.029.062.042.114a.62.62 0 0 0 .045.12c.01.016.011.052.005.081-.01.038-.003.053.018.053.015 0 .028.017.028.036 0 .038.033.158.064.232.01.026.014.07.006.1-.01.04-.006.055.017.055.02 0 .029.02.029.071 0 .04.01.08.02.087.01.006.018.044.018.084 0 .04.01.079.022.087.011.006.017.05.013.095-.004.055.002.085.02.093.019.009.024.04.019.106-.004.065.002.097.02.106.02.008.024.038.016.11-.008.071-.002.107.02.13.023.026.026.062.019.165-.008.074-.004.133.005.133.033 0 .043.087.03.267l-.014.177h-.672c-.646 0-.671-.002-.671-.04 0-.021-.014-.046-.031-.053-.027-.013-.03-.036-.021-.169.011-.133.008-.158-.02-.169-.024-.01-.028-.036-.019-.127.008-.089.004-.118-.017-.127-.017-.008-.027-.044-.027-.105 0-.053-.01-.102-.021-.11-.014-.008-.017-.046-.012-.095.008-.06.002-.082-.019-.093-.021-.009-.027-.03-.02-.082.009-.055.003-.077-.018-.085-.023-.01-.027-.032-.02-.087.008-.052.004-.074-.013-.074-.014 0-.035-.05-.05-.122a.539.539 0 0 0-.042-.14.12.12 0 0 1-.016-.055.433.433 0 0 0-.04-.124c-.021-.051-.037-.11-.031-.131.006-.021-.002-.042-.017-.049-.016-.006-.027-.03-.027-.053s-.008-.048-.02-.055c-.01-.006-.019-.031-.019-.055 0-.02-.008-.04-.019-.04-.01 0-.02-.014-.02-.031a.365.365 0 0 0-.038-.106.36.36 0 0 1-.038-.106c0-.017-.008-.031-.02-.031-.01 0-.019-.011-.019-.026 0-.04-.082-.228-.1-.228-.007 0-.015-.019-.015-.042 0-.023-.006-.043-.014-.043a.53.53 0 0 1-.082-.147.573.573 0 0 0-.081-.148c-.01 0-.015-.009-.015-.02 0-.01-.031-.07-.068-.13a.763.763 0 0 1-.067-.133c0-.011-.014-.034-.03-.053-.07-.08-.143-.201-.143-.237 0-.021-.018-.042-.037-.05-.021-.007-.05-.045-.07-.085-.017-.04-.038-.074-.047-.074-.031 0-.152-.193-.14-.224.005-.017-.003-.03-.022-.03-.037 0-.743-.773-.743-.813 0-.017-.005-.032-.013-.034l-.06-.006c-.05-.007-.158-.112-.158-.155 0-.017-.01-.023-.019-.017-.03.022-.115-.048-.136-.112-.012-.035-.025-.046-.033-.031-.017.03-.044.012-.073-.047-.012-.023-.04-.044-.062-.044-.052-.004-.1-.047-.1-.091 0-.027-.004-.027-.017-.004-.014.023-.027.019-.064-.024-.027-.027-.057-.046-.069-.042-.013.005-.023-.006-.023-.023s-.014-.042-.029-.057c-.021-.02-.029-.02-.029-.002 0 .04-.077-.015-.079-.057 0-.021-.005-.026-.011-.01-.014.041-.039.03-.05-.018-.006-.027-.02-.038-.033-.03-.011.01-.035-.003-.048-.027-.02-.027-.042-.038-.077-.031-.027.006-.048.002-.048-.011 0-.01-.017-.025-.039-.032a.055.055 0 0 1-.038-.05c0-.03-.004-.032-.017-.009-.021.036-.06.013-.06-.036 0-.032-.004-.032-.02-.004-.017.027-.022.027-.044 0-.011-.019-.038-.03-.055-.025-.02.004-.035-.003-.035-.015 0-.013-.017-.023-.038-.023-.022 0-.039-.015-.039-.032 0-.03-.023-.042-.065-.034-.008.002-.027-.013-.043-.034-.015-.023-.025-.027-.027-.012 0 .04-.038.033-.038-.005 0-.023-.014-.03-.048-.019-.035.009-.048.005-.048-.019 0-.017-.014-.036-.03-.044-.015-.006-.028-.002-.028.008 0 .013-.008.022-.02.022-.009 0-.019-.013-.019-.03 0-.021-.017-.03-.051-.027-.035.002-.052-.007-.049-.024.002-.017-.017-.023-.057-.02-.043.003-.062-.003-.058-.022.002-.017-.017-.023-.058-.021-.044.004-.061-.002-.057-.021.003-.021-.01-.026-.054-.015-.043.01-.062.006-.07-.02-.007-.022-.026-.027-.067-.018-.04.008-.058.002-.067-.023-.01-.028-.027-.032-.068-.024-.042.011-.06.005-.067-.02-.01-.028-.029-.032-.087-.022-.057.01-.077.007-.086-.019-.01-.025-.029-.032-.087-.021-.057.01-.077.006-.086-.021-.01-.028-.03-.032-.106-.021-.077.01-.096.008-.106-.021-.01-.03-.03-.032-.135-.021-.104.012-.125.008-.134-.022-.01-.03-.035-.031-.193-.02-.154.012-.18.01-.192-.02-.01-.03-.068-.034-.443-.036-.379 0-.436.005-.463.034-.027.03-.06.034-.202.021-.145-.012-.175-.008-.203.021-.024.026-.051.032-.125.021-.073-.01-.1-.006-.125.022-.023.025-.052.03-.111.02-.062-.01-.087-.006-.106.02-.02.025-.044.032-.096.02-.056-.01-.075-.005-.083.02-.013.036-.071.046-.071.015 0-.03-.073-.002-.085.031-.011.032-.07.04-.07.011 0-.03-.072-.002-.084.034-.007.023-.027.027-.069.017-.044-.01-.058-.007-.058.019 0 .038-.05.046-.061.008-.006-.015-.025-.004-.052.028-.033.038-.046.044-.058.02-.013-.02-.025-.016-.06.024-.027.032-.046.04-.052.023-.011-.034-.063-.01-.063.028a.03.03 0 0 1-.029.03c-.015 0-.029-.01-.029-.022 0-.01-.013-.015-.029-.008-.015.006-.025.023-.023.036.002.014-.017.023-.048.02-.029-.001-.052.007-.048.02.002.013-.008.027-.02.032-.013.006-.024 0-.024-.013s-.014-.017-.03-.01c-.015.008-.028.025-.028.041 0 .017-.017.03-.038.03-.022 0-.039.008-.039.021 0 .01-.013.021-.029.021-.015 0-.029-.01-.029-.023 0-.01-.01-.015-.019-.008-.011.008-.015.02-.01.031.018.032-.032.049-.05.02-.013-.024-.019-.02-.028.018-.01.038-.018.043-.04.024-.022-.021-.03-.017-.04.02-.007.037-.015.04-.036.022-.021-.02-.029-.015-.038.01-.008.022-.025.032-.04.026-.018-.009-.033.002-.04.03-.007.033-.015.037-.038.018-.02-.02-.029-.017-.038.021-.008.036-.015.04-.039.022-.02-.021-.028-.017-.038.019-.012.05-.044.063-.046.019 0-.013-.008-.005-.02.023-.011.034-.028.046-.057.042-.027-.004-.05.01-.064.036l-.027.053c-.003.004-.013-.004-.023-.021-.015-.028-.019-.026-.019.004 0 .021-.017.046-.039.06-.028.016-.038.016-.038-.003 0-.017-.008-.017-.029.002-.015.015-.029.04-.029.055a.03.03 0 0 1-.029.03c-.015 0-.028.008-.028.019 0 .02-.07.053-.116.055-.015 0-.036.02-.048.046-.02.05-.067.083-.067.045 0-.015-.01-.013-.03.004-.015.015-.028.038-.028.055 0 .034-.071.078-.096.061-.012-.006-.027.01-.037.038-.021.061-.136.16-.136.118 0-.036-.035 0-.066.068a.45.45 0 0 1-.2.178c-.05.01-.1.059-.1.099 0 .04-.312.376-.35.376-.021 0-.039.023-.048.061-.02.072-.173.277-.21.277-.015 0-.027.019-.027.04 0 .023-.03.078-.07.123a.83.83 0 0 0-.097.14c-.016.03-.039.063-.054.069-.014.006-.031.034-.037.063-.008.028-.02.051-.033.051-.01 0-.028.027-.038.063-.011.034-.029.064-.038.064-.012 0-.03.027-.039.063-.012.034-.029.064-.037.064-.01 0-.036.046-.061.105a.426.426 0 0 1-.056.106.545.545 0 0 0-.077.142.73.73 0 0 1-.079.15c-.007.004-.015.025-.015.048 0 .021-.008.04-.02.04-.009 0-.019.02-.019.043 0 .023-.007.042-.019.042-.01 0-.02.019-.02.042 0 .023-.007.042-.018.042-.01 0-.02.013-.02.028 0 .044-.098.247-.119.247-.01 0-.013.019-.006.04.006.023.002.047-.01.055-.009.006-.018.028-.018.044a.45.45 0 0 1-.039.119.465.465 0 0 0-.038.127c0 .02-.008.038-.02.038-.01 0-.019.027-.019.063 0 .034-.008.063-.02.063-.009 0-.018.028-.018.064 0 .034-.008.063-.02.063-.01 0-.019.028-.019.061 0 .036-.008.07-.02.076-.009.007-.018.037-.018.066 0 .03-.012.057-.027.063-.02.009-.025.032-.018.085.008.053.002.074-.019.082-.021.01-.027.034-.02.093.007.049.003.087-.01.095-.012.009-.022.053-.022.1 0 .046-.01.088-.023.093-.017.008-.023.046-.02.116.007.078 0 .108-.02.118-.023.009-.027.04-.018.146.008.116.004.14-.025.15-.029.013-.03.034-.019.146.012.125-.008.192-.038.137-.018-.031-1.313-.03-1.322.005-.004.012-.02.016-.031.008-.035-.023-.029-.195.006-.233.025-.025.029-.063.017-.188-.01-.124-.008-.162.017-.186.022-.02.027-.057.02-.139-.01-.09-.006-.114.02-.125.026-.01.03-.03.02-.084-.013-.076.004-.186.027-.17.008.005.01-.033.006-.084-.004-.067.002-.095.023-.105.021-.009.027-.032.02-.085-.009-.053-.005-.074.018-.084.021-.009.027-.03.02-.085-.008-.053-.004-.074.019-.084.021-.009.027-.03.019-.083-.006-.04-.002-.074.012-.082.011-.009.02-.038.02-.068 0-.03.014-.057.03-.063.019-.009.023-.032.017-.072-.008-.032-.002-.066.01-.072.011-.009.02-.042.02-.078 0-.034.01-.061.02-.061.011 0 .02-.024.02-.053 0-.03.01-.06.026-.066.015-.006.023-.025.018-.044-.01-.028.001-.07.053-.18a.18.18 0 0 0 .018-.059c0-.013.019-.068.04-.123.07-.166.09-.224.112-.285.011-.032.029-.057.04-.057.01 0 .017-.006.017-.017-.005-.034.027-.152.043-.152.01 0 .017-.019.017-.042 0-.023.01-.042.02-.042s.018-.02.018-.043c0-.023.01-.042.02-.042.011 0 .019-.019.019-.042 0-.023.008-.042.015-.042a.835.835 0 0 0 .1-.186c.047-.102.09-.186.099-.19a.74.74 0 0 0 .076-.146c.037-.076.085-.159.106-.184a.253.253 0 0 0 .054-.093c.008-.026.023-.047.033-.047.01 0 .027-.023.037-.055a.904.904 0 0 1 .16-.236.37.37 0 0 0 .051-.089c.021-.044.056-.087.077-.095a.057.057 0 0 0 .039-.05c0-.047.128-.214.165-.214.015 0 .027-.017.027-.038 0-.049.167-.258.206-.258.038 0 .14-.123.14-.167 0-.046.164-.222.19-.205.024.017.195-.171.195-.211 0-.026.166-.197.195-.201l.04-.006c.013 0 .037-.028.05-.06.029-.065.139-.16.139-.12 0 .017.013.01.038-.013.021-.02.038-.05.038-.065 0-.032.064-.076.099-.068.013.004.036-.019.05-.053.015-.031.036-.059.05-.059l.052-.006c.015 0 .036-.023.048-.05.011-.03.032-.045.057-.043.025.004.047-.01.058-.04.02-.051.067-.083.067-.045 0 .015.01.013.03-.004.015-.015.028-.04.028-.057 0-.019.016-.027.044-.023.03.004.049-.009.062-.042.01-.026.027-.045.037-.04.01.004.034-.011.053-.032.039-.043.083-.051.062-.013-.01.02-.004.02.017-.002.018-.015.033-.042.033-.057 0-.036.038-.04.04-.004 0 .014.01.004.02-.024.013-.035.029-.046.056-.038.024.007.048-.004.065-.031.015-.024.037-.036.05-.028.013.009.027-.002.033-.03.007-.035.015-.04.038-.02.021.02.029.016.039-.022.007-.035.015-.04.038-.02.021.02.029.016.039-.02.011-.05.044-.063.046-.02 0 .014.007.005.019-.022.014-.038.027-.046.056-.036.029.01.038.004.038-.023 0-.03.006-.03.031-.009.025.024.03.021.04-.017.012-.05.045-.063.045-.02.002.018.007.016.025-.005.013-.017.034-.032.048-.034.054-.004.061-.01.061-.04 0-.017.016-.032.035-.032.02 0 .046-.012.058-.025.019-.021.029-.021.042.004.015.026.02.026.03-.006.007-.021.022-.036.035-.034.049.006.07-.004.07-.036 0-.025.011-.032.048-.02.03.008.048.003.048-.012 0-.012.013-.018.029-.01.015.006.046-.009.07-.036.026-.03.043-.038.05-.021.01.034.063.01.063-.027a.03.03 0 0 1 .028-.03c.016 0 .03.008.03.021 0 .01.013.015.028.008.016-.006.025-.023.023-.036-.002-.016.02-.023.06-.018.04.002.06-.005.052-.017-.006-.013.004-.028.021-.036.02-.009.037-.005.042.01.01.032.062.007.062-.03a.03.03 0 0 1 .029-.029c.015 0 .029.009.029.021 0 .028.063 0 .082-.036.012-.02.035-.025.072-.017.038.009.055.005.065-.023.01-.025.027-.031.077-.021.05.01.067.006.077-.021.01-.026.027-.032.077-.021.05.01.067.006.077-.021.01-.026.027-.03.085-.02.055.011.08.005.1-.02.019-.026.044-.03.105-.02.066.011.083.007.095-.023.01-.032.027-.034.108-.023.073.01.107.006.144-.021.038-.028.073-.032.179-.02.111.014.134.01.144-.018.012-.03.054-.032.362-.02.313.014.35.011.367-.02.023-.047.12-.047.16-.003Zm14.165 2.824c.014-.036.064-.032.064.006 0 .03.02.04.073.034a.02.02 0 0 1 .023.019c0 .012.02.017.048.008.035-.008.048-.004.048.02 0 .016.014.035.029.044.015.006.029.002.029-.009 0-.012.013-.021.029-.021a.03.03 0 0 1 .029.03c0 .017.013.033.028.042.016.006.03.002.03-.009 0-.012.013-.02.028-.02a.03.03 0 0 1 .029.029c0 .017.014.034.029.042.015.007.029.002.029-.008 0-.013.013-.021.029-.021.015 0 .028.014.028.033 0 .026.014.03.056.02.039-.01.062-.005.073.016.02.036.083.064.083.036 0-.012.014-.02.029-.02.015 0 .029.014.029.03 0 .028.013.032.067.02.052-.01.07-.006.08.02.009.026.028.033.086.022.06-.01.077-.006.086.021.01.03.027.034.087.023.06-.01.077-.006.086.022.012.03.03.033.095.023.06-.01.086-.006.105.019.02.025.047.03.118.019.077-.01.096-.009.106.021.01.03.03.034.12.021.09-.01.118-.006.141.021.025.028.056.032.145.021.092-.01.119-.006.146.021.027.032.056.034.196.022.14-.013.164-.009.175.019.01.031.044.034.285.023.237-.01.28-.009.306.021.027.03.106.034.65.034.535-.002.622-.007.649-.036.025-.028.071-.03.304-.021.236.01.275.008.285-.021.01-.028.038-.03.192-.017.16.012.18.01.192-.023.01-.03.03-.034.13-.024.088.01.126.007.16-.019.035-.025.072-.03.141-.019.08.01.097.009.108-.02.01-.033.029-.035.116-.024.084.012.105.008.115-.02.01-.027.027-.03.096-.02.067.012.085.008.096-.021.01-.028.027-.032.097-.022.067.013.084.009.096-.02.01-.028.027-.034.077-.024.05.01.067.006.077-.021.01-.025.027-.032.077-.021.05.01.067.006.077-.021.01-.026.027-.032.067-.024.04.009.06.005.067-.019.008-.025.027-.03.07-.019.044.011.057.007.057-.019 0-.038.05-.046.062-.008.006.015.025.004.052-.027.033-.039.046-.045.058-.022.013.021.025.017.06-.023.026-.032.045-.04.051-.023.012.034.064.01.064-.028a.03.03 0 0 1 .029-.03c.015 0 .028.01.028.022 0 .01.014.015.03.008.015-.006.024-.023.022-.036-.002-.014.018-.023.05-.02.035.001.052-.007.052-.028 0-.036.039-.04.039-.004.002.017.011.01.029-.013.013-.021.036-.032.048-.023.011.008.034.002.052-.015.029-.026.03-.002.017.26-.011.26-.01.29.02.302.028.013.03.042.019.296-.012.253-.01.283.019.296.029.012.03.042.019.296-.011.253-.01.283.02.295.028.013.03.043.018.296-.011.254-.01.283.02.296.029.013.03.042.019.296-.012.253-.01.283.02.296.028.012.03.042.018.296-.011.253-.01.283.02.295.029.013.03.043.019.296-.012.254-.01.283.02.296.028.013.03.04.018.279-.011.23-.007.268.02.3.028.03.03.068.019.296-.01.217-.008.266.017.291.018.021.03.072.03.134 0 .11-.014.139-.049.107-.015-.014-1.514-.019-4.433-.017l-4.408.007v-.047c0-.025.013-.059.027-.076.023-.025.027-.08.019-.294-.01-.22-.006-.268.02-.295.022-.028.026-.076.018-.296-.01-.22-.005-.269.02-.296.023-.027.027-.076.019-.296-.01-.22-.006-.268.02-.296.022-.027.026-.076.018-.296-.01-.22-.005-.268.02-.295.023-.028.026-.076.019-.296-.01-.22-.006-.269.02-.296.022-.027.026-.076.018-.296-.01-.22-.005-.268.02-.296.023-.027.026-.076.019-.296-.01-.22-.006-.268.019-.295.023-.028.027-.076.02-.296-.01-.22-.007-.269.019-.296.025-.027.026-.076.019-.292l-.012-.257.054-.062.054-.063.017.049c.012.03.022.037.027.02Zm-13.676.522c.013.02.044.025.13.012.093-.01.122-.006.147.02.023.025.052.029.117.02.075-.012.089-.008.089.024 0 .03.011.033.077.02.061-.01.078-.006.088.02.01.027.027.032.077.02.05-.01.066-.005.066.02 0 .036.07.063.082.03.004-.013.021-.017.04-.009.018.008.028.023.022.036-.008.013.011.019.052.017.042-.004.061.002.057.021-.001.017.018.023.058.021.04-.004.062.002.06.02-.002.012.008.029.023.035.015.006.029.002.029-.008 0-.013.013-.021.029-.021.015 0 .028.014.028.031 0 .03.022.04.07.034.013-.002.029.013.034.034.012.032.016.032.031.006.014-.025.023-.025.042-.004a.093.093 0 0 0 .058.025c.02 0 .035.015.035.032 0 .03.021.04.07.034.013-.002.028.012.034.032.006.018.025.03.038.023.016-.007.033.002.039.019.005.019.023.03.034.025.014-.006.039.01.058.034.02.025.033.034.035.019 0-.027.077-.01.077.017 0 .01.013.019.029.019.017 0 .038.021.048.046.01.028.017.036.017.021.002-.04.029-.03.05.022.014.033.033.046.064.042.027-.004.042.004.042.023 0 .017.013.042.029.057.019.017.029.02.029.004 0-.012.013-.019.028-.012.016.008.03.025.03.04s.013.038.028.053c.02.017.029.019.029.004 0-.013.014-.02.029-.013.015.009.029.026.029.04 0 .013.017.043.038.064.025.023.039.03.039.012 0-.042.115.06.138.123.012.032.023.044.03.027.01-.033.155.09.178.153.027.072.108.16.154.17.058.014.115.073.115.117 0 .046.064.127.102.127.037 0 .206.207.206.253 0 .017.025.049.058.068.03.019.062.06.07.089.005.03.018.055.028.055.023 0 .287.448.287.488 0 .019.013.04.029.048a.05.05 0 0 1 .029.043c0 .017.005.034.015.038.008.002.052.09.098.196.046.104.09.207.1.226.01.021.017.053.017.07 0 .017.01.032.02.032.011 0 .019.019.019.04 0 .023.01.049.02.055.01.006.018.036.018.065 0 .028.01.051.02.051.011 0 .019.023.019.05 0 .03.01.06.02.066.01.007.018.036.018.064 0 .027.01.057.02.063.011.006.019.04.019.072 0 .032.008.065.015.076a.54.54 0 0 1 .052.262c-.008.044-.004.063.021.074.023.01.03.034.023.097-.003.06.002.087.022.095.019.009.023.036.015.112-.008.068-.002.112.017.14.033.05.035.152.004.173-.011.008-.027.004-.03-.009-.006-.018-1.2-.025-5.046-.025h-5.037l-.011-.049c-.02-.082-.014-.183.015-.196.02-.008.023-.038.015-.106a.378.378 0 0 1 .012-.141.686.686 0 0 0 .033-.12c.005-.04.015-.106.023-.144.005-.038.017-.074.027-.08.01-.007.017-.034.017-.062a3.23 3.23 0 0 1 .171-.566c.058-.167.22-.53.237-.54.01-.003.015-.02.015-.037a.05.05 0 0 1 .03-.042c.015-.009.028-.028.028-.045 0-.038.06-.158.088-.18.014-.008.03-.04.035-.07.008-.029.021-.052.033-.052.01 0 .029-.027.038-.061.012-.034.035-.066.054-.072.02-.004.04-.038.046-.076a.126.126 0 0 1 .062-.091c.027-.013.048-.038.048-.055 0-.053.096-.173.138-.173.027 0 .035-.01.027-.032-.023-.065.428-.575.522-.59.02-.004.046-.029.06-.06.026-.064.125-.146.16-.138.013.004.036-.02.05-.053.024-.055.036-.061.101-.065.016-.003.037-.024.048-.049.02-.05.068-.082.068-.044 0 .014.01.012.029-.005.015-.014.028-.04.028-.057 0-.019.016-.027.04-.023.026.004.05-.01.064-.036l.027-.053c.004-.004.014.005.023.021.016.028.02.026.02-.004 0-.02.017-.046.038-.059.029-.017.039-.017.039.002 0 .017.007.017.028-.002.016-.015.03-.04.03-.057 0-.027.005-.027.03-.006.025.023.03.02.04-.017.012-.05.045-.064.047-.021 0 .014.007.006.017-.021.02-.051.058-.064.06-.022 0 .015.007.007.017-.02.02-.047.058-.066.058-.024 0 .01.01.015.019.008.011-.008.015-.02.01-.031-.006-.01 0-.026.011-.034.012-.006.029 0 .038.015.012.02.02.017.033-.021.01-.032.021-.043.031-.028.017.03.07.009.07-.03 0-.016.015-.029.034-.029.02 0 .046-.013.058-.025.019-.021.028-.021.038-.003.015.028.066.005.064-.027 0-.01.02-.017.048-.015.03.002.046-.006.046-.03 0-.025.006-.027.027-.008.021.021.036.015.07-.023.028-.032.045-.04.051-.023.01.03.067.01.089-.03.011-.021.034-.025.075-.017.04.01.053.009.046-.008-.008-.013.002-.03.019-.038.02-.009.037-.004.04.008.01.032.077.01.09-.027.012-.032.07-.04.07-.01 0 .027.085 0 .102-.035.012-.02.039-.025.098-.016.068.012.085.008.096-.022.01-.03.03-.033.137-.02.092.012.13.008.15-.013.039-.043 1.105-.043 1.128 0Zm44.98 8.524c.003.004.007.452.007 1l.002.99H3.242l-.006-1.003-.004-1.004 32.752.006c18.014.002 32.755.007 32.756.01Zm-.42 5.538a.481.481 0 0 1 .017.095c.01.07.004.087-.019.087s-.027.017-.02.082c.007.049.003.087-.01.095-.012.009-.022.053-.022.1 0 .048-.01.088-.025.095-.015.006-.021.038-.017.09.004.045-.002.09-.014.096-.011.008-.02.053-.02.099 0 .053-.01.089-.028.095-.019.008-.023.034-.017.09.006.05.002.088-.012.096-.011.008-.02.049-.02.089 0 .044-.012.078-.03.084-.02.01-.025.034-.017.104.008.055.004.095-.01.103-.011.009-.02.049-.02.09 0 .044-.012.077-.03.084-.02.01-.025.034-.015.105.008.072.006.093-.015.093-.02 0-.03.028-.031.089-.004.148-.027.273-.052.283-.014.007-.02.042-.016.091.004.044-.001.089-.013.095-.011.009-.021.053-.021.1 0 .052-.01.088-.027.095-.02.008-.023.033-.017.09.005.049.002.087-.012.096-.011.008-.021.048-.021.088 0 .045-.012.078-.029.085-.021.01-.025.034-.017.103.007.055.004.095-.01.104-.011.008-.021.048-.021.089 0 .044-.012.078-.029.084-.021.01-.025.034-.015.106.007.072.005.093-.016.093-.019 0-.029.027-.03.088-.004.148-.027.273-.052.284-.014.006-.02.042-.016.09.004.045-.002.09-.013.096-.012.008-.022.052-.022.099 0 .053-.01.089-.026.095-.02.008-.023.034-.018.09.006.05.002.087-.011.096-.012.008-.021.048-.021.089 0 .044-.012.078-.03.084-.02.01-.024.034-.017.104.008.055.004.095-.01.103-.01.009-.02.049-.02.089 0 .044-.012.078-.03.085-.02.01-.024.033-.015.105.008.072.006.093-.015.093-.02 0-.029.028-.03.089-.005.148-.028.273-.053.283-.013.006-.019.042-.015.091.004.044-.002.089-.014.095-.011.009-.02.053-.02.1 0 .052-.01.088-.028.095-.019.008-.023.033-.017.09.006.049.002.087-.012.095-.011.009-.02.049-.02.09 0 .044-.012.077-.03.084-.02.01-.025.033-.017.103.008.055.004.095-.01.104-.011.008-.02.048-.02.088 0 .045-.012.079-.03.085-.02.01-.025.034-.015.106.008.072.006.093-.015.093-.02 0-.03.027-.031.088-.004.148-.027.273-.052.284-.014.006-.02.042-.016.09.004.045-.001.09-.013.096-.011.008-.021.052-.021.099 0 .053-.01.089-.027.095-.02.008-.023.034-.017.09.005.05.002.087-.012.096-.011.008-.021.048-.021.089 0 .044-.012.078-.029.084-.021.01-.025.034-.017.104.007.055.004.095-.01.103-.011.009-.021.049-.021.089 0 .044-.012.078-.029.085-.021.01-.025.033-.015.105.01.076.005.093-.02.093-.023 0-.026.017-.019.085.008.065.004.086-.021.097-.023.01-.029.03-.02.095.01.06.007.084-.013.093-.019.008-.025.036-.02.093.003.044-.003.089-.014.095-.012.008-.022.053-.022.1 0 .052-.01.088-.026.094-.02.009-.023.034-.018.091.006.049.002.087-.011.095-.012.009-.022.053-.022.1 0 .052-.01.088-.026.095-.02.008-.023.033-.018.09.006.05.002.087-.011.096-.012.008-.021.048-.021.088 0 .045-.012.079-.03.085-.02.01-.024.034-.015.106.01.076.006.093-.019.093-.023 0-.027.017-.02.084.008.066.005.087-.02.097-.023.01-.03.03-.02.095.01.06.006.085-.013.093-.02.009-.025.036-.021.093.004.045-.002.09-.014.095-.011.009-.02.053-.02.1 0 .053-.01.089-.028.095-.019.008-.023.034-.017.09.006.05.002.087-.012.096-.011.008-.02.053-.02.1 0 .052-.01.088-.028.094-.019.009-.023.034-.017.091.006.049.002.087-.012.095-.011.009-.02.049-.02.089 0 .044-.012.078-.03.084-.02.011-.025.034-.015.106.01.076.006.093-.02.093-.022 0-.026.017-.019.085.008.065.004.086-.02.097-.024.01-.03.03-.02.095.01.059.006.084-.013.093-.02.008-.025.036-.022.093.004.044-.001.089-.013.095-.012.008-.021.053-.021.1 0 .052-.01.088-.027.094-.02.009-.023.034-.017.091.005.049.002.087-.012.095-.011.009-.021.053-.021.1 0 .052-.01.088-.027.095-.02.008-.023.033-.017.09.005.05.002.087-.012.096-.011.008-.021.048-.021.088 0 .045-.012.078-.029.085-.021.01-.025.034-.015.105.01.077.005.093-.02.093-.023 0-.026.017-.019.085.008.066.004.087-.021.097-.023.01-.029.03-.02.095.01.06.007.085-.013.093-.019.009-.025.036-.02.093.003.045-.003.089-.014.095-.012.009-.022.053-.022.1 0 .053-.01.088-.026.095-.02.008-.023.034-.018.09.006.05.002.087-.011.096-.012.008-.022.053-.022.099 0 .053-.01.089-.026.095-.02.009-.023.034-.018.091.006.049.002.087-.011.095-.012.008-.021.049-.021.089 0 .044-.012.078-.03.084-.02.01-.024.034-.017.095.01.062.006.085-.017.096-.021.008-.027.031-.02.093.008.063.005.086-.018.097-.025.01-.03.031-.02.105.01.076.006.093-.019.093-.023 0-.027.017-.02.083.007.048.003.086-.01.095-.012.008-.022.053-.022.1 0 .052-.01.088-.027.094-.019.009-.023.034-.017.091.006.049.002.087-.012.095-.011.009-.02.053-.02.1 0 .052-.01.088-.028.095-.019.008-.023.033-.017.09.006.049.002.087-.012.096-.011.008-.02.048-.02.088 0 .045-.012.078-.03.085-.02.01-.025.034-.017.095.01.061.006.084-.017.095-.021.008-.027.032-.02.093.008.063.004.087-.019.097-.025.01-.029.032-.019.106.01.076.006.093-.02.093-.022 0-.026.017-.019.082.006.049.002.087-.011.095-.012.009-.021.053-.021.1 0 .052-.01.088-.027.095-.02.008-.023.034-.017.09.005.05.001.087-.012.096-.012.008-.021.053-.021.099 0 .053-.01.089-.027.095-.02.008-.023.034-.017.09.005.05.002.087-.012.096-.011.008-.021.049-.021.089 0 .044-.012.078-.029.084-.021.01-.025.034-.017.095.01.062.005.085-.018.095-.02.009-.027.032-.019.093.008.064.004.087-.02.098-.024.01-.028.031-.018.105.01.076.005.093-.02.093-.023 0-.026.017-.019.083.006.048.002.086-.011.095-.012.008-.022.053-.022.1 0 .052-.01.088-.026.094-.02.009-.024.034-.018.091.006.049.002.087-.011.095-.012.009-.022.053-.022.1 0 .052-.01.088-.026.094-.02.009-.023.034-.018.091.006.049.002.087-.011.096-.012.008-.022.048-.022.088 0 .045-.011.078-.028.085-.021.01-.025.034-.018.095.01.061.006.084-.017.095-.021.008-.027.032-.02.093.008.063.005.087-.018.097-.025.01-.03.032-.02.106.01.076.006.093-.019.093-.023 0-.027.017-.02.082.007.049.003.087-.01.095-.012.009-.022.053-.022.1 0 .052-.01.088-.027.095-.02.008-.023.033-.017.09.006.05.002.087-.012.096-.011.008-.02.052-.02.099 0 .053-.01.089-.028.095-.019.008-.023.034-.017.09.006.05.002.087-.012.096-.011.008-.02.048-.02.089 0 .044-.012.078-.03.084-.02.01-.025.034-.017.104.008.055.004.095-.01.103-.011.009-.02.049-.02.089 0 .044-.012.078-.03.084-.02.011-.025.034-.015.106.01.076.006.093-.02.093-.022 0-.026.017-.018.083.005.048.001.086-.012.095-.012.008-.021.053-.021.099 0 .049-.01.089-.025.095-.016.006-.021.038-.017.09.003.045-.002.09-.014.096-.012.008-.021.053-.021.1 0 .052-.01.088-.027.094-.02.009-.023.034-.017.091.005.049.002.087-.012.095-.011.009-.021.049-.021.09 0 .044-.012.077-.029.084-.021.01-.025.034-.017.103.007.055.004.095-.01.104-.011.008-.021.048-.021.089 0 .044-.012.078-.029.084-.021.01-.025.034-.015.106.01.076.005.093-.02.093-.023 0-.026.017-.019.082.006.049.002.087-.011.095-.012.009-.022.053-.022.1 0 .048-.01.088-.025.095-.015.006-.02.038-.017.09.004.045-.002.09-.013.096-.012.008-.022.052-.022.099 0 .053-.01.089-.027.095-.019.008-.023.034-.017.09.006.05.002.087-.011.096-.012.008-.022.048-.022.089 0 .044-.011.078-.028.084-.021.01-.025.034-.018.104.008.055.004.095-.01.103-.01.009-.02.049-.02.089 0 .044-.012.078-.03.084-.02.011-.024.034-.015.106.01.076.006.093-.019.093-.023 0-.027.017-.02.082.007.05.003.087-.01.096-.012.008-.022.052-.022.099 0 .048-.01.089-.025.095-.015.006-.021.038-.017.09.004.045-.002.09-.014.096-.011.008-.02.053-.02.1 0 .052-.01.088-.028.094-.019.009-.023.034-.017.091.006.049.002.087-.012.095-.011.009-.02.049-.02.09 0 .043-.012.077-.03.084-.02.01-.025.033-.017.103.008.055.004.095-.01.104-.011.008-.02.048-.02.088 0 .045-.012.079-.03.085-.02.01-.025.034-.015.106.01.076.006.093-.02.093-.022 0-.026.016-.019.082.006.049.002.087-.011.095-.012.008-.021.053-.021.1 0 .048-.01.088-.025.094-.016.007-.021.038-.018.091.004.045-.002.09-.013.095-.012.009-.021.053-.021.1 0 .053-.01.088-.027.095-.02.008-.023.034-.017.09.005.05.002.087-.012.096-.011.008-.021.048-.021.089 0 .044-.012.078-.029.084-.021.01-.025.034-.017.104.007.055.004.095-.01.103-.011.009-.021.049-.021.089 0 .044-.012.078-.029.084-.021.011-.025.034-.015.106.007.072.005.093-.016.093-.019 0-.029.028-.03.09-.004.147-.028.271-.053.282-.013.006-.019.042-.015.09.004.045-.002.09-.013.096-.012.008-.022.053-.022.1 0 .052-.01.088-.026.094-.02.009-.024.034-.018.091.006.049.002.087-.011.095-.012.009-.022.049-.022.089 0 .044-.011.078-.028.084-.021.011-.025.034-.018.104.008.055.004.095-.01.104-.01.008-.02.048-.02.088 0 .045-.012.079-.03.085-.02.01-.024.034-.015.105.008.072.006.094-.015.094-.02 0-.029.027-.03.09-.005.146-.028.27-.053.281-.013.007-.02.043-.015.091.004.045-.002.089-.014.095-.011.009-.02.053-.02.1 0 .052-.01.088-.028.095-.019.008-.023.034-.017.09.006.05.002.087-.012.096-.011.008-.02.048-.02.088 0 .045-.012.079-.03.085-.02.01-.025.034-.017.104.008.054.004.095-.01.103-.011.008-.02.049-.02.089 0 .046-.012.078-.03.084-.02.01-.027.032-.017.083a.24.24 0 0 1-.01.114l-.023.044H10.37l-.028-.076a.493.493 0 0 1-.029-.137c0-.032-.01-.066-.021-.074-.014-.009-.017-.047-.012-.095.006-.057.002-.083-.017-.091-.017-.007-.027-.042-.027-.095 0-.047-.01-.091-.021-.1-.012-.006-.017-.05-.014-.095.004-.048-.001-.084-.015-.09-.025-.011-.048-.136-.052-.284-.002-.06-.011-.088-.03-.088-.022 0-.024-.021-.016-.093.01-.072.006-.095-.015-.106-.018-.006-.03-.04-.03-.084 0-.04-.009-.08-.02-.09-.014-.008-.018-.048-.01-.103.008-.07.004-.093-.017-.103-.018-.007-.03-.04-.03-.085 0-.04-.009-.08-.02-.089-.014-.008-.018-.046-.012-.095.006-.057.002-.082-.017-.09-.018-.007-.027-.043-.027-.096 0-.046-.01-.09-.021-.099-.012-.006-.018-.05-.014-.095.004-.057-.002-.085-.021-.093-.02-.008-.023-.034-.013-.093.01-.066.003-.084-.02-.095-.025-.01-.029-.032-.02-.097.007-.068.003-.085-.02-.085-.025 0-.029-.017-.02-.093.01-.072.006-.095-.015-.106-.017-.006-.029-.04-.029-.084 0-.04-.01-.08-.02-.089-.014-.008-.018-.046-.012-.095.005-.057.002-.082-.018-.09-.017-.007-.027-.043-.027-.096 0-.046-.01-.09-.02-.1-.014-.007-.018-.046-.012-.094.006-.057.002-.083-.018-.091-.017-.006-.027-.042-.027-.095 0-.047-.01-.091-.02-.1-.012-.006-.018-.05-.014-.094.004-.058-.002-.085-.021-.094-.02-.008-.023-.033-.014-.093.01-.065.004-.084-.019-.095-.025-.01-.029-.031-.021-.097.008-.067.004-.084-.02-.084s-.028-.017-.019-.093c.01-.072.006-.095-.015-.106-.017-.006-.029-.04-.029-.084 0-.04-.01-.08-.021-.09-.014-.008-.017-.046-.012-.094.006-.057.002-.083-.017-.091-.017-.007-.027-.042-.027-.095 0-.047-.01-.091-.021-.1-.014-.008-.017-.046-.012-.095.006-.057.002-.082-.017-.09-.017-.007-.027-.043-.027-.096 0-.046-.01-.09-.021-.099-.012-.006-.017-.05-.014-.095.004-.057-.001-.085-.02-.093-.02-.008-.024-.034-.014-.093.01-.066.004-.084-.02-.095-.024-.01-.028-.032-.02-.097.007-.068.003-.085-.02-.085-.025 0-.029-.017-.019-.093.01-.072.006-.095-.015-.105-.018-.007-.03-.04-.03-.085 0-.04-.009-.08-.02-.089-.014-.008-.018-.046-.012-.095.006-.057.002-.082-.017-.09-.018-.007-.027-.043-.027-.096 0-.046-.01-.09-.021-.099-.014-.008-.018-.046-.012-.095.006-.057.002-.082-.017-.091-.018-.006-.027-.042-.027-.095 0-.047-.01-.09-.021-.1-.012-.006-.018-.05-.014-.094.004-.058-.002-.085-.021-.093-.02-.009-.023-.034-.013-.093.01-.066.003-.085-.02-.095-.025-.011-.029-.032-.02-.098.007-.067.003-.084-.02-.084-.025 0-.029-.017-.02-.093.01-.072.006-.095-.015-.106-.017-.006-.029-.04-.029-.084 0-.04-.01-.08-.02-.09-.014-.008-.018-.046-.012-.094.005-.057.002-.083-.018-.091-.017-.006-.027-.042-.027-.095 0-.047-.01-.091-.02-.1-.014-.008-.018-.046-.012-.095.005-.057.002-.082-.018-.09-.017-.007-.027-.043-.027-.096 0-.046-.01-.09-.02-.099-.012-.006-.018-.05-.014-.095.004-.057-.002-.084-.021-.093-.02-.008-.023-.034-.014-.093.01-.065.004-.084-.02-.095-.024-.01-.028-.032-.02-.097.007-.068.004-.085-.02-.085s-.028-.017-.019-.093c.01-.071.006-.095-.015-.105-.017-.007-.029-.04-.029-.085 0-.04-.01-.08-.021-.089-.014-.008-.017-.046-.012-.095.006-.057.002-.082-.017-.09-.017-.007-.027-.043-.027-.096 0-.046-.01-.09-.021-.099-.014-.008-.017-.046-.012-.095.006-.057.002-.082-.017-.09-.017-.007-.027-.043-.027-.096 0-.047-.01-.09-.021-.1-.012-.006-.017-.05-.014-.094.004-.057-.001-.085-.02-.093-.02-.009-.024-.034-.014-.093.01-.066.004-.085-.02-.095-.024-.011-.028-.032-.02-.098.007-.067.003-.084-.02-.084-.025 0-.029-.017-.019-.093.01-.072.006-.095-.015-.106-.018-.006-.03-.04-.03-.084 0-.04-.009-.08-.02-.09-.014-.008-.018-.045-.012-.094.006-.057.002-.082-.017-.091-.018-.006-.027-.042-.027-.095 0-.047-.01-.091-.021-.1-.014-.008-.018-.046-.012-.095.006-.057.002-.082-.017-.09-.018-.007-.027-.043-.027-.095 0-.047-.01-.091-.021-.1-.012-.006-.018-.05-.014-.095.004-.057-.002-.084-.021-.093-.02-.008-.023-.034-.013-.093.01-.065.003-.084-.02-.095-.025-.01-.029-.032-.02-.097.007-.068.003-.085-.02-.085-.025 0-.029-.017-.02-.093.01-.071.006-.095-.015-.105-.017-.007-.029-.04-.029-.085 0-.04-.01-.08-.02-.088-.014-.009-.018-.047-.012-.096.005-.057.002-.082-.018-.09-.017-.007-.027-.043-.027-.096 0-.046-.01-.09-.02-.099-.014-.008-.018-.046-.012-.095.005-.057.002-.082-.018-.09-.017-.007-.027-.043-.027-.096 0-.046-.01-.09-.02-.1-.012-.006-.018-.05-.014-.094.004-.057-.002-.085-.021-.093-.02-.009-.023-.034-.014-.093.01-.066.004-.085-.02-.095-.024-.01-.028-.032-.02-.098.007-.06.002-.084-.02-.093-.023-.01-.026-.033-.017-.095.008-.06.004-.084-.017-.095-.017-.006-.029-.04-.029-.084 0-.04-.01-.08-.021-.089-.014-.008-.017-.047-.012-.095.006-.057.002-.083-.017-.09-.017-.007-.027-.043-.027-.096 0-.047-.01-.09-.021-.1-.014-.008-.017-.046-.012-.094.006-.057.002-.083-.017-.091-.017-.007-.027-.042-.027-.095 0-.047-.01-.091-.021-.1-.014-.008-.017-.046-.012-.095.008-.065.004-.082-.019-.082-.025 0-.029-.017-.02-.093.01-.074.007-.095-.018-.106-.023-.01-.027-.034-.02-.097.008-.061.002-.084-.019-.093-.023-.01-.027-.034-.017-.095.008-.061.004-.085-.017-.095-.018-.007-.03-.04-.03-.085 0-.04-.009-.08-.02-.088-.014-.009-.018-.047-.012-.095.006-.058.002-.083-.017-.091-.018-.007-.027-.043-.027-.095 0-.047-.01-.091-.021-.1-.014-.008-.018-.046-.012-.095.006-.057.002-.082-.017-.09-.018-.007-.027-.043-.027-.096 0-.046-.01-.09-.021-.1-.014-.008-.018-.046-.012-.094.008-.066.004-.083-.02-.083s-.028-.017-.018-.093c.01-.074.005-.095-.02-.105-.023-.01-.027-.034-.019-.097.008-.062.002-.085-.02-.094-.022-.01-.026-.033-.016-.095.007-.06.003-.084-.018-.095-.017-.006-.029-.04-.029-.084 0-.04-.01-.08-.02-.089-.014-.008-.018-.046-.012-.095.005-.057.002-.082-.018-.09-.017-.007-.027-.043-.027-.096 0-.046-.01-.09-.02-.1-.014-.008-.018-.046-.012-.094.005-.057.002-.083-.018-.091-.017-.007-.027-.042-.027-.095 0-.047-.01-.091-.02-.1-.014-.008-.018-.046-.012-.095.007-.065.004-.082-.02-.082-.025 0-.028-.017-.019-.093.01-.074.006-.095-.019-.106-.023-.01-.027-.034-.02-.097.008-.061.003-.084-.018-.093-.024-.01-.027-.034-.018-.095.008-.061.004-.084-.017-.095-.017-.006-.029-.04-.029-.085 0-.04-.01-.08-.021-.088-.014-.009-.017-.047-.012-.095.006-.057.002-.083-.017-.091-.017-.007-.027-.043-.027-.095 0-.047-.01-.091-.021-.1-.014-.008-.017-.046-.012-.095.006-.057.002-.082-.017-.09-.017-.007-.027-.043-.027-.096 0-.046-.01-.09-.021-.1-.014-.007-.017-.046-.012-.094.008-.066.004-.083-.019-.083-.025 0-.029-.017-.02-.092.01-.075.007-.096-.018-.106-.023-.01-.027-.034-.02-.097.008-.062.002-.085-.019-.093-.023-.01-.027-.034-.017-.096.008-.06.004-.084-.017-.095-.018-.006-.03-.04-.03-.084 0-.04-.009-.08-.02-.089-.014-.008-.018-.046-.012-.095.006-.057.002-.082-.017-.09-.018-.007-.027-.043-.027-.096 0-.046-.01-.09-.021-.1-.014-.008-.018-.046-.012-.094.006-.057.002-.083-.017-.091-.018-.007-.027-.042-.027-.095 0-.047-.01-.091-.021-.1-.014-.008-.018-.046-.012-.095.008-.065.004-.082-.02-.082s-.028-.017-.018-.093c.01-.074.005-.095-.02-.106-.023-.01-.027-.034-.019-.097.008-.061.002-.084-.02-.093-.022-.01-.026-.034-.016-.095.007-.061.003-.084-.018-.095-.017-.006-.029-.04-.029-.084 0-.04-.01-.08-.02-.09-.014-.008-.018-.046-.012-.094.005-.057.002-.083-.018-.091-.017-.007-.027-.042-.027-.095 0-.047-.01-.091-.02-.1-.014-.008-.018-.046-.012-.095.005-.057.002-.082-.018-.09-.017-.007-.027-.043-.027-.096 0-.046-.01-.09-.02-.099-.014-.008-.018-.047-.012-.095.007-.066.004-.083-.02-.083-.025 0-.028-.016-.019-.092.01-.074.006-.096-.019-.106-.023-.01-.027-.034-.02-.097.008-.062.003-.085-.019-.093-.023-.01-.026-.034-.017-.095.008-.062.004-.085-.017-.096-.017-.006-.029-.04-.029-.084 0-.04-.01-.08-.021-.089-.014-.008-.017-.046-.012-.095.006-.057.002-.082-.017-.09-.017-.007-.027-.043-.027-.096 0-.046-.01-.09-.021-.1-.014-.008-.017-.046-.012-.094.006-.057.002-.083-.017-.091-.017-.006-.027-.042-.027-.095 0-.047-.01-.091-.021-.1-.014-.008-.017-.046-.012-.094.008-.066.004-.083-.019-.083-.025 0-.029-.017-.02-.093.01-.074.007-.095-.018-.106-.023-.01-.027-.033-.02-.097.008-.061.002-.084-.019-.093-.023-.01-.027-.034-.017-.095.008-.061.004-.084-.017-.095-.018-.006-.03-.04-.03-.084 0-.04-.009-.08-.02-.09-.014-.008-.018-.046-.012-.094.006-.057.002-.083-.017-.091-.018-.006-.027-.042-.027-.095 0-.047-.01-.091-.021-.1-.012-.006-.018-.05-.014-.095.004-.052-.002-.084-.017-.09-.016-.007-.025-.047-.025-.096 0-.046-.01-.09-.021-.099-.014-.008-.018-.046-.012-.095.008-.066.004-.082-.02-.082s-.028-.017-.018-.093c.01-.072.005-.096-.016-.106-.017-.006-.029-.04-.029-.085 0-.04-.01-.08-.02-.088-.014-.009-.018-.049-.01-.104.007-.07.003-.093-.018-.103-.017-.007-.029-.04-.029-.085 0-.04-.01-.08-.02-.089-.014-.008-.018-.046-.012-.095.005-.057.002-.082-.018-.09-.017-.007-.027-.043-.027-.096 0-.046-.01-.09-.02-.099-.012-.006-.018-.05-.014-.095.004-.053-.002-.085-.018-.091-.015-.006-.025-.047-.025-.095 0-.047-.01-.09-.02-.1-.014-.008-.018-.046-.012-.094.007-.066.004-.083-.02-.083-.025 0-.028-.017-.019-.093.01-.072.006-.095-.015-.105-.018-.007-.029-.04-.029-.085 0-.04-.01-.08-.021-.089-.014-.008-.018-.048-.01-.103.008-.07.004-.093-.017-.104-.017-.006-.029-.04-.029-.084 0-.04-.01-.08-.021-.09-.014-.008-.018-.046-.012-.094.006-.057.002-.083-.017-.091-.017-.006-.027-.042-.027-.095 0-.047-.01-.091-.021-.1-.012-.006-.017-.05-.014-.095.004-.052-.002-.084-.017-.09-.015-.007-.025-.047-.025-.096 0-.046-.01-.09-.021-.099-.014-.008-.017-.046-.012-.095.008-.065.004-.082-.019-.082-.025 0-.029-.017-.02-.093.01-.072.007-.095-.015-.106-.017-.006-.028-.04-.028-.085 0-.04-.01-.08-.022-.088-.013-.009-.017-.049-.01-.104.009-.07.005-.093-.016-.103-.018-.007-.03-.04-.03-.085 0-.04-.009-.08-.02-.089-.014-.008-.018-.046-.012-.095.006-.057.002-.082-.017-.09-.018-.007-.027-.043-.027-.096 0-.046-.01-.09-.021-.099-.012-.006-.018-.05-.014-.095.004-.049-.002-.085-.015-.09-.02-.01-.048-.132-.035-.147.008-.008 64.663.007 64.673.015ZM10.598 71.712a.97.97 0 0 1 .03.19l.014.15-.708.008c-.712.007-.814.004-.814-.023 0-.009.075-.032.17-.053l.234-.055c.037-.008.116-.027.173-.042l.174-.042.163-.04.289-.075c.238-.063.254-.063.275-.019Zm51.021.004.347.084c.054.013.21.05.346.087.139.036.321.078.41.097.158.034.196.06.115.074a17.3 17.3 0 0 1-.75.002l-.708-.008v-.108c0-.061.01-.146.021-.192.023-.09.014-.087.22-.036Z"/><path d="M29.102 6.016c-.01.032-.086.038-.086.009 0-.03-.073-.002-.085.034-.008.023-.027.027-.07.016-.043-.01-.057-.006-.053.015.004.02-.012.026-.046.024-.037-.003-.054.006-.054.027 0 .036-.03.04-.044.002-.008-.015-.016-.006-.025.023-.01.038-.018.043-.04.024-.022-.022-.03-.017-.04.02-.007.037-.015.04-.038.022-.02-.021-.029-.017-.038.021-.008.032-.023.044-.052.04-.027-.004-.046.01-.06.042-.013.032-.03.045-.054.038-.02-.004-.04.005-.046.024a2.191 2.191 0 0 1-.198.238 1.529 1.529 0 0 0-.202.252c-.006.023-.02.044-.029.044-.01 0-.037.047-.061.106-.025.057-.05.106-.058.106-.01 0-.016.019-.016.042 0 .023-.007.042-.019.042-.01 0-.02.015-.02.032 0 .032-.007.053-.053.152a.245.245 0 0 0-.023.09c0 .024-.012.05-.027.056-.021.008-.025.034-.017.086.007.053.004.083-.016.1-.04.034-.04.794 0 .828.02.017.023.047.016.1-.008.048-.002.078.013.084.029.013.075.175.06.205-.006.013-.004.021.006.021a.81.81 0 0 1 .105.19c.05.106.108.211.13.237a.166.166 0 0 1 .038.084c0 .021.011.038.025.038.03 0 .258.25.29.32.014.027.035.048.048.044.037-.009.118.055.118.089 0 .019.013.025.036.019.02-.005.048.006.066.023.015.019.04.034.052.034.011 0 .029.02.038.046.01.028.017.036.017.021.002-.03.06-.036.06-.004 0 .01.018.021.039.021.02 0 .038.013.038.03 0 .038.052.061.064.027.005-.017.025-.006.053.026.027.031.047.042.052.027.01-.036.062-.032.062.006 0 .026.015.03.08.02.059-.011.085-.007.1.014.03.04.66.045.676.002.01-.03.087-.036.087-.004 0 .027.063 0 .083-.036.017-.032.07-.038.07-.006 0 .01.014.015.03.008.015-.008.029-.025.029-.042a.03.03 0 0 1 .028-.03c.016 0 .03.009.03.022 0 .01.013.014.028.008.015-.006.025-.023.023-.036-.002-.013.015-.027.04-.032.024-.004.043-.017.043-.027 0-.01.017-.02.038-.02.021 0 .039-.008.039-.018 0-.01.017-.023.038-.03.021-.006.039 0 .039.01 0 .014.011.011.029-.003.015-.015.029-.04.029-.057s.01-.028.023-.024c.013.007.042-.014.063-.042.023-.03.06-.055.08-.057.049-.002.103-.049.103-.085 0-.012.056-.084.123-.156a.808.808 0 0 0 .135-.167.567.567 0 0 1 .079-.116.388.388 0 0 0 .067-.1c0-.01.03-.088.067-.17a1.06 1.06 0 0 0 .068-.182.05.05 0 0 1 .025-.04c.015-.007.023-.034.017-.07-.004-.034.002-.068.014-.074.011-.009.02-.053.02-.097 0-.045.012-.091.026-.1.017-.012.023-.11.023-.365 0-.25-.008-.357-.023-.376-.014-.015-.025-.066-.025-.11 0-.045-.01-.089-.021-.097-.012-.007-.018-.036-.012-.064.004-.03-.002-.053-.017-.059-.016-.006-.027-.036-.027-.065 0-.03-.008-.053-.02-.053-.01 0-.019-.013-.019-.03 0-.04-.148-.346-.194-.4a.172.172 0 0 1-.037-.082c0-.02-.01-.038-.02-.038-.034 0-.345-.34-.345-.374 0-.017-.008-.025-.018-.019-.027.02-.079-.008-.079-.04 0-.015-.013-.038-.028-.053-.021-.019-.03-.019-.03-.002 0 .04-.076-.015-.078-.057 0-.02-.006-.025-.012-.01-.013.042-.038.031-.05-.02-.01-.035-.017-.04-.038-.018-.023.019-.03.014-.04-.024-.008-.038-.016-.042-.03-.02-.011.02-.024.022-.051.008a.418.418 0 0 0-.072-.034c-.019-.006-.028-.023-.02-.036.007-.017-.006-.02-.049-.009-.046.011-.061.007-.071-.02-.01-.028-.029-.032-.087-.022-.053.01-.077.007-.084-.015-.014-.038-.735-.04-.75-.002ZM36.26 6.018c-.007.02-.03.025-.084.014-.06-.01-.077-.006-.087.022-.008.025-.025.031-.058.023-.03-.009-.05-.002-.057.019a.053.053 0 0 1-.046.032.092.092 0 0 0-.058.025c-.02.021-.03.021-.043-.004-.015-.026-.02-.024-.03.017-.01.038-.018.042-.04.023-.022-.021-.03-.017-.04.019-.01.05-.036.061-.05.019-.005-.015-.01-.01-.01.01-.003.043-.08.098-.08.057 0-.016-.007-.016-.029.003-.015.014-.028.038-.028.05 0 .013-.018.036-.039.051-.027.019-.038.019-.038.002s-.01-.017-.03.002c-.015.015-.028.036-.028.049 0 .034-.273.332-.302.332-.014 0-.025.014-.025.033a.453.453 0 0 1-.066.144c-.092.156-.165.304-.165.34 0 .017-.008.032-.02.032-.009 0-.019.023-.019.053s-.011.059-.025.065c-.015.007-.023.034-.017.07.004.034-.002.068-.013.074-.012.008-.022.053-.022.1 0 .046-.01.088-.023.092-.038.017-.034.71.002.742.02.017.023.046.016.1-.008.052-.004.078.017.086.015.006.027.04.027.076 0 .034.01.063.02.063s.018.024.018.051c0 .03.01.06.02.066.011.008.015.031.01.055-.008.025-.005.04.013.04.015 0 .042.048.063.107.021.06.05.115.064.119.011.006.023.02.023.036a.373.373 0 0 0 .057.097c.033.04.058.089.058.11 0 .021.012.038.025.038.03 0 .206.192.206.224 0 .013.017.04.039.061.025.023.038.03.038.013 0-.038.116.057.135.112.01.023.017.032.017.017.002-.036.04-.032.04.004 0 .015.014.04.03.055.017.015.028.017.028.004 0-.01.018-.017.039-.01.02.006.038.018.038.03 0 .01.017.018.039.018.02 0 .038.015.038.032 0 .03.023.042.066.034.007-.002.026.012.042.033.015.024.025.028.027.011 0-.036.058-.032.058.004 0 .017.013.034.029.043.015.006.028.002.028-.009 0-.034.058-.023.072.013.007.025.026.03.084.019.054-.01.077-.007.085.014.015.043.644.04.675-.002.016-.02.043-.025.1-.014.066.01.081.006.081-.02 0-.037.052-.042.062-.006.005.015.025.005.052-.027.028-.032.048-.043.053-.026.012.034.064.011.064-.027 0-.017.015-.03.035-.03.019 0 .046-.012.057-.025.02-.021.03-.021.043.004.015.028.019.026.019-.006 0-.021.015-.045.035-.05a.233.233 0 0 0 .06-.045.075.075 0 0 1 .06-.02c.022.007.037 0 .037-.016 0-.038.05-.08.1-.082a.084.084 0 0 0 .066-.053c.03-.068.26-.32.29-.32.014 0 .025-.016.025-.037 0-.022.018-.06.039-.085.021-.025.079-.131.129-.237a.816.816 0 0 1 .105-.19c.01 0 .014-.008.006-.019-.017-.032.035-.213.06-.213.017 0 .021-.023.013-.076-.007-.055-.003-.085.016-.102.021-.019.027-.103.027-.414 0-.31-.006-.395-.027-.414-.02-.017-.023-.047-.016-.1.008-.052.004-.078-.017-.086-.015-.006-.027-.032-.027-.055 0-.042-.008-.061-.054-.163a.23.23 0 0 1-.023-.08c0-.017-.008-.032-.019-.032-.01 0-.02-.019-.02-.042 0-.023-.005-.042-.015-.042-.007 0-.032-.049-.057-.106-.025-.059-.052-.105-.062-.105-.01 0-.023-.022-.03-.047a1.47 1.47 0 0 0-.2-.251 2.273 2.273 0 0 1-.199-.237c-.006-.02-.025-.028-.046-.023-.023.006-.04-.007-.054-.038-.014-.032-.033-.047-.06-.043-.029.005-.044-.008-.052-.04-.01-.038-.017-.042-.038-.02-.023.018-.031.014-.039-.022-.01-.038-.017-.042-.038-.021-.023.019-.03.015-.04-.023-.01-.03-.018-.038-.026-.024-.013.038-.044.034-.044-.002 0-.02-.017-.03-.052-.027-.036.002-.052-.004-.048-.023.004-.022-.01-.026-.052-.015-.038.008-.061.004-.073-.017-.02-.036-.083-.064-.083-.036 0 .032-.077.025-.086-.006-.016-.038-.737-.036-.75.002ZM43.783 6.02c-.007.02-.03.025-.086.014-.062-.01-.077-.006-.077.02 0 .016-.014.031-.029.031-.015 0-.029-.008-.029-.021 0-.01-.013-.015-.029-.008-.015.008-.028.025-.028.042 0 .036-.058.04-.058.002-.002-.015-.012-.009-.029.015-.014.02-.037.031-.046.023-.012-.006-.027.002-.033.019-.006.019-.021.027-.033.019-.01-.006-.03.004-.046.025-.015.026-.025.03-.025.013 0-.023-.006-.023-.029-.002-.015.015-.029.04-.029.055 0 .017-.007.03-.019.03-.01 0-.019-.013-.019-.028 0-.013-.012-.002-.025.027-.015.034-.04.053-.067.051-.023 0-.043.01-.043.025 0 .034-.148.163-.171.148-.025-.019-.088.053-.127.142a.691.691 0 0 1-.098.156.442.442 0 0 0-.075.112c-.006.021-.023.045-.039.051-.015.006-.029.023-.029.038 0 .023-.061.171-.155.38a.208.208 0 0 0-.018.07c0 .02-.011.038-.027.045-.019.008-.023.033-.017.095.008.06.004.082-.015.082-.021 0-.025.03-.021.127.005.101.002.129-.024.14-.044.018-.044.333 0 .384.026.025.03.059.022.144-.008.084-.004.114.017.122.015.006.027.04.027.085 0 .04.01.08.021.088.012.007.017.036.012.064-.004.03.002.053.017.059a.048.048 0 0 1 .027.042c0 .04.115.296.138.305.008.004.016.016.016.03 0 .01.017.043.038.073.021.03.039.072.039.093 0 .023.007.04.017.04.025 0 .38.389.395.433.01.028.017.034.026.017.018-.03.045-.012.074.047.013.025.036.04.063.036.029-.005.046.008.058.042.011.027.019.036.019.021.002-.042.035-.027.048.021.01.038.016.043.029.02.017-.03.067-.014.05.018-.006.01-.002.024.01.032.01.006.019.002.019-.008 0-.013.013-.024.029-.024a.03.03 0 0 1 .029.03c0 .04.048.057.075.027.015-.017.02-.014.02.01 0 .02.018.039.04.045.02.007.038.002.038-.008s.013-.02.029-.02c.015 0 .028.015.028.032 0 .026.016.03.074.02.05-.009.082-.005.102.014.038.043.63.043.67.002.017-.019.05-.023.097-.014.056.01.075.006.085-.022.008-.027.025-.031.07-.02.044.01.057.006.053-.015-.004-.02.012-.026.048-.024.037.002.052-.006.052-.03 0-.027.006-.027.029-.006.023.021.03.02.04-.008.006-.02.022-.028.033-.02.01.007.03-.003.046-.024.016-.026.025-.03.025-.013 0 .023.006.023.03.002a.095.095 0 0 0 .028-.057c0-.028.006-.028.03-.006.026.023.032.02.04-.017.01-.047.065-.083.065-.043 0 .015.01.013.029-.004.015-.015.029-.038.029-.053 0-.033.09-.101.115-.084.021.015.094-.068.117-.133.01-.026.033-.047.056-.047.025 0 .042-.019.05-.059a.459.459 0 0 1 .064-.131c.086-.129.136-.213.136-.232 0-.013.01-.022.02-.022.011 0 .019-.019.019-.042 0-.023.01-.042.019-.042.011 0 .02-.013.02-.028 0-.044.057-.162.078-.162.012 0 .014-.02.008-.042-.008-.028-.002-.047.017-.055.02-.009.025-.032.017-.085-.007-.057-.004-.072.021-.072.026 0 .03-.015.02-.082a.235.235 0 0 1 .013-.131c.035-.072.039-.628.004-.64-.015-.007-.025-.05-.025-.104 0-.05-.008-.1-.015-.112a.44.44 0 0 1-.04-.114 1.36 1.36 0 0 0-.106-.296 1.487 1.487 0 0 0-.183-.34.176.176 0 0 1-.04-.087c0-.02-.012-.038-.026-.038-.029 0-.206-.192-.206-.226 0-.032-.053-.078-.098-.08-.046-.004-.113-.07-.115-.114 0-.021-.006-.024-.01-.009-.008.02-.021.02-.057.002-.026-.012-.047-.03-.047-.038s-.017-.02-.038-.027a.055.055 0 0 1-.039-.05c0-.033-.004-.035-.019-.007-.017.027-.023.027-.044 0-.012-.02-.039-.03-.056-.026-.021.005-.035-.006-.035-.023a.043.043 0 0 0-.075-.03c-.015.017-.02.015-.02-.012 0-.028-.012-.032-.058-.023-.047.01-.058.006-.058-.024s-.012-.033-.077-.02c-.056.01-.08.006-.087-.016-.015-.042-.754-.04-.77.003ZM25.167 41.818v1.437H46.89V40.38H25.167v1.437Z"/></g><defs><clipPath id="a"><path fill="#fff" d="M0 0h72v74H0z"/></clipPath></defs></svg>