<svg width="43" height="52" fill="none" xmlns="http://www.w3.org/2000/svg"><g clip-path="url(#a)" fill="#00BFDE"><path d="M6.27.038c0 .044-.026.049-.256.041C5.9.074 5.846.084 5.83.112c-.016.029-.059.034-.16.023-.105-.01-.14-.005-.14.02 0 .032-.008.032-.035 0C5.472.134 5.453.13 5.437.152c-.015.015-.058.028-.101.028-.039 0-.078.015-.09.036-.011.023-.058.03-.12.023-.059-.008-.102-.003-.102.015 0 .015-.05.028-.109.028-.116 0-.319.051-.319.082 0 .013-.043.02-.093.02-.113 0-.764.215-.834.277-.027.023-.074.04-.105.035a.143.143 0 0 0-.105.046.193.193 0 0 1-.117.052.209.209 0 0 0-.133.066c-.035.036-.085.059-.109.054-.058-.016-.155.03-.214.105-.027.033-.07.053-.097.048-.028-.008-.094.018-.148.054-.269.189-.725.483-.799.516a.415.415 0 0 0-.14.133.355.355 0 0 1-.16.128c-.058.015-.1.049-.1.077 0 .025-.036.069-.079.097-.043.028-.078.061-.078.074a.59.59 0 0 1-.136.13.493.493 0 0 0-.14.149c0 .025-.035.076-.078.12a.972.972 0 0 0-.097.115c-.145.215-.18.255-.207.255-.02 0-.047.054-.062.118-.016.067-.05.123-.082.13-.043.01-.055.034-.035.077.015.041.004.064-.039.077-.043.01-.058.033-.043.074.016.033 0 .074-.035.097a.152.152 0 0 0-.058.115c0 .044-.02.08-.043.08-.031 0-.04.03-.024.089.016.061.004.102-.039.128-.042.03-.054.069-.035.14.028.118-.039.264-.093.205C.012 4.218 0 4.277 0 4.415c0 .125.016.212.039.212.027 0 .039 6.826.039 20.427 0 13.6-.012 20.427-.04 20.427-.022 0-.038.087-.038.21 0 .14.012.199.039.173.054-.058.12.087.093.205-.019.074-.007.11.035.14.043.026.055.064.043.113-.015.04-.004.082.02.09.023.01.043.053.043.094 0 .044.027.095.058.115.035.023.05.064.035.097-.015.041 0 .064.043.074.043.013.054.036.035.082-.02.049-.008.064.035.064.043 0 .066.038.086.14.015.077.043.141.062.141.02 0 .035.018.035.039 0 .02.016.038.035.038.047 0 .23.245.261.35.016.049.055.09.098.097.038.008.09.054.112.103.024.048.063.09.082.09.02 0 .035.017.035.04s.043.064.098.092c.054.028.097.061.097.074 0 .013.062.064.136.115.074.049.137.108.137.133 0 .023.058.072.124.108.113.058.207.117.666.427.086.056.176.1.203.094.023-.008.101.033.167.09.07.058.148.097.18.089.027-.008.077.015.116.051.035.038.086.059.117.051.031-.007.074.008.098.036.039.049.245.133.323.133.023 0 .07.026.113.056.043.039.07.046.074.023 0-.02.031-.01.078.026.047.038.074.048.078.025 0-.02.03-.01.078.026.05.043.074.048.077.023 0-.023.024-.015.063.023.05.046.07.051.097.026.027-.029.035-.029.035-.003 0 .018.031.03.07.026a.322.322 0 0 1 .164.05c.07.042.101.05.125.026.015-.018.03-.023.03-.007 0 .038.195.092.195.056 0-.02.012-.02.032-.005.015.012.066.04.113.058.074.026.09.026.09 0 0-.023.01-.023.034.003.02.02.09.036.156.033.066 0 .12.01.12.023 0 .016.063.023.137.018.082-.002.152.008.171.026.02.02.106.03.234.028.129-.005.218.005.234.025.02.018.066.029.105.023.07-.007.074.02.074.798 0 .442.008.81.02.818.011.008.038.03.058.054.187.194.276.25.401.253.066 0 .125-.013.125-.026 0-.017 1.273-.025 3.739-.025 2.465 0 3.739.008 3.739.025 0 .044.152.029.234-.025.043-.028.078-.061.078-.074 0-.016.05-.046.116-.07.09-.035.117-.063.113-.125-.02-.588.008-1.53.047-1.562.066-.053 12.585-.053 12.65 0 .036.026.044.264.036.841-.008.445-.004.8.004.796.023-.016.315.191.315.222 0 .03.144.03.175-.003.036-.035 7.56-.035 7.596 0 .046.052.16.023.245-.063a.505.505 0 0 1 .175-.118l.086-.026V50.07l.09.008a.294.294 0 0 0 .148-.023.605.605 0 0 1 .233-.025c.094.002.172-.005.172-.018 0-.015.062-.026.136-.026a.567.567 0 0 0 .195-.03c.046-.026.058-.026.058.002 0 .026.012.026.047.003a.24.24 0 0 1 .113-.03c.035 0 .074-.016.086-.037.015-.023.054-.03.109-.023.054.01.097 0 .116-.025.02-.023.067-.033.113-.026.078.013.312-.043.312-.074 0-.013.035-.02.074-.02.043 0 .086-.016.093-.034.016-.023.024-.023.024 0 .004.036.662-.181.736-.242.027-.023.074-.041.105-.036a.143.143 0 0 0 .105-.046.193.193 0 0 1 .117-.051c.04 0 .09-.023.117-.052a.184.184 0 0 1 .117-.05c.035 0 .101-.034.148-.077.047-.041.113-.077.148-.077.035 0 .113-.03.167-.072.324-.222.807-.534.88-.565.043-.02.094-.069.106-.11.011-.043.058-.084.12-.102.055-.015.098-.05.098-.076 0-.026.043-.075.097-.108.055-.033.098-.077.098-.1 0-.023.023-.05.05-.06a.627.627 0 0 0 .137-.136c.093-.123.171-.21.202-.23a.357.357 0 0 0 .062-.077c.129-.182.172-.253.172-.29 0-.02.027-.043.058-.053.031-.008.059-.043.059-.079 0-.036.02-.064.039-.064.023 0 .039-.028.039-.064 0-.036.019-.064.038-.064.024 0 .04-.04.04-.09 0-.048.019-.089.042-.089.028 0 .032-.028.016-.076-.02-.06-.012-.082.039-.093.05-.012.058-.035.043-.1-.02-.06-.008-.096.039-.124.042-.031.054-.067.039-.128-.032-.1.003-.169.078-.169.038 0 .054-.038.054-.153 0-.085-.016-.154-.039-.154-.027 0-.039-6.877-.039-20.58s.012-20.58.039-20.58c.023 0 .039-.07.039-.153 0-.115-.016-.154-.054-.154-.075 0-.11-.069-.078-.169.015-.06.003-.097-.04-.127-.046-.029-.058-.064-.042-.115.02-.052.008-.087-.035-.115-.04-.026-.055-.062-.04-.103.016-.036.009-.061-.019-.061-.023 0-.042-.041-.042-.09 0-.048-.016-.09-.04-.09-.019 0-.038-.027-.038-.063 0-.036-.016-.064-.04-.064-.019 0-.038-.033-.038-.074 0-.04-.024-.08-.055-.087-.031-.008-.07-.056-.086-.107-.011-.049-.038-.097-.058-.105-.02-.008-.035-.036-.035-.064 0-.026-.016-.049-.039-.049-.02 0-.039-.023-.039-.05 0-.029-.016-.052-.039-.052-.02 0-.039-.018-.039-.038s-.011-.039-.027-.039c-.039 0-.168-.148-.168-.189 0-.018-.035-.053-.078-.079-.042-.026-.077-.061-.077-.08 0-.017-.035-.045-.078-.06-.043-.016-.078-.05-.078-.075 0-.025-.043-.066-.094-.087a.36.36 0 0 1-.14-.13c-.023-.049-.074-.097-.113-.105-.054-.01-.467-.281-.95-.619-.043-.03-.094-.05-.113-.043-.02.008-.086-.026-.152-.077-.066-.048-.144-.082-.171-.074-.032.005-.082-.018-.117-.054a.713.713 0 0 0-.343-.143.163.163 0 0 1-.082-.038c-.062-.056-.88-.32-.88-.284 0 .015-.016.013-.035-.008-.02-.02-.062-.028-.098-.02-.038.01-.074.003-.085-.02-.016-.023-.074-.039-.136-.039-.063 0-.114-.013-.114-.025 0-.016-.05-.026-.116-.026-.063 0-.117-.013-.117-.028 0-.018-.04-.023-.097-.018-.055.008-.117-.002-.14-.023a.393.393 0 0 0-.18-.028c-.078.002-.148-.008-.164-.028-.019-.02-.093-.03-.183-.028-.218.01-.249.005-.249-.039 0-.048-.374-.056-.401-.007-.012.025-.043.025-.152 0C36.001-.01 6.913-.015 6.875.026c-.012.012-.067.025-.117.025S6.653.038 6.64.026C6.629.01 6.54 0 6.442 0c-.124 0-.171.01-.171.038ZM36.13.91c.097.026.214.036.338.028.129-.007.207 0 .242.023.027.02.093.036.144.036.05 0 .113.013.14.03.035.024.047.024.047-.002 0-.028.011-.028.058-.002.031.018.094.025.14.018.047-.008.086 0 .102.023.011.02.05.035.09.035.042 0 .085.013.097.028.015.016.074.023.132.018a.366.366 0 0 1 .199.051c.07.041.101.049.124.026.024-.026.032-.026.032-.003 0 .018.035.034.077.034.043 0 .078.01.078.025 0 .013.035.026.078.026s.078.01.078.025c0 .013.035.026.078.026s.078.01.078.026c0 .03.234.115.296.107.023-.003.074.023.109.059.035.033.086.056.113.048.027-.005.09.023.136.064.05.046.11.072.14.064.032-.008.082.013.117.046.094.087.783.545.9.593.058.026.097.067.097.103 0 .038.035.069.098.086.05.016.105.057.12.092.012.034.047.07.078.077.032.008.055.036.055.064 0 .028.027.067.058.09.032.02.059.048.059.06 0 .016.012.032.03.037.06.015.204.232.204.304 0 .04.019.074.038.074.024 0 .04.018.04.038s.019.039.038.039c.024 0 .04.033.04.074 0 .043.023.08.058.09.043.01.054.033.035.079-.016.038-.008.064.02.064.023 0 .042.035.042.079 0 .043.023.094.055.115.039.025.05.066.035.128-.016.064-.008.1.03.115.04.015.051.069.044.214-.008.12.004.192.03.192.063 0 .055 26.363-.007 26.404-.066.044-40.114.044-40.18 0-.062-.04-.07-26.238-.004-26.263.023-.01.035-.105.027-.246-.007-.173.004-.235.043-.25.04-.018.047-.051.027-.128-.019-.084-.011-.11.04-.123.042-.01.054-.035.038-.087-.011-.046 0-.087.035-.11a.14.14 0 0 0 .059-.102c0-.036.015-.066.035-.066.02 0 .043-.06.058-.128.016-.08.05-.136.082-.146.031-.008.059-.028.059-.048s.019-.036.038-.036c.024 0 .04-.033.04-.072 0-.04.03-.087.073-.107a.205.205 0 0 0 .102-.128c.015-.059.078-.133.16-.19.073-.05.132-.114.132-.142 0-.028.043-.07.093-.09.05-.023.105-.069.117-.102.012-.033.074-.087.14-.12.183-.095.643-.391.713-.466a.253.253 0 0 1 .14-.066c.043 0 .121-.036.172-.077a.356.356 0 0 1 .16-.076.173.173 0 0 0 .108-.052c.028-.028.07-.05.094-.05.078 0 .288-.08.327-.123.031-.036.04-.036.04-.005 0 .028.022.02.077-.023.047-.036.078-.046.078-.026.004.026.023.018.07-.015a.277.277 0 0 1 .117-.054c.128-.008.156-.015.241-.067a.366.366 0 0 1 .199-.05c.058.004.117-.003.132-.019.012-.015.055-.028.098-.028.039 0 .078-.015.09-.035.015-.024.058-.031.124-.02.066.007.117 0 .136-.024.024-.02.09-.03.18-.028.085.005.16-.005.175-.026.023-.023.105-.03.257-.025.152.005.269-.005.343-.03C6.98.873 8.49.868 21.485.868c13.223 0 14.508.003 14.644.041Zm5.444 30.96c.075.018.082.102.016.122-.039.013-.039.018 0 .031.062.02.07 13.509.008 13.509-.027 0-.04.072-.031.197.008.138-.004.2-.035.204-.031.008-.051.057-.051.123 0 .061-.016.12-.039.128-.023.008-.039.056-.039.105 0 .048-.02.087-.043.087-.027 0-.035.025-.02.064.02.046.008.069-.034.079-.035.01-.059.046-.059.09 0 .04-.015.073-.039.073-.02 0-.039.018-.039.039 0 .02-.015.038-.039.038-.019 0-.038.033-.038.074 0 .044-.016.085-.04.092-.019.008-.038.039-.038.067 0 .025-.016.048-.04.048-.019 0-.038.018-.038.039 0 .02-.016.038-.04.038a.041.041 0 0 0-.038.04c0 .021-.027.057-.059.078-.03.023-.058.061-.058.087 0 .028-.035.06-.078.076s-.078.051-.078.08c0 .028-.043.06-.097.079a.252.252 0 0 0-.14.115.323.323 0 0 1-.14.128c-.11.048-.62.386-.756.5-.047.042-.105.067-.129.062-.058-.015-.156.03-.214.105-.027.036-.07.054-.105.046-.031-.008-.082.013-.117.049-.035.035-.078.058-.093.05-.043-.017-.265.062-.312.11-.031.036-.04.036-.04.006 0-.029-.022-.02-.077.023-.047.035-.078.046-.078.025-.004-.023-.027-.015-.074.02-.039.031-.082.052-.093.044-.028-.02-.3.067-.3.095 0 .012-.05.023-.113.023s-.121.015-.133.035c-.011.023-.058.031-.12.023-.055-.007-.102-.002-.102.013 0 .013-.062.026-.14.026-.078 0-.156.015-.175.033-.02.023-.086.03-.175.026-.086-.003-.156.005-.176.025-.02.02-.105.03-.241.026-.12-.003-.3.013-.405.036-.168.035-1.605.038-14.622.033-11.903-.008-14.446-.013-14.497-.041-.039-.023-.148-.033-.3-.028-.16.005-.249-.005-.268-.026-.02-.02-.094-.03-.199-.025-.11.005-.175-.003-.187-.023-.008-.018-.082-.031-.167-.031-.082 0-.152-.013-.152-.026 0-.015-.043-.025-.098-.025a.435.435 0 0 1-.187-.051c-.054-.033-.09-.044-.101-.023-.008.015-.023.018-.039.007-.047-.046-.51-.184-.51-.156 0 .018-.02.01-.043-.015a.493.493 0 0 0-.292-.097c-.023.002-.074-.026-.11-.061-.034-.036-.08-.064-.104-.064a.226.226 0 0 1-.098-.039.16.16 0 0 0-.109-.023c-.027.008-.097-.025-.152-.074-.054-.046-.128-.087-.167-.087a.272.272 0 0 1-.148-.069c-.12-.1-.545-.378-.666-.432a.28.28 0 0 1-.125-.12c-.011-.04-.05-.082-.09-.09-.066-.012-.311-.24-.311-.288 0-.013-.023-.031-.055-.039-.03-.007-.066-.061-.081-.117-.016-.06-.043-.105-.063-.105-.02 0-.035-.023-.035-.051 0-.028-.015-.051-.039-.051-.02 0-.039-.023-.039-.051 0-.029-.015-.052-.039-.052-.019 0-.038-.017-.038-.038a.038.038 0 0 0-.04-.038c-.019 0-.038-.026-.038-.054 0-.03-.028-.07-.059-.084-.031-.016-.07-.085-.085-.156-.012-.07-.047-.144-.078-.161a.075.075 0 0 1-.028-.095c.016-.04 0-.077-.035-.102-.043-.028-.054-.067-.039-.13.016-.065.008-.1-.03-.113-.04-.018-.051-.082-.044-.266.008-.161-.004-.245-.027-.245-.066 0-.058-13.335.008-13.356.039-.013.039-.018 0-.03-.027-.008-.05-.036-.05-.062 0-.025.023-.053.05-.059.07-.02 40.087-.02 40.16-.002ZM13.816 50.113c.074.039.074.923 0 .962-.074.04-5.858.043-5.932.002-.074-.04-.078-.918-.007-.964.066-.043 5.861-.043 5.94 0Zm21.31 0c.03.02.046.164.046.48 0 .318-.015.461-.047.481-.066.044-5.838.044-5.904 0-.031-.02-.047-.163-.047-.48 0-.317.016-.46.047-.48.066-.044 5.838-.044 5.904 0Z"/><path d="M4.74 15.012a.508.508 0 0 1-.16.002c-.097-.01-.148.003-.249.067-.074.048-.124.105-.124.143 0 .036-.028.072-.059.08-.05.012-.058.457-.058 3.78 0 2.485.011 3.774.039 3.784.023.008.039.038.039.067 0 .025.019.048.039.048.023 0 .038.02.038.046 0 .049.14.118.195.095.016-.008.055 0 .086.018.039.025.58.033 2.477.033 1.332 0 2.423-.01 2.423-.023 0-.01.023-.015.05-.008.031.008.07.005.09-.002.058-.029.21-.18.21-.21 0-.013.012-.026.031-.026.016 0 .028-1.72.028-3.822 0-2.101-.012-3.822-.028-3.822-.02 0-.03-.01-.03-.02a.603.603 0 0 0-.149-.128c-.12-.084-.175-.105-.284-.105-.074 0-1.13-.002-2.345-.007-1.219-.006-2.236 0-2.259.01Zm3.728.854c.074.018.081.102.015.122-.039.013-.039.018 0 .031.066.02.07 6.223 0 6.269-.035.023-.424.03-1.519.03H5.492l-.008-3.216a186.756 186.756 0 0 1 0-3.234c.016-.02 2.894-.025 2.984-.002ZM4.51 34.28a.995.995 0 0 0-.226.144 3.477 3.477 0 0 1-.155.133c-.055.043-.055 7.575 0 7.575.023 0 .039.015.039.033 0 .053.377.31.4.27.016-.025.024-.025.024-.004.004.025.51.033 2.396.033 2.391 0 2.391 0 2.55-.056.106-.036.172-.08.188-.123.011-.036.039-.077.066-.09.031-.017.043-1.04.043-3.86V34.5l-.086-.05c-.05-.029-.09-.067-.09-.085 0-.018-.035-.03-.077-.03-.043 0-.078-.014-.078-.029 0-.018-.035-.023-.082-.015-.047.007-.086 0-.101-.023-.016-.031-.367-.036-2.31-.036-1.796 0-2.294.008-2.31.03-.015.023-.031.026-.054.006-.024-.02-.063-.016-.137.012Zm3.942.9c0 .013.016.018.039.01.023-.01.039 1.082.039 3.158 0 2.124-.012 3.167-.039 3.157-.02-.008-.039-.002-.039.01 0 .02-.463.029-1.48.029h-1.48v-6.392h1.48c1.017 0 1.48.008 1.48.028Z"/></g><defs><clipPath id="a"><path fill="#fff" d="M0 0h43v52H0z"/></clipPath></defs></svg>