<svg xmlns="http://www.w3.org/2000/svg" width="86" height="78" fill="none"><path fill='currentColor' d="M3.311.343c-1.493.5-2.077.911-2.76 2.057C.033 3.252 0 5.779 0 34.014c0 30.173 0 30.732.65 31.701.356.558 1.07 1.264 1.558 1.616.908.617 1.038.617 24.185.617h23.276v-1.763l-4.707-.147-4.708-.146-.097-31.82c-.032-17.481.033-31.79.163-31.79H57.2c17.206-.029 17.53 0 18.18 1.176.13.235.325 3.202.422 6.61l.162 6.17H78.237v-6.17c0-6.933-.195-7.697-2.37-9.196L74.73.08 39.638.02C10.843-.039 4.318.02 3.31.343Zm34.184 33.818v31.907l-16.75-.088-16.752-.088-.78-.823-.778-.823V3.722l.811-.705.78-.734h33.47V34.16Z"/><path fill='currentColor' d="M16.622 7.512c-.325.323-.552 1.057-.552 1.792 0 3.085-2.597 5.318-6.168 5.318-1.558 0-2.175.617-1.688 1.616.324.646.584.734 2.175.734 2.077 0 2.857.294 4.155 1.587 1.169 1.116 1.526 1.939 1.526 3.408 0 1.645.26 2.056 1.298 2.056 1.04 0 1.299-.41 1.299-2.056 0-1.47.422-2.439 1.526-3.467 1.33-1.234 2.11-1.528 4.155-1.528 1.59 0 1.85-.088 2.175-.734.487-1-.13-1.616-1.688-1.616-3.571 0-6.168-2.263-6.168-5.436 0-.822-.195-1.38-.585-1.704-.746-.617-.811-.617-1.46.03Zm1.785 7.315c.78.617.747.97-.26 1.822l-.811.705-.78-.676c-.94-.822-1.006-1.087-.259-1.821.65-.647 1.331-.676 2.11-.03ZM24.283 32.75c-.357.706-.844 1.146-1.266 1.205-.942.118-1.818 1.028-1.591 1.616.13.235.617.617 1.136.793.52.206 1.234.794 1.59 1.352.877 1.351 1.754 1.292 2.76-.147.455-.647 1.169-1.205 1.623-1.322 1.494-.323 1.007-1.998-.616-2.292-.358-.059-.91-.588-1.234-1.205-.747-1.469-1.656-1.469-2.402 0ZM59.05 22.35c-.389.91.033 1.498 1.17 1.704.616.117 3.895.294 7.304.411 3.376.118 6.233.235 6.33.294.097.059 1.46.176 3.02.294 2.953.176 4.447.528 4.447.999 0 .176-.682.558-1.526.91-1.98.794-2.5 1.234-3.7 3.144l-.975 1.557H70.965l-1.299-1.41c-2.142-2.292-5.843-3.996-9.284-4.23-1.234-.089-1.299-.06-1.396.851-.097 1-.033 1.058 2.37 1.41 2.142.324 4.415 1.528 6.72 3.585l2.175 1.968 2.694.089c3.279.146 4.026-.177 4.805-1.94.746-1.733 2.402-3.055 4.642-3.701 2.208-.617 2.63-1.029 2.337-2.145-.324-1.322-1.785-2.38-3.928-2.85-1.039-.206-1.98-.353-2.077-.294-.13.059-1.234-.03-2.468-.176-2.337-.294-3.506-.382-11.881-.705-4.48-.206-5.13-.147-5.324.235ZM54.051 23.495c-.876 1.322-.811 2.468.13 3.32 1.364 1.234 1.818.734 1.818-1.94 0-2.144-.065-2.32-.65-2.32-.389 0-.908.382-1.298.94ZM60.187 33.338c-1.104 1.969-2.533 3.878-4.286 5.788-1.915 2.086-2.11 2.644-1.136 3.232.487.265.844.059 2.208-1.146 1.558-1.38 4.058-4.583 5.324-6.846.454-.763.487-1.087.162-1.41-.617-.675-1.753-.5-2.273.382ZM70.186 37.187c-.357.352-.422.646-.195 1.028.454.705 6.46.734 7.272.03.487-.441.487-.53-.033-1.029-.779-.793-6.265-.823-7.044-.03ZM71.063 41.946c-1.299.47-1.98 1.646-2.37 4.172-.844 5.23-1.59 6.552-6.395 11.312-4.123 4.084-4.74 4.995-5.324 7.639-.747 3.408.844 8.344 3.278 10.195 2.792 2.145 5.714 2.791 12.077 2.732 4.382-.058 5.097-.146 6.395-.705 2.987-1.351 5.291-4.23 6.59-8.256.584-1.88.714-2.938.682-6.375-.033-4.407-.487-7.022-1.948-10.9-1.201-3.32-3.506-7.14-5.26-8.727l-1.492-1.38-2.792.029c-1.526 0-3.084.117-3.441.264Zm6.525 3.262c1.233 1.263 3.57 5.435 4.48 8.05 2.11 5.993 2.077 13.25-.065 17.658-.812 1.616-3.117 3.849-4.513 4.407-1.525.558-9.317.558-11.751-.03-4.058-.97-6.136-3.437-6.428-7.668-.13-2.233-.065-2.585.714-4.054.52-1 2.143-2.821 4.22-4.79 5.032-4.818 6.493-7.521 6.85-12.81.13-1.704.585-1.968 3.084-1.968 2.175 0 2.208.03 3.409 1.205Z"/><path fill='currentColor' d="M66.128 61.426c-2.76 2.586-3.312 3.643-3.312 6.17 0 3.173 1.818 4.79 5.779 5.112 2.078.177 2.792-.205 2.597-1.44-.065-.528-.325-.704-1.234-.763-2.045-.118-3.765-.676-4.22-1.322-1.071-1.587-.162-4.114 2.272-6.229l.942-.793 4.967-.059c5.746-.03 6.525-.235 6.363-1.733-.098-.911-.13-.94-1.396-.794-2.175.206-8.051.176-9.252-.088-1.104-.235-1.201-.176-3.506 1.94Z"/></svg>