<svg xmlns="http://www.w3.org/2000/svg" width="99" height="69" fill="none"><path fill="#00BFDE" d="M87.234 5.556c-1.512.734-3.643 2.203-4.743 3.338-1.65 1.736-1.855 2.27-1.168 3.071.756.868 1.168.735 3.093-1.268 2.887-3.005 5.43-3.873 9.485-3.339 2.681.401 3.3.267 3.3-.534 0-1.402-.688-1.736-4.262-2.136-2.062-.267-3.78 0-5.705.868ZM35.89 15.438c-2.132 1.069-3.3 2.872-3.3 4.875s1.237 1.736 2.612-.534c1.375-2.337 3.574-3.139 4.674-1.736.618.8.962.8 1.924.133 1.031-.734 1.031-.935.07-2.337-1.238-1.67-3.3-1.87-5.98-.4ZM70.394 16.172C40.769 20.78 26.404 27.39 14.581 41.878c-2.543 3.005-5.499 6.343-6.667 7.345-2.406 2.003-2.612 2.67-1.031 4.14.962.934 4.811 1.068 32.305 1.068 29.625 0 31.48-.067 35.399-1.336 5.017-1.669 9.142-4.073 10.585-6.276 1.031-1.536.962-1.87-1.031-5.675-3.23-6.277-4.399-11.485-3.85-17.694.482-6.61-.274-7.812-5.017-7.678-1.718.066-3.918.267-4.88.4Zm6.942 7.678c-.275 6.076.688 10.55 3.575 16.76 1.924 4.273 1.993 4.54.893 5.742-.619.667-3.093 2.136-5.43 3.138l-4.262 1.936-31.137.2-31.068.2 5.361-6.543c8.455-10.215 14.366-14.756 24.745-18.895 8.73-3.539 28.869-8.08 34.849-7.812l2.75.133-.276 5.142Z"/><path fill="#00BFDE" d="M55.41 25.32c-14.504 2.67-24.676 7.545-27.632 13.087-1.787 3.405-1.718 5.542.206 7.678 1.993 2.27 7.011 3.005 21.102 3.005 16.909 0 20.758-.935 24.332-5.609 1.856-2.403 1.993-10.215.206-13.754-2.337-4.674-8.523-6.143-18.214-4.407Zm13.54 3.205c1.994 1.202 3.162 4.34 3.162 8.68 0 3.472-.275 4.073-2.2 5.942-1.993 1.937-2.611 2.137-8.866 2.738-6.53.6-27.425.2-29.556-.601-1.925-.668-2.406-2.67-1.375-5.074 1.718-4.007 7.56-7.412 17.39-10.15 10.654-2.937 18.215-3.471 21.445-1.535Z"/><path fill="#00BFDE" d="M40.494 41.077c-1.031 1.602.756 2.003 8.66 2.003 7.493 0 8.249-.133 8.042-1.202-.206-1.001-1.237-1.135-8.248-1.335-4.949-.134-8.18.067-8.454.534ZM6.265 60.84c-.275.268-.275.735-.07 1.002.207.334 15.054.601 32.994.601 28.525 0 32.58-.133 32.58-1.001 0-.868-4.055-1.002-32.512-1.002-17.94 0-32.786.2-32.992.4Z"/></svg>