<svg xmlns="http://www.w3.org/2000/svg" width="59" height="75" fill="none"><path fill="#00BFDE" d="M8.995.477C4.131 2.022 1.305 5.083.326 9.774c-.49 2.388-.408 53.872.109 56.034.516 2.275 1.304 3.736 2.935 5.477 1.712 1.826 3.805 2.978 6.196 3.399 2.473.421 37.15.421 39.623 0 2.528-.45 4.403-1.432 6.088-3.146 1.712-1.713 2.527-3.23 3.207-5.954.462-1.826.516-3.708.516-27.891 0-25.644 0-25.953-.598-28.34-1.087-4.55-3.614-7.275-7.963-8.651L48.24 0 29.214.028C13.725.056 10 .14 8.995.478ZM50.44 2.921c2.8 1.067 4.783 3.09 5.735 5.842.462 1.32.842 6.207.57 7.303-.217.814-.57.898-4.81 1.376-7.066.814-17.719 1.46-23.643 1.46-8.208 0-24.16-1.292-25.6-2.078-.544-.309-.544-.478-.435-3.876.108-3.118.217-3.736.87-5.084.38-.843.923-1.797 1.195-2.106.842-1.012 2.609-2.304 3.587-2.613.517-.168 1.332-.449 1.767-.59.489-.168 8.316-.252 20.11-.224 18.127.056 19.377.084 20.654.59ZM7.772 19.914c1.495.168 4.131.449 5.843.646 4.213.477 25.22.477 30.03 0 7.664-.759 9.023-.927 10.735-1.18 1.196-.169 1.848-.169 2.093.056.271.225.353 4.634.353 21.965 0 22.47-.054 23.93-1.142 26.12-.76 1.517-2.826 3.568-4.43 4.382l-1.358.703H8.859l-1.386-.759c-1.739-.927-3.696-2.977-4.51-4.69l-.626-1.292-.081-23.144c-.055-16.488.027-23.2.217-23.341.163-.112.815-.084 1.44.028.625.14 2.365.365 3.86.506Z"/><path fill="#00BFDE" d="M26.28 5.842c-1.386.983-2.473 3.118-2.473 4.831 0 1.854 1.06 3.82 2.581 4.803 2.12 1.376 5.599.983 7.093-.758.843-.983 1.604-2.893 1.604-3.989 0-2.022-1.413-4.437-3.18-5.364-.326-.169-1.495-.31-2.582-.31-1.712.029-2.12.113-3.043.787Zm5.218 1.966c.652.45 1.413 1.995 1.413 2.921 0 .871-1.087 2.669-1.821 3.006-2.69 1.264-5.789-1.18-5-3.932.706-2.444 3.288-3.4 5.408-1.995ZM39.216 7.948c-.843.927-.87 4.27-.027 5.365l.543.73h8.914l.544-.73c.462-.59.57-1.152.57-2.64 0-1.49-.108-2.05-.57-2.64l-.544-.731h-4.43c-4.266 0-4.43.028-5 .646Zm8.37 2.724v1.152l-3.451-.084c-3.397-.085-3.479-.085-3.56-.73-.19-1.405-.027-1.461 3.614-1.461h3.397v1.123ZM9.457 12.302c-.598.674-.57 1.095.055 1.46.706.365 9.674.365 10.381 0 .652-.365.652-.899.027-1.488-.435-.422-1.223-.478-5.272-.478-4.267 0-4.81.056-5.19.506ZM25.845 26.26c-4.294.843-7.61 2.67-10.735 5.9-3.207 3.314-4.892 6.628-5.734 11.375-.462 2.696-.462 4.41 0 6.881.842 4.382 2.527 7.836 5.245 10.814 4.837 5.336 11.822 7.724 18.425 6.347 2.61-.533 3.289-.786 5.572-1.966 6.767-3.51 11.006-10.56 11.115-18.566.109-5.926-3.017-12.807-7.365-16.318-5.028-4.017-10.79-5.59-16.523-4.466Zm6.142 2.08c.434.14 1.494.42 2.364.617.87.197 1.63.45 1.712.59.082.112.299.225.516.225.843 0 3.941 2.247 5.87 4.269 7.365 7.724 6.713 20.307-1.413 27.273-1.739 1.46-4.62 3.061-6.413 3.539-.652.168-1.63.45-2.229.59-3.288.87-8.615-.197-12.338-2.472-3.723-2.303-6.876-6.572-8.234-11.15-.734-2.5-.68-7.5.108-10.084 2.5-8.061 9.458-13.482 17.475-13.622.978-.028 2.147.084 2.582.224Z"/><path fill="#00BFDE" d="M24.948 33.704c-3.261 1.292-5.897 3.568-7.283 6.292-.652 1.292-.652 1.32-.136 1.741.897.674 1.44.45 2.201-.898 1.55-2.725 4.838-5.056 7.61-5.393 1.44-.14 2.31-.955 1.875-1.685-.435-.675-2.636-.703-4.267-.057ZM16.251 44.855c-.353.337-.19 1.405.245 1.798.842.73 1.902-.702 1.196-1.573-.354-.45-1.142-.562-1.44-.225Z"/></svg>