<svg xmlns="http://www.w3.org/2000/svg" width="85" height="63" fill="none"><path fill="#00BFDE" d="M24.495.332c-4.616.757-7.277 1.963-10.515 4.74-3.333 2.862-5.257 5.863-6.828 10.744-.609 1.935-.897 2.805-1.378 4.348-1.122 3.534-1.539 4.937-2.148 6.872-.32 1.122-.898 3.03-1.282 4.208C.324 37.92.068 39.126.004 41.707c-.129 6.48 3.173 12.876 8.559 16.438 3.398 2.272 6.828 3.478 12.598 4.46 3.366.561 4.232.533 7.918-.14 6.508-1.15 11.124-3.619 14.105-7.518 4.553-5.947 4.873-13.38.802-19.355-2.79-4.095-7.277-6.676-13.72-7.938-3.334-.646-4.777-.674-7.598-.085-6.476 1.29-10.194 3.563-12.406 7.49-3.078 5.498-2.18 11.557 2.34 15.737 2.084 1.907 3.334 2.665 5.802 3.45 7.822 2.553 15.195.449 18.209-5.19.77-1.43.865-1.935.865-4.544 0-2.524-.128-3.114-.769-4.207-1.058-1.824-3.75-4.124-5.802-4.993-1.507-.618-2.18-.73-4.809-.73-3.622 0-5.418.617-7.213 2.44-1.122 1.123-2.084 3.283-2.084 4.6 0 3.563 3.238 6.368 7.374 6.368 2.82 0 5.481-1.935 5-3.618-.256-.842-1.698-.982-2.02-.224-.48 1.234-1.442 1.767-3.109 1.767-4.167 0-6.347-3.955-3.91-7.097 2.372-3.058 9.072-3.03 12.598.028 4.648 4.095 2.917 11.276-3.302 13.689-1.41.533-2.276.673-4.552.673-3.078 0-5.033-.42-7.47-1.599-1.955-.926-4.552-3.338-5.45-5.05-2.275-4.403-1.089-9.957 2.854-13.323 3.366-2.861 6.059-3.731 11.605-3.731 2.98 0 4.103.14 5.898.645 5.258 1.543 9.329 4.909 11.188 9.229.962 2.216 1.026 8.107.128 10.463-.77 1.907-2.917 4.825-4.744 6.367-1.603 1.319-5.482 3.254-7.854 3.871-4.84 1.263-12.663.59-17.375-1.514-4.937-2.188-8.816-6.2-10.515-10.884-.801-2.16-.962-7.826-.32-10.154 2.115-7.574 9.553-13.465 18.785-14.84 2.725-.42 9.425-.196 11.99.365 4.52 1.01 9.2 3.31 12.822 6.284 3.75 3.141 6.86 7.32 12.182 16.578 4.103 7.097 7.117 11.248 9.329 12.847 2.756 1.964 5.16 2.777 11.22 3.703 4.616.73 5.097.73 5.61-.14.64-1.066 0-1.543-2.116-1.543-1.86 0-2.565-.393-2.885-1.627-.097-.42-.385-1.375-.642-2.132-.224-.757-.352-1.459-.256-1.599.096-.14.641-.252 1.218-.252.61 0 1.41-.253 1.827-.533.738-.533.738-.561.193-1.066-.353-.309-1.218-.561-2.373-.645-1.763-.14-1.795-.169-2.211-1.207-.257-.589-.513-1.71-.642-2.468-.192-1.347-.192-1.375.642-1.375 1.218 0 2.115-.477 2.115-1.15 0-.645-.32-.785-2.436-1.038l-1.539-.196-.577-1.683c-.673-1.964-.545-2.525.45-2.3.897.224 1.538-.253 1.538-1.066 0-.702-.545-.982-1.956-.982-1.154 0-1.763-.785-2.051-2.609-.225-1.346-.129-1.458 1.058-1.346.192.028.544-.28.769-.702.353-.645.32-.785-.224-1.121-.321-.225-1.058-.393-1.635-.393-.802 0-1.09-.14-1.347-.786-.352-.757-.48-1.542-.417-2.244 0-.168.289-.336.642-.336.32 0 .769-.197.993-.421.577-.59-.448-1.543-1.635-1.543-.673 0-.93-.168-1.218-.87-.513-1.318-.448-1.627.45-1.823.608-.14.8-.364.8-.982 0-.7-.128-.813-1.186-.953-5.321-.674-7.34-1.459-10.578-4.152-1.25-1.038-3.559-3.366-5.097-5.19C48.538 7.065 42.864 2.885 37.062 1.146 33.15-.005 28.374-.313 24.495.332Zm7.053 1.935c4.648.59 7.18 1.459 10.739 3.703 2.148 1.347 7.117 5.723 8.816 7.77 2.372 2.861 5.129 5.723 6.924 7.21 1.891 1.57 6.572 3.927 7.758 3.927.352 0 .77.168.961.336.257.309 3.078 9.173 5.707 18.037.961 3.31 2.436 8.135 3.814 12.51.61 1.936 1.122 3.703 1.122 3.872 0 .364-2.18.196-3.205-.253-.257-.112-1.154-.505-2.02-.87-3.238-1.346-5.61-3.926-9.36-10.21-1.026-1.711-2.725-4.544-3.783-6.311-3.943-6.62-5.065-8.22-7.79-11.22-3.238-3.535-6.636-5.948-11.22-7.883-1.795-.758-3.494-1.375-3.783-1.375-.288 0-.77-.112-1.09-.252-2.693-1.206-13.624-1.206-17.214-.028-.353.14-1.154.364-1.764.56-2.66.814-5.77 2.413-8.27 4.265-.577.448-1.186.729-1.347.645-.16-.084.225-1.767.834-3.731.64-1.964 1.282-4.067 1.442-4.684 1.539-5.527 4.424-10.183 7.79-12.595 2.853-2.02 5.61-2.918 11.733-3.787.096 0 1.539.168 3.206.364Z"/></svg>