<svg xmlns="http://www.w3.org/2000/svg" width="100" height="80" fill="none"><path fill="#00BFDE" d="M6.595.673C3.882 1.475 2.11 2.725.942 4.681L0 6.253V40.24c0 31.872.038 34.053.678 35.207.867 1.603 3.354 3.623 5.088 4.136 1.13.32 9.986.417 44.543.417h43.149l1.695-.802c1.96-.961 3.957-3.078 4.523-4.81.263-.833.376-12.12.301-34.853l-.113-33.603-.829-1.283C97.867 2.79 96.359 1.7 93.646.802L91.234 0 49.97.032C10.137.064 8.592.064 6.595.673Zm85.958 2.373c.905.289 2.035.834 2.525 1.219 2.073 1.635 1.997-.225 1.96 36.008 0 33.507 0 33.57-.792 34.757-.452.673-1.432 1.507-2.223 1.892l-1.432.673H49.97c-47.257 0-43.827.16-45.9-2.148l-1.055-1.154-.113-33.38c-.076-25.105 0-33.667.339-34.564.565-1.475 1.997-2.662 3.92-3.27 2.335-.738 82.98-.738 85.392-.033Z"/><path fill="#00BFDE" d="M24.647 9.074c-1.583.898-2.977 2.918-2.977 4.33 0 1.41 1.243 3.366 2.75 4.36 1.734 1.154 5.201 1.186 7.086.096 3.504-2.02 3.391-7.022-.227-8.85-1.921-.93-4.936-.93-6.632.064Zm5.69 2.694c.641.705.792 1.186.641 2.116-.264 1.54-1.13 2.116-3.128 2.148-2.299 0-3.58-1.57-2.789-3.366.566-1.25 1.433-1.732 3.09-1.764 1.056 0 1.546.193 2.186.866ZM41.53 9.235c-.98.866-1.018 1.058-1.018 4.36 0 3.207.075 3.464.942 4.201.904.802.942.802 8.63.802h7.725l.754-.834c.678-.738.791-1.315.791-4.36 0-3.271-.038-3.528-.942-4.265-.905-.802-.942-.802-8.404-.802h-7.461l-1.018.898Zm14.81 4.232v2.565H43.525v-5.13H56.34v2.565ZM68.926 8.946c-1.997 1.026-2.977 2.501-2.977 4.521.038 3.303 2.224 5.13 6.218 5.13 1.998 0 2.412-.128 3.618-1.025 3.43-2.565 3.165-6.35-.565-8.497-1.659-.962-4.598-.994-6.294-.129Zm5.314 2.758c1.168.962 1.206 2.34.15 3.495-.602.673-1.092.833-2.374.833-1.922 0-2.788-.673-3.127-2.34-.189-.962-.038-1.283.829-1.956 1.394-1.09 3.278-1.122 4.522-.032ZM6.256 22.253c-.453.449-.415.641.301 1.282.64.577 1.394.802 3.166.962 1.28.096 3.768.353 5.54.513 22.12 2.277 48.462 2.277 69.339.032 1.771-.192 4.334-.48 5.766-.609 2.864-.288 4.107-.994 3.429-1.924-.528-.673-3.769-.705-9.195-.096-21.104 2.34-46.428 2.373-68.963.032-6.858-.705-8.856-.77-9.383-.192ZM11.004 32.577c-.566.257-1.206.834-1.395 1.283-.226.48-.377 7.63-.377 17.314V67.72l1.093.93 1.093.93h38.288c23.44 0 38.589-.128 39.192-.32 2.11-.674 2.11-.802 2.11-18.213 0-17.7 0-17.731-2.261-18.533-1.018-.385-7.876-.449-38.966-.449-32.974.032-37.873.096-38.777.513Zm76.537 2.437c.716.61.64 31.134-.075 31.647-.377.257-10.552.32-37.76.289l-37.27-.096-.113-15.68c-.038-11.318.037-15.807.339-16.096.603-.61 74.163-.673 74.879-.064Z"/><path fill="#00BFDE" d="M19.029 43.606c-.302.45-.302.834 0 1.283.414.641.791.641 31.09.641 30.336 0 30.675 0 30.9-.641.114-.353.114-.93 0-1.283-.225-.64-.564-.64-30.9-.64-30.299 0-30.676 0-31.09.64ZM18.843 57.074c-.113.32-.038.898.188 1.282.415.642.603.642 30.864.642 32.936 0 31.542.064 31.24-1.668l-.113-.737-30.976-.096c-30.525-.064-30.977-.064-31.203.577Z"/></svg>