<svg xmlns="http://www.w3.org/2000/svg" width="67" height="72" fill="none"><path fill="#00BFDE" d="M13.074.46c-.201.257-.352 1.14-.352 2.051-.026 1.766-.68 3.56-1.84 4.984C9.876 8.691 7.81 9.66 6.173 9.66c-1.134 0-1.41.113-1.638.598-.226.455-.201.712.152 1.139.327.399.73.512 1.839.484 3.25-.085 6.12 3.218 6.171 7.091.05 1.794.555 2.592 1.335 2.108.429-.228.53-.684.63-2.364.126-2.279.454-3.076 1.94-4.87 1.083-1.282 3.023-2.165 4.434-1.994.755.114 1.183 0 1.637-.427.604-.54.604-.598.176-1.139-.327-.399-.881-.598-2.191-.683-1.386-.114-1.99-.342-2.998-1.054a7.227 7.227 0 0 1-2.947-5.354C14.485.318 13.88-.678 13.074.46Zm1.386 7.776c.252.484.831 1.167 1.31 1.509.453.342.83.712.78.826-.1.313-2.72 3.36-2.896 3.36-.227 0-2.822-2.933-2.822-3.19 0-.284 2.595-3.303 2.897-3.331.151-.029.479.37.73.826ZM54.967 7.723c-.177.199-.303.712-.303 1.167 0 1.082-1.662 3.047-2.594 3.047-.353 0-.882.257-1.21.57l-.604.57.604.57c.328.313.857.569 1.21.569.932 0 2.594 1.965 2.594 3.047 0 .94.403 1.51 1.058 1.51.504 0 .958-.826.958-1.795 0-.883 1.788-2.762 2.62-2.762.327 0 .856-.256 1.183-.57l.605-.57-.605-.569c-.327-.313-.856-.57-1.184-.57-.83 0-2.62-1.88-2.62-2.762 0-1.48-.957-2.307-1.712-1.452Zm1.209 5.354c0 .37-.177.57-.504.57-.328 0-.504-.2-.504-.57 0-.37.176-.57.504-.57.327 0 .504.2.504.57ZM31.237 14.9c-1.033.37-2.393.91-3.023 1.224-2.444 1.225-7.784 3.674-8.49 3.93-.352.114-.63.484-.73.94-.076.427-.176.94-.252 1.11-.151.656.479.428 5.592-1.936 7.205-3.332 8.339-3.76 9.674-3.617.957.114 9.421 3.76 18.137 7.803 1.184.57 2.67 1.254 3.35 1.567 2.595 1.196 3.88 1.794 4.863 2.278 3.073 1.51 5.743 2.535 6.171 2.392.479-.17.63-.883.277-1.424-.15-.256-1.158-.769-5.466-2.762-.68-.342-1.612-.769-2.066-.997-.655-.313-15.492-7.063-20.354-9.256-2.469-1.082-4.761-1.936-5.265-1.908-.302 0-1.385.314-2.418.655ZM5.668 26.405C.756 28.684.126 29.054.126 29.71c0 .94 1.234 1.082 2.72.313.731-.342 1.89-.911 2.57-1.224.705-.314 2.242-1.054 3.426-1.595 1.184-.57 2.292-1.026 2.469-1.026.15 0 .277-.085.277-.227 0-.314-1.486-1.197-1.965-1.168-.227 0-2.015.74-3.955 1.623ZM59.148 35.917c-.05.057-.126 7.461-.202 16.46l-.126 16.376-6.348.086-6.373.056v-6.521c0-3.73-.126-7.205-.277-8.06-.53-2.848-1.764-5.325-3.653-7.376-1.94-2.079-3.3-2.905-5.97-3.702-2.242-.655-2.847-.655-4.938-.085-4.71 1.31-7.834 4.357-9.396 9.113-.479 1.51-.554 2.42-.68 9.085l-.151 7.404-6.348.086-6.374.056v-9.398H6.55v11.107l.655.285c.352.17 3.753.285 7.809.285 6.902 0 7.18-.029 7.683-.598.504-.57.504-.855.454-8.316-.05-9.597.075-10.195 2.897-13.528 5.39-6.407 14.409-4.3 17.507 4.073.63 1.652.655 1.937.73 9.768l.102 8.06.63.285c.327.142 3.828.256 7.783.256 6.827 0 7.18-.029 7.659-.57.503-.57.503-.94.503-17.201 0-14.752-.05-16.689-.403-17.087-.327-.4-1.234-.627-1.41-.4ZM6.877 38.48c-.151.2-.327 1.054-.403 1.908-.302 2.848-2.141 4.87-4.459 4.87-1.284 0-2.015.427-2.015 1.14 0 .398.227.569.831.683.429.085 1.26.227 1.814.313 2.192.399 3.527 2.107 3.804 4.87.1.883.353 1.766.554 1.993.328.37.428.37.831-.057.353-.341.479-.882.479-1.908 0-2.677 1.713-4.67 4.358-4.983 1.461-.2 1.562-.257 1.638-.969.1-.854-.227-1.025-1.84-1.11-1.234-.086-2.065-.513-2.922-1.595-.957-1.14-1.234-1.88-1.234-3.218 0-1.88-.756-2.905-1.436-1.937Zm1.234 6.693c.882.94.882 1.224-.025 2.192l-.705.77-.806-.883-.781-.912.68-.94c.403-.54.756-.968.806-.968.076-.028.454.313.831.74Z"/></svg>