<svg width="40" height="41" viewBox="0 0 40 41" fill="none" xmlns="http://www.w3.org/2000/svg">
<path d="M4 11.6668H32V7.82215H4V11.6668ZM4 38.5795C2.9 38.5795 1.95833 38.203 1.175 37.4501C0.391667 36.6972 0 35.7921 0 34.7348V7.82215C0 6.76486 0.391667 5.85976 1.175 5.10685C1.95833 4.35394 2.9 3.97748 4 3.97748H6V2.05515C6 1.51048 6.19167 1.05393 6.575 0.685483C6.95833 0.317036 7.43333 0.132812 8 0.132812C8.56667 0.132812 9.04167 0.317036 9.425 0.685483C9.80833 1.05393 10 1.51048 10 2.05515V3.97748H26V2.05515C26 1.51048 26.1917 1.05393 26.575 0.685483C26.9583 0.317036 27.4333 0.132812 28 0.132812C28.5667 0.132812 29.0417 0.317036 29.425 0.685483C29.8083 1.05393 30 1.51048 30 2.05515V3.97748H32C33.1 3.97748 34.0417 4.35394 34.825 5.10685C35.6083 5.85976 36 6.76486 36 7.82215V18.7314C35.3667 18.443 34.7167 18.2027 34.05 18.0105C33.3833 17.8183 32.7 17.6741 32 17.578V15.5115H4V34.7348H16.6C16.8333 35.4397 17.1083 36.1125 17.425 36.7533C17.7417 37.394 18.1167 38.0028 18.55 38.5795H4ZM30 40.5018C27.2333 40.5018 24.875 39.5647 22.925 37.6904C20.975 35.8161 20 33.5494 20 30.8901C20 28.2309 20.975 25.9642 22.925 24.0899C24.875 22.2156 27.2333 21.2785 30 21.2785C32.7667 21.2785 35.125 22.2156 37.075 24.0899C39.025 25.9642 40 28.2309 40 30.8901C40 33.5494 39.025 35.8161 37.075 37.6904C35.125 39.5647 32.7667 40.5018 30 40.5018ZM31 30.5057V26.0843C31 25.828 30.9 25.6037 30.7 25.4115C30.5 25.2193 30.2667 25.1231 30 25.1231C29.7333 25.1231 29.5 25.2193 29.3 25.4115C29.1 25.6037 29 25.828 29 26.0843V30.4576C29 30.7139 29.05 30.9622 29.15 31.2025C29.25 31.4428 29.4 31.6591 29.6 31.8513L32.65 34.7829C32.85 34.9751 33.0833 35.0712 33.35 35.0712C33.6167 35.0712 33.85 34.9751 34.05 34.7829C34.25 34.5906 34.35 34.3664 34.35 34.1101C34.35 33.8537 34.25 33.6295 34.05 33.4372L31 30.5057Z" fill="url(#paint0_linear_455_839)"/>
<defs>
<linearGradient id="paint0_linear_455_839" x1="20" y1="0.132812" x2="20" y2="40.5018" gradientUnits="userSpaceOnUse">
<stop stop-color="#006778"/>
<stop offset="1" stop-color="#00BFDE"/>
</linearGradient>
</defs>
</svg>
