<svg width="80" height="80" viewBox="0 0 80 80" fill="none" xmlns="http://www.w3.org/2000/svg">
<path d="M35.7631 76.1905H7.94735C3.53657 76.1905 0 72.7619 0 68.5714L0.0397367 15.2381C0.0397367 11.0476 3.53657 7.61905 7.94735 7.61905H11.921V3.80952C11.921 1.71429 13.7092 0 15.8947 0C18.0802 0 19.8684 1.71429 19.8684 3.80952V7.61905H51.6578V3.80952C51.6578 1.71429 53.4459 0 55.6314 0C57.817 0 59.6051 1.71429 59.6051 3.80952V7.61905H63.5788C67.9498 7.61905 71.5261 11.0476 71.5261 15.2381V38.0952H63.5788V30.4762H7.94735V68.5714H35.7631V76.1905ZM76.0164 57.1048L78.8377 54.4C80.3874 52.9143 80.3874 50.5143 78.8377 49.0286L76.0164 46.3238C74.4667 44.8381 71.9632 44.8381 70.4135 46.3238L67.5922 49.0286L76.0164 57.1048ZM73.1951 59.8095L53.287 78.8952C52.5717 79.5809 51.5386 80 50.5054 80H45.6973C44.5846 80 43.7104 79.1619 43.7104 78.0952V73.4857C43.7104 72.4571 44.1475 71.5048 44.8628 70.781L64.7709 51.6952L73.1951 59.8095Z" fill="#006778"/>
</svg>
