<?xml version="1.0" standalone="no"?>
<!DOCTYPE svg PUBLIC "-//W3C//DTD SVG 20010904//EN"
 "http://www.w3.org/TR/2001/REC-SVG-20010904/DTD/svg10.dtd">
<svg version="1.0" xmlns="http://www.w3.org/2000/svg"
 width="383.000000pt" height="383.000000pt" viewBox="0 0 383.000000 383.000000"
 preserveAspectRatio="xMidYMid meet">
<metadata>
Created by potrace 1.14, written by Peter Selinger 2001-2017
</metadata>
<g transform="translate(0.000000,383.000000) scale(0.100000,-0.100000)"
fill="#000000" stroke="none">
<path d="M1528 2853 c-104 -117 -295 -335 -359 -408 -28 -32 -183 -209 -233
-264 l-31 -35 40 29 c22 16 52 38 67 49 14 12 39 31 55 43 15 11 151 116 301
232 l273 210 47 -18 c26 -11 177 -71 336 -135 160 -63 290 -115 291 -113 1 1
11 27 22 58 l21 56 -156 93 c-87 51 -246 146 -356 211 -109 66 -200 119 -202
119 -1 0 -54 -57 -116 -127z"/>
<path d="M2493 2842 c-12 -7 -103 -234 -103 -255 0 -7 -43 -124 -94 -262 -52
-137 -92 -253 -88 -256 4 -4 16 -10 28 -13 19 -6 28 13 109 226 49 128 98 253
110 278 12 25 39 92 60 149 29 77 36 107 28 120 -12 19 -33 24 -50 13z"/>
<path d="M2435 2454 c-10 -26 -13 -49 -9 -54 11 -11 586 -241 590 -237 3 2
-513 311 -557 333 -4 2 -14 -17 -24 -42z"/>
<path d="M1519 2448 c-1 -2 -2 -31 -3 -65 l-2 -63 67 0 c37 0 69 4 71 10 2 5
1 35 0 65 l-4 55 -64 0 c-35 0 -65 -1 -65 -2z"/>
<path d="M1690 2385 l0 -65 70 0 70 0 0 65 0 65 -70 0 -70 0 0 -65z"/>
<path d="M2033 2286 c9 -22 -16 -47 -53 -56 -29 -7 -31 -8 -9 -9 33 -1 58 -21
62 -48 5 -33 12 -36 15 -5 2 32 26 52 61 53 22 1 21 2 -9 11 -43 12 -51 19
-53 47 -1 11 -5 21 -10 21 -5 0 -7 -6 -4 -14z"/>
<path d="M1515 2218 l0 -63 68 -2 67 -3 0 65 0 65 -68 0 -68 0 1 -62z"/>
<path d="M1692 2218 l3 -63 68 -2 67 -2 0 64 0 65 -70 0 -71 0 3 -62z"/>
<path d="M1225 2195 c-219 -57 -362 -142 -406 -240 -66 -148 105 -297 426
-371 94 -21 94 -21 156 -28 30 -3 65 -8 79 -11 36 -8 334 -8 405 0 33 3 87 11
120 16 33 6 77 13 98 16 21 3 40 10 44 16 3 6 1 7 -4 4 -29 -18 -310 -27 -463
-14 -88 7 -258 34 -273 44 -4 3 -23 7 -40 10 -44 7 -148 47 -218 84 -73 39
-143 113 -160 168 -33 110 67 217 281 298 100 38 82 41 -45 8z"/>
<path d="M2678 2144 c-9 -99 -43 -131 -145 -137 -49 -2 -47 -10 4 -14 111 -9
140 -43 142 -167 1 -54 7 -43 15 27 4 32 12 69 18 82 12 28 61 53 106 57 47 3
39 15 -14 21 -67 7 -95 39 -109 124 l-11 68 -6 -61z"/>
<path d="M1374 2048 c-2 -111 -41 -158 -133 -158 -55 0 -59 -14 -4 -17 83 -4
129 -45 136 -120 5 -63 13 -61 20 3 9 83 40 110 135 117 33 2 27 17 -8 17 -83
0 -130 52 -133 146 -1 51 -12 60 -13 12z"/>
<path d="M2035 2062 c-30 -11 -60 -30 -55 -35 3 -2 84 -31 180 -65 96 -33 188
-65 204 -71 37 -15 42 -9 26 29 -30 74 -150 140 -265 146 -38 2 -79 0 -90 -4z"/>
<path d="M2865 2000 c-3 -6 1 -7 9 -4 18 7 21 14 7 14 -6 0 -13 -4 -16 -10z"/>
<path d="M1951 1965 c-50 -52 -148 -101 -296 -151 -17 -5 -13 -8 20 -18 55
-17 141 -11 206 13 51 19 53 20 29 1 -14 -10 -45 -24 -70 -31 -59 -16 -69 -26
-32 -34 62 -13 127 -7 167 15 29 16 36 18 25 5 -7 -9 -27 -23 -44 -32 -28 -15
-29 -17 -11 -24 11 -4 41 -8 67 -8 45 -1 60 8 64 36 1 6 7 19 12 29 8 14 10 8
10 -29 -1 -54 20 -91 68 -118 36 -20 46 -16 34 17 -16 42 -11 51 9 18 22 -36
63 -68 117 -90 l36 -15 -21 30 c-21 29 -55 111 -46 111 3 0 14 -18 26 -41 33
-66 84 -109 165 -139 l26 -10 -21 32 c-68 104 -123 249 -115 304 2 12 -2 27
-9 33 -15 12 -353 131 -370 130 -7 0 -27 -16 -46 -34z"/>
<path d="M2748 1721 c-8 -56 -23 -70 -84 -80 l-49 -7 53 -8 c44 -7 55 -13 67
-36 8 -16 16 -44 16 -62 l2 -33 4 30 c10 74 30 94 113 108 16 3 10 5 -16 6
-55 1 -83 26 -92 81 l-8 45 -6 -44z"/>
<path d="M1215 1462 c58 -54 317 -141 465 -156 25 -2 74 -8 110 -12 113 -12
435 -5 483 11 7 2 29 7 50 10 78 11 178 37 254 66 72 28 163 75 163 84 0 2
-25 -5 -55 -15 -185 -64 -452 -98 -745 -95 -160 2 -204 5 -325 21 -99 13 -313
58 -350 74 -39 16 -60 21 -50 12z"/>
<path d="M1110 1426 c0 -45 -38 -75 -105 -85 -48 -7 -52 -9 -22 -10 76 -2 127
-39 127 -90 0 -34 17 -24 24 14 8 43 38 64 103 74 l48 7 -55 7 c-62 7 -100 39
-100 83 0 13 -4 24 -10 24 -5 0 -10 -11 -10 -24z"/>
<path d="M1110 1199 c0 -5 5 -7 10 -4 6 3 10 8 10 11 0 2 -4 4 -10 4 -5 0 -10
-5 -10 -11z"/>
<path d="M1970 1171 c0 -17 -6 -47 -14 -66 -14 -34 -41 -47 -116 -59 -21 -3
-20 -3 6 -5 82 -3 123 -42 125 -118 1 -37 2 -36 13 14 15 70 34 90 93 98 66 9
74 13 31 15 -21 2 -41 3 -45 4 -52 12 -69 33 -78 97 -8 54 -15 63 -15 20z"/>
</g>
</svg>
