<svg xmlns="http://www.w3.org/2000/svg" width="92" height="73" fill="none">
  <path fill="#E6BA95" d="M70.7954 23.5199c-5.9317.1733-6.0774.3132-6.26 5.9415-.1825-5.6283-.3299-5.7682-6.26-5.9415 5.9301-.1732 6.0775-.3131 6.26-5.9415.1826 5.6284.3283 5.7683 6.26 5.9415ZM32.0467 39.5098c-4.8684.1431-4.989.2575-5.1397 4.8782-.149-4.6207-.2696-4.7351-5.138-4.8782 4.8684-.1414 4.989-.2559 5.138-4.8765.1507 4.6206.2713 4.7351 5.1397 4.8765Z"/>
  <mask id="a" width="11" height="11" x="42" y="41" maskUnits="userSpaceOnUse" style="mask-type:luminance">
    <path fill="#fff" d="M42.1353 41.5331h10.718v9.7372h-10.718v-9.7372Z"/>
  </mask>
  <g mask="url(#a)">
    <path fill="#fff" d="M52.6267 46.4638c-4.8683.1431-4.9889.2575-5.1396 4.8782-.1491-4.6207-.2696-4.7351-5.138-4.8782 4.8684-.1414 4.9889-.2559 5.138-4.8765.1507 4.6206.2713 4.7351 5.1396 4.8765Z"/>
  </g>
  <path fill="#fff" d="M70.3962 32.3366c-3.9892.116-4.088.2098-4.2119 3.996-.1222-3.7862-.221-3.88-4.2102-3.996 3.9892-.116 4.088-.2114 4.2102-3.9975.1239 3.7861.2227 3.8815 4.2119 3.9975Z"/>
  <path fill="#E6BA95" d="M52.0523 18.125c-2.8855.0827-2.9558.151-3.0446 2.8897-.0888-2.7387-.1608-2.807-3.0463-2.8897 2.8855-.0842 2.9575-.1526 3.0463-2.8912.0888 2.7386.1591 2.807 3.0446 2.8912Z"/>
  <path fill="#fff" d="M39.4299 26.3934c-5.9318.1733-6.0791.3131-6.26 5.9431-.1825-5.63-.3299-5.7698-6.2617-5.9431 5.9318-.1717 6.0792-.3115 6.2617-5.9415.1809 5.63.3282 5.7698 6.26 5.9415Z"/>
  <mask id="b" width="34" height="19" x="19" y="17" maskUnits="userSpaceOnUse" style="mask-type:luminance">
    <path fill="#fff" d="M19.3491 17.9324h33.0753v17.0901H19.3491V17.9324Z"/>
  </mask>
  <g mask="url(#b)">
    <path fill="#fff" d="M23.5349 25.2778c0 4.6969 9.4671 8.5053 21.1464 8.5053 2.5924 0 5.0743-.1875 7.3703-.5309-3.3226.8727-7.2916 1.3813-11.557 1.3813-11.6794 0-21.1465-3.8084-21.1465-8.5053 0-3.6527 5.7309-6.7697 13.7761-7.9729-5.7744 1.518-9.5893 4.1422-9.5893 7.1225Z"/>
  </g>
  <path fill="#E6BA95" d="M47.4863 39.1206c7.0555 0 13.4998-1.0522 18.4133-2.788-3.6324 2.5782-10.5171 4.3203-18.4133 4.3203s-14.7808-1.7421-18.4116-4.3203c4.9136 1.7358 11.3578 2.788 18.4116 2.788Z"/>
  <path fill="#fff" d="M39.6524 15.7915h-3.2071v-3.0438h3.2071v3.0438ZM43.8858 15.7915h-3.2071v-3.0438h3.2071v3.0438ZM39.6524 19.8702h-3.2071v-3.0439h3.2071v3.0439ZM43.8858 19.8702h-3.2071v-3.0439h3.2071v3.0439Z"/>
  <mask id="c" width="17" height="9" x="57" y="11" maskUnits="userSpaceOnUse" style="mask-type:luminance">
    <path fill="#fff" d="M57.9995 11.4222h15.0488v8.5451H57.9995v-8.5451Z"/>
  </mask>
  <g mask="url(#c)">
    <path fill="#fff" d="m73.068 19.9179-14.1093-8.3448-.8859 2.3397 14.9952 6.0051Z"/>
  </g>
  <mask id="d" width="36" height="20" x="21" y="0" maskUnits="userSpaceOnUse" style="mask-type:luminance">
    <path fill="#fff" d="M21.5557 0h35.1552v19.9671H21.5557V0Z"/>
  </mask>
  <g mask="url(#d)">
    <path fill="#fff" d="M56.5852 10.1695 39.4296.0222 21.9072 19.9178 39.4296 6.4469l16.119 6.4549 1.0366-2.7323Z"/>
  </g>
  <path fill="#E6BA95" d="M57.1097 26.9356c.0017-.0064 0-.0175-.0017-.0302-.0218-.1367-.1943-.2829-.4136-.3592l-8.4321-2.9724c-.2178-.0763-.4438-.0731-.5577.0159a.114.114 0 0 0-.0251.0223c-1.8824 2.8054-8.2513 4.5157-8.2513 4.5157 1.318.4959 2.7616.6676 3.897.453 2.487-.4705 3.5839-1.4528 3.5839-1.4528-.8692 1.6149-3.9188 2.1029-4.3743 2.1665l.0201.0079c1.5072.5643 3.13.6581 4.2185.2512 1.3214-.4943 1.9142-1.0554 1.9142-1.0554-.4119.8249-1.3548 1.4067-2.2893 1.7198-.5007.1669 3.3243 1.2303 3.408-.1749.0369-.6024.3484-1.2.8658-1.6451 0 0-.5509.9744-.1842 2.5527.1893.8186 1.2175 1.6785 2.5389 2.122l.0217.008c-.3734-.7805-.6162-1.6674-.3868-2.4558 0 0 .0134.1653.0871.4546.3131 1.2287 1.8823 2.5305 3.8719 3.1901l.0284.0095c-.6347-.7788-1.9074-2.5749-1.5323-4.0325 0 0 .1055.9855 1.035 2.4097.7536 1.1555 2.3177 2.2252 4.1046 2.8134 0 0-3.8333-5.1071-3.1467-8.534ZM53.9758 22.6151l.0033-.0095-1.1589-.3958c-2.1603-.6008-4.2369-.3417-5.3339.6024l10.1638 3.5811c-.1826-1.4035-1.596-2.8976-3.6743-3.7782ZM52.8784 21.8428l1.3029.4451 4.587-12.1055c.1524-.0954.2764-.2353.3433-.4117l2.0683-5.4599c.1624-.4292-.072-.9012-.5242-1.0554-.4505-.1542-.9479.0683-1.1103.4975l-2.0699 5.4599a.7838.7838 0 0 0-.0101.5245l-4.587 12.1055Z"/>
  <path fill="#fff" d="M4.5054 62.2853c1.735 0 3.82-.7057 3.82-3.0152 0-2.0203-1.5742-2.4765-3.0178-2.7816-1.1371-.2353-2.172-.345-2.172-1.2446 0-.6358.5107-.9553 1.2827-.9553.7285 0 1.298.2782 1.457 1.0523.0302.1796.1323.2622.3065.2622H7.756c.1892 0 .2914-.0969.278-.2893-.1608-1.9232-1.9108-2.7116-3.5721-2.7116-1.7334 0-3.5119.8853-3.5119 2.9326 0 1.715 1.2527 2.2125 2.4334 2.5177 1.3565.3449 2.7548.4006 2.7548 1.5212 0 .7756-.685 1.0236-1.4134 1.0236-.9479 0-1.6613-.4292-1.7936-1.2859-.0134-.1669-.1156-.2639-.2914-.2639H.935c-.1893 0-.2914.097-.2914.2782.1172 2.1013 1.9526 2.9596 3.8618 2.9596ZM13.6298 55.9083c-.8457 0-1.5307.3592-1.9678.8774v-2.3858c0-1.4242-.772-2.3509-2.1854-2.629v10.0996c0 .1796.1021.2765.2914.2765h1.6026c.1893 0 .2914-.0969.2914-.2765v-2.7673c0-.8297.5393-1.5212 1.2242-1.5212.685 0 .9764.3879.9764 1.1063v3.1822c0 .1796.1022.2765.2931.2765h1.6027c.1892 0 .2914-.0969.2914-.2765v-3.1822c0-1.6594-.7001-2.78-2.42-2.78ZM18.3387 54.8433c.7871 0 1.6027-.3735 1.6027-1.1205 0-.7344-.8156-1.1206-1.6027-1.1206-.8021 0-1.6043.3862-1.6043 1.1206 0 .747.8022 1.1205 1.6043 1.1205Zm.9027 7.3037c.1892 0 .2914-.0969.2914-.2765v-3.3348c0-1.4242-.772-2.3508-2.1855-2.6274v5.9622c0 .1796.1022.2765.2914.2765h1.6027ZM24.9836 55.8258c-.8457 0-1.6328.3529-2.296 1.2795-.3567-.6167-.9847-1.0315-1.8438-1.1968v5.9621c0 .1796.1021.2766.2913.2766h1.6027c.1893 0 .2914-.097.2914-.2766v-3.1615c.0871-.7597.5912-1.2239 1.2108-1.2239.685 0 .9764.4006.9764 1.1206v3.2648c0 .1796.1021.2766.2914.2766h1.6027c.1892 0 .2914-.097.2914-.2766v-3.2648c0-1.6594-.6984-2.78-2.4183-2.78ZM32.1565 55.8258c-2.1571 0-3.7463 1.2859-3.7463 3.2775 0 2.0203 1.5306 3.2648 3.7463 3.2648 1.6026 0 2.8704-.6644 3.3812-2.0472.072-.1939-.0436-.3179-.2479-.3179h-1.6177c-.1608 0-.2479.0826-.3216.2352-.1742.3735-.5962.6501-1.2376.6501-.8172 0-1.3263-.5531-1.385-1.3971h4.6925c.1893 0 .2914-.097.2914-.2766v-.2496c0-2.0186-1.6026-3.1392-3.5553-3.1392Zm-1.4001 2.5448c.1239-.6644.5175-1.1349 1.3264-1.1349.7737 0 1.2677.4705 1.3129 1.1349h-2.6393ZM49.5583 58.1908c-.8826-.2146-1.9176-.4228-3.1552.6151l-1.3414-1.5147c1.2175-.6152 2.4116-1.2732 2.4116-2.4765 0-1.2716-1.2829-2.2125-3.0162-2.2125-1.472 0-3.0027.7057-3.0027 2.2682 0 .7057.3065 1.3208.8156 2.0123-.9981.5817-1.8506 1.3701-1.8506 2.7323 0 1.7166 1.3549 2.6703 3.2942 2.6703 1.0785 0 1.8589-.2909 2.4634-.685l.3199.3814c.0871.1097.2043.1653.35.1653h2.0264c.2479 0 .3349-.1526.1742-.3465l-1.3917-1.5688 1.9025-2.0409Zm-5.0141-4.1231c.5543 0 .8457.3179.8457.7057 0 .5468-.5978.8997-1.3782 1.2652-.2697-.3798-.4438-.747-.4438-1.0983 0-.5404.3935-.8726.9763-.8726Zm-.7436 6.5296c-.7569 0-1.1957-.4562-1.1957-1.065 0-.5261.3065-.933.7654-1.2859l1.6043 1.9154c-.3868.3052-.7218.4355-1.174.4355ZM56.3193 52.7404v.0063c-.0217-.0063-.0435-.0063-.0737-.0063H54.643c-.1893 0-.2914.0969-.2914.2765v9.4066c1.2677-.1383 2.1854-1.1619 2.1854-2.8913v-.747h1.1087c2.579 0 3.5704-1.1349 3.5704-3.0296 0-1.812-.9914-3.0152-3.5704-3.0152h-1.3264Zm.2177 4.2741v-2.4764h.8893c.4672 0 1.6044-.0143 1.6044 1.2175 0 1.2446-1.1522 1.2589-1.6044 1.2589h-.8893ZM65.575 62.3681c2.2876 0 3.6575-1.3415 3.6575-3.2648 0-1.9089-1.3833-3.2775-3.6575-3.2775-2.2877 0-3.6727 1.3686-3.6727 3.2775 0 1.909 1.3699 3.2648 3.6727 3.2648Zm0-1.6181c-.9764 0-1.5022-.72-1.5022-1.6324 0-.9266.5409-1.6737 1.5022-1.6737.9612 0 1.4871.7328 1.4871 1.6737 0 .9267-.5259 1.6324-1.4871 1.6324ZM72.2491 62.147c.1892 0 .2914-.0969.2914-.2765v-7.4706c0-1.4242-.7721-2.3509-2.1855-2.629v10.0996c0 .1796.1021.2765.2914.2765h1.6027ZM74.9481 54.8433c.7871 0 1.6027-.3735 1.6027-1.1205 0-.7344-.8156-1.1206-1.6027-1.1206-.8022 0-1.6043.3862-1.6043 1.1206 0 .747.8021 1.1205 1.6043 1.1205Zm.9027 7.3037c.1892 0 .2914-.0969.2914-.2765v-3.3348c0-1.4242-.7721-2.3508-2.1855-2.6274v5.9622c0 .1796.1021.2765.2914.2765h1.6027ZM80.6311 62.3681c2.0549 0 3.2506-.8154 3.2506-2.2268 0-2.5178-4.3006-1.5625-4.3006-2.6291 0-.2066.2194-.4005.7301-.4005.6264 0 .9328.1939 1.107.5531.0737.1526.1759.2353.335.2353h1.5608c.2026 0 .3048-.1113.2612-.3036-.3198-1.1905-1.4419-1.7707-3.1484-1.7707-1.9812 0-3.0463.7884-3.0463 1.963 0 2.4637 4.3006 1.4115 4.3006 2.5464 0 .3449-.3215.5944-1.0065.5944-.3935 0-1.194-.1382-1.3699-.7883-.0435-.1653-.1306-.2623-.3064-.2623h-1.5876c-.1893 0-.3065.1097-.278.2893.278 1.5354 1.6479 2.1998 3.4984 2.1998ZM89.143 55.9083c-.8457 0-1.5307.3592-1.9678.8774v-2.3858c0-1.4242-.772-2.3509-2.1855-2.629v10.0996c0 .1796.1022.2765.2914.2765h1.6027c.1893 0 .2914-.0969.2914-.2765v-2.7673c0-.8297.5393-1.5212 1.2242-1.5212.685 0 .9764.3879.9764 1.1063v3.1822c0 .1796.1021.2765.2931.2765h1.6026c.1893 0 .2914-.0969.2914-.2765v-3.1822c0-1.6594-.7-2.78-2.4199-2.78ZM25.2426 72.7808c-.2194 0-.422-.0508-.6096-.1526-.1875-.1049-.3383-.2479-.4488-.4259a1.1406 1.1406 0 0 1-.1608-.5913c0-.2114.0536-.4069.1608-.585.1105-.1812.2613-.3258.4488-.4323a1.2283 1.2283 0 0 1 .6096-.1589c.2546 0 .4773.0667.6699.197.1909.132.3366.3116.4354.5405h-.2947a.8939.8939 0 0 0-.335-.3561c-.139-.089-.2981-.1335-.4756-.1335-.1658 0-.3215.0429-.4689.1272a.9098.9098 0 0 0-.3416.3306c-.0804.1399-.1206.2972-.1206.4705 0 .1701.0402.3274.1206.4705a.9519.9519 0 0 0 .3416.3369.9558.9558 0 0 0 .4689.1208c.1876 0 .35-.0445.489-.1335a.9366.9366 0 0 0 .335-.356h.2947c-.0988.2257-.2445.4037-.4354.534-.1926.132-.4204.1971-.6833.1971ZM29.1547 72.7493h-1.1991v-2.2762h.2746v2.0346h.9245v.2416ZM31.01 71.6939v.8138h1.0249v.2416h-1.2995v-2.2762h1.266v.2416H31.01v.7312h.9579v.248H31.01ZM35.6203 72.7493h-.2948l-.2612-.6167h-1.0585l-.2612.6167h-.2881l.9781-2.2762h.2076l.9781 2.2762Zm-.6565-.8647-.4288-1.0236-.4287 1.0236h.8575ZM38.937 72.2661v-1.793h.268v2.2762h-.1742L37.4164 70.95v1.7993h-.268v-2.2762h.1675l1.6211 1.793ZM41.2781 72.7493h-.2747v-2.2762h.2747v2.2762ZM44.8716 72.2661v-1.793h.2679v2.2762h-.1741L43.351 70.95v1.7993h-.268v-2.2762h.1675l1.6211 1.793ZM47.9354 71.5474h1.2728v.0954c0 .2082-.0519.3989-.1541.5722-.0988.1701-.2395.3083-.422.4132-.1792.1018-.3819.1526-.6096.1526-.2278 0-.4388-.0508-.6297-.1526-.1876-.1049-.3383-.2479-.4488-.4259a1.1406 1.1406 0 0 1-.1608-.5913c0-.2114.0536-.4069.1608-.585.1105-.1812.2612-.3258.4488-.4323.1909-.1049.4019-.1589.6297-.1589.2579 0 .4856.0683.6833.2034.2009.1319.35.31.4488.5341h-.2948c-.077-.1526-.1909-.2702-.3416-.3561-.1474-.089-.3132-.1335-.4957-.1335a.955.955 0 0 0-.4823.1272.91.91 0 0 0-.3417.3306c-.0854.1399-.1272.2972-.1272.4705 0 .1701.0418.3274.1272.4705a.9522.9522 0 0 0 .3417.3369c.1473.0811.3081.1208.4823.1208.1557 0 .2981-.0286.4287-.089.129-.0636.2345-.1526.3148-.267a.7698.7698 0 0 0 .1474-.3942h-.978v-.2416ZM54.4357 71.4459v-.9728h.2747v2.2762h-.2747v-1.0554h-1.266v1.0554h-.2747v-2.2762h.2747v.9728h1.266ZM57.5947 72.7808c-.2277 0-.4387-.0508-.6296-.1526-.1876-.1049-.3383-.2479-.4489-.4259a1.1415 1.1415 0 0 1-.1607-.5913c0-.2114.0536-.4069.1607-.585.1106-.1812.2613-.3258.4489-.4323.1909-.1049.4019-.1589.6296-.1589.2278 0 .4355.054.623.1589.1909.1065.3417.2511.4489.4323.1105.1781.1674.3736.1674.585 0 .213-.0569.4101-.1674.5913-.1072.178-.258.321-.4489.4259-.1875.1018-.3952.1526-.623.1526Zm0-.2416c.1742 0 .3316-.0397.4757-.1208a.9585.9585 0 0 0 .3483-.3369.918.918 0 0 0 .1273-.4705c0-.1733-.0436-.3306-.1273-.4705-.0854-.1399-.201-.2496-.3483-.3306-.1441-.0843-.3015-.1272-.4757-.1272a.9555.9555 0 0 0-.4823.1272.9098.9098 0 0 0-.3416.3306c-.0854.1399-.1273.2972-.1273.4705 0 .1701.0419.3274.1273.4705a.9519.9519 0 0 0 .3416.3369c.1474.0811.3082.1208.4823.1208ZM61.3459 72.7811c-.1792 0-.3383-.035-.4756-.1081a.7775.7775 0 0 1-.3149-.3052c-.072-.1351-.1072-.2877-.1072-.4578v-1.4369h.268V71.91c0 .1876.0553.3402.1675.4578.1155.1145.2696.1717.4622.1717.1909 0 .3433-.0572.4555-.1717.1105-.1176.1675-.2702.1675-.4578v-1.4369h.2746V71.91c0 .1701-.0385.3227-.1139.4578-.072.1319-.1775.2337-.3148.3052-.134.0731-.2914.1081-.4689.1081ZM64.6494 72.7808c-.1658 0-.3081-.0302-.4287-.089-.1206-.0588-.2144-.1398-.2814-.2416-.0636-.1049-.0971-.2225-.1004-.3497h.2746c.0034.1272.0536.2337.1474.3179.0938.0811.2227.1208.3885.1208.1474 0 .2646-.0333.3551-.1017.0887-.0668.1339-.1589.1339-.2734 0-.089-.0251-.1605-.0737-.2162a.54.54 0 0 0-.1875-.1398c-.072-.0334-.1708-.0668-.2948-.1018-.1524-.0508-.2729-.0969-.3617-.1398-.0904-.0414-.1658-.1049-.2278-.1908-.0636-.0842-.0937-.1971-.0937-.3369 0-.1097.0301-.2099.0937-.2989.062-.0922.1491-.1669.2613-.2225.1155-.054.2445-.0826.3885-.0826.134 0 .2563.0302.3685.089.1105.0556.1976.1319.2612.2289.067.0985.1022.2034.1072.3178h-.2747c-.005-.1144-.0519-.2066-.1406-.2797-.0905-.0715-.201-.1081-.335-.1081-.1306 0-.2378.0318-.3215.0954-.0854.0604-.1273.1462-.1273.2607 0 .0858.0218.1557.067.2098a.5901.5901 0 0 0 .1809.1271c.0703.0302.1674.0636.288.1018.1474.0476.268.0937.3617.1398a.6336.6336 0 0 1 .2412.2035c.067.0858.1005.2003.1005.3433a.5485.5485 0 0 1-.1005.3179c-.067.0938-.1591.1685-.2746.2225-.1173.0509-.2479.0763-.3953.0763ZM67.3269 71.6939v.8138h1.0249v.2416h-1.2996v-2.2762h1.2661v.2416h-.9914v.7312h.9579v.248h-.9579Z"/>
</svg>
