<svg width="42" height="42" viewBox="0 0 42 42" fill="none" xmlns="http://www.w3.org/2000/svg">
<g id="Do not disturb on">
<path id="Vector" d="M12.6 23.6906H29.4525C30.0475 23.6906 30.5375 23.4953 30.9225 23.1047C31.3075 22.7155 31.5 22.2327 31.5 21.6562C31.5 21.0798 31.2984 20.5963 30.8952 20.2057C30.4934 19.8165 29.995 19.6219 29.4 19.6219H12.5475C11.9525 19.6219 11.4625 19.8165 11.0775 20.2057C10.6925 20.5963 10.5 21.0798 10.5 21.6562C10.5 22.2327 10.7009 22.7155 11.1027 23.1047C11.5059 23.4953 12.005 23.6906 12.6 23.6906ZM21 42C18.095 42 15.365 41.4656 12.81 40.3969C10.255 39.3295 8.0325 37.8804 6.1425 36.0495C4.2525 34.2185 2.7566 32.0655 1.6548 29.5903C0.5516 27.1152 0 24.4705 0 21.6562C0 18.842 0.5516 16.1973 1.6548 13.7222C2.7566 11.247 4.2525 9.09398 6.1425 7.26305C8.0325 5.43211 10.255 3.98228 12.81 2.91355C15.365 1.84618 18.095 1.3125 21 1.3125C23.905 1.3125 26.635 1.84618 29.19 2.91355C31.745 3.98228 33.9675 5.43211 35.8575 7.26305C37.7475 9.09398 39.2434 11.247 40.3452 13.7222C41.4484 16.1973 42 18.842 42 21.6562C42 24.4705 41.4484 27.1152 40.3452 29.5903C39.2434 32.0655 37.7475 34.2185 35.8575 36.0495C33.9675 37.8804 31.745 39.3295 29.19 40.3969C26.635 41.4656 23.905 42 21 42ZM21 37.9312C25.655 37.9312 29.6191 36.3465 32.8923 33.1769C36.1641 30.006 37.8 26.1658 37.8 21.6562C37.8 17.1467 36.1641 13.3065 32.8923 10.1356C29.6191 6.96603 25.655 5.38125 21 5.38125C16.345 5.38125 12.3816 6.96603 9.1098 10.1356C5.8366 13.3065 4.2 17.1467 4.2 21.6562C4.2 26.1658 5.8366 30.006 9.1098 33.1769C12.3816 36.3465 16.345 37.9312 21 37.9312Z" fill="url(#paint0_linear_508_3493)" fill-opacity="0.5"/>
</g>
<defs>
<linearGradient id="paint0_linear_508_3493" x1="21" y1="1.3125" x2="21" y2="42" gradientUnits="userSpaceOnUse">
<stop stop-color="#006778"/>
<stop offset="1" stop-color="#00BFDE"/>
</linearGradient>
</defs>
</svg>
