<svg width="42" height="42" viewBox="0 0 42 42" fill="none" xmlns="http://www.w3.org/2000/svg">
<path id="Vector" d="M21 10.5C19.845 10.5 18.9 11.445 18.9 12.6V18.9H12.6C11.445 18.9 10.5 19.845 10.5 21C10.5 22.155 11.445 23.1 12.6 23.1H18.9V29.4C18.9 30.555 19.845 31.5 21 31.5C22.155 31.5 23.1 30.555 23.1 29.4V23.1H29.4C30.555 23.1 31.5 22.155 31.5 21C31.5 19.845 30.555 18.9 29.4 18.9H23.1V12.6C23.1 11.445 22.155 10.5 21 10.5ZM21 0C9.429 0 0 9.429 0 21C0 32.571 9.429 42 21 42C32.571 42 42 32.571 42 21C42 9.429 32.571 0 21 0ZM21 37.8C11.739 37.8 4.2 30.261 4.2 21C4.2 11.739 11.739 4.2 21 4.2C30.261 4.2 37.8 11.739 37.8 21C37.8 30.261 30.261 37.8 21 37.8Z" fill="url(#paint0_linear_508_3491)" fill-opacity="0.5"/>
<defs>
<linearGradient id="paint0_linear_508_3491" x1="21" y1="0" x2="21" y2="42" gradientUnits="userSpaceOnUse">
<stop stop-color="#006778"/>
<stop offset="1" stop-color="#00BFDE"/>
</linearGradient>
</defs>
</svg>
