<?xml version="1.0" standalone="no"?>
<!DOCTYPE svg PUBLIC "-//W3C//DTD SVG 20010904//EN"
 "http://www.w3.org/TR/2001/REC-SVG-20010904/DTD/svg10.dtd">
<svg version="1.0" xmlns="http://www.w3.org/2000/svg"
 width="640.000000pt" height="488.000000pt" viewBox="0 0 640.000000 488.000000"
 preserveAspectRatio="xMidYMid meet">
<metadata>
Created by potrace 1.16, written by Peter Selinger 2001-2019
</metadata>
<g transform="translate(0.000000,488.000000) scale(0.100000,-0.100000)"
fill="#000000" stroke="none">
<path d="M5735 4870 c-38 -5 -95 -12 -125 -15 -30 -3 -66 -8 -80 -10 -14 -2
-47 -6 -73 -10 -27 -4 -58 -8 -69 -10 -11 -2 -52 -9 -91 -15 -109 -15 -137
-20 -192 -30 -27 -5 -66 -12 -85 -15 -19 -3 -71 -13 -115 -21 -44 -9 -95 -17
-114 -19 -19 -3 -60 -10 -90 -16 -31 -7 -65 -13 -76 -15 -11 -1 -31 -5 -45 -7
-14 -3 -45 -8 -70 -12 -25 -3 -79 -13 -120 -21 -41 -9 -97 -18 -125 -21 -30
-3 -57 -13 -68 -24 -22 -23 -35 -25 -16 -2 13 15 11 16 -16 9 -16 -4 -41 -8
-55 -10 -14 -2 -27 -5 -30 -6 -3 -1 -15 -1 -27 -1 -11 1 -24 -2 -27 -8 -4 -6
-14 -7 -23 -4 -9 4 -14 2 -11 -3 4 -5 -12 -9 -35 -8 -23 0 -62 -5 -87 -11 -25
-6 -51 -10 -57 -8 -7 3 -13 0 -13 -6 0 -6 -7 -7 -17 -4 -11 4 -14 3 -9 -5 4
-7 3 -12 -3 -12 -5 0 -12 6 -14 13 -4 9 -8 8 -16 -3 -7 -10 -11 -11 -11 -3 0
9 -7 10 -27 2 -16 -6 -29 -10 -30 -10 -2 1 -6 0 -10 -1 -5 0 -21 -2 -38 -4
-16 -1 -48 -5 -70 -8 -36 -6 -90 -13 -123 -18 -8 -1 -12 -12 -10 -26 2 -15 -3
-27 -11 -30 -8 -3 -11 0 -7 7 4 6 2 11 -3 11 -6 0 -11 5 -11 11 0 5 5 7 10 4
6 -3 10 -1 10 5 0 11 -44 9 -55 -2 -3 -3 -21 -3 -40 -1 -23 2 -35 -1 -35 -9 0
-9 -3 -9 -12 0 -7 7 -19 12 -27 12 -10 0 -5 -7 12 -18 18 -11 25 -22 21 -32
-4 -8 -7 -23 -8 -33 0 -11 -6 -15 -14 -12 -7 3 -17 5 -20 5 -4 0 0 5 8 11 12
9 12 10 -4 5 -11 -4 -26 0 -37 10 -18 16 -19 16 -19 1 0 -10 7 -17 15 -17 8 0
15 -7 15 -15 0 -8 3 -14 8 -13 13 4 52 -22 52 -35 0 -8 -3 -7 -9 2 -5 8 -16
11 -26 8 -9 -4 -14 -3 -10 3 3 6 2 10 -3 10 -14 0 -22 -25 -15 -49 3 -12 10
-18 17 -14 14 9 36 13 36 6 0 -2 -5 -13 -10 -24 -9 -16 -14 -17 -32 -8 -18 10
-20 9 -15 -4 4 -11 2 -14 -8 -10 -8 3 -12 10 -8 17 12 19 12 36 0 36 -7 0 -23
3 -37 6 -20 4 -22 3 -10 -5 10 -7 11 -11 3 -11 -7 0 -13 -7 -13 -15 0 -8 5
-15 11 -15 5 0 8 4 4 9 -7 12 12 24 24 17 5 -4 4 -16 -2 -30 -8 -16 -14 -21
-19 -13 -5 8 -8 6 -8 -5 0 -10 4 -18 10 -18 5 0 6 -7 3 -17 -4 -11 -3 -14 5
-9 7 4 12 3 12 -3 0 -6 -11 -13 -25 -17 -28 -7 -35 -27 -8 -22 10 2 18 -2 18
-9 0 -6 3 -14 7 -18 3 -4 5 1 4 12 -2 10 3 31 11 47 8 15 10 25 4 22 -7 -4
-11 1 -11 13 0 12 5 21 11 21 5 0 8 -4 5 -8 -7 -12 28 -11 35 0 4 6 9 -2 13
-16 6 -23 9 -25 26 -16 13 7 20 7 20 1 0 -6 -11 -13 -25 -17 -14 -3 -22 -11
-18 -17 3 -6 1 -7 -6 -3 -6 4 -9 16 -6 27 8 26 -21 26 -35 0 -7 -14 -6 -21 3
-24 7 -4 6 -6 -4 -6 -9 -1 -16 -9 -16 -18 0 -40 -4 -54 -12 -48 -5 3 -12 1
-15 -4 -11 -16 27 -22 44 -6 13 12 23 13 41 6 20 -8 21 -10 5 -10 -11 -1 -17
-4 -14 -7 3 -3 3 -17 -1 -32 -5 -18 -3 -30 6 -37 7 -6 9 -15 5 -22 -6 -10 -14
-9 -36 2 -15 8 -32 12 -37 9 -14 -9 -10 11 7 32 8 10 13 14 10 7 -8 -14 20
-43 42 -43 13 0 12 3 -6 16 -21 15 -32 42 -12 29 6 -3 10 0 11 7 0 7 2 21 4
31 2 9 0 17 -5 17 -13 0 -30 -26 -22 -35 4 -5 1 -5 -7 0 -8 4 -17 2 -23 -6 -8
-11 -9 -10 -4 4 3 10 0 17 -7 17 -7 0 -18 5 -25 12 -13 13 -82 18 -82 6 0 -5
7 -8 16 -8 14 0 15 -2 3 -17 -12 -15 -12 -16 1 -8 30 19 87 14 74 -6 -3 -5
-11 -6 -17 -2 -7 4 -6 0 2 -10 7 -9 18 -14 25 -10 6 3 3 -3 -7 -14 -10 -12
-15 -23 -10 -25 4 -3 3 -3 -4 -2 -19 5 -66 -23 -53 -31 6 -4 17 -2 24 4 14 11
26 5 26 -13 0 -6 -5 -4 -10 4 -8 12 -10 12 -10 1 0 -8 -7 -11 -20 -8 -11 3
-22 2 -25 -3 -6 -10 24 -22 36 -14 5 3 19 -2 31 -10 12 -9 18 -16 12 -16 -5 0
-16 6 -23 13 -10 10 -16 8 -30 -10 -10 -12 -21 -20 -25 -18 -3 3 -2 0 2 -6 5
-5 18 -11 29 -11 11 -1 20 -10 20 -21 1 -12 -3 -17 -13 -13 -8 3 -14 0 -14 -6
0 -6 -3 -8 -6 -5 -4 4 -1 15 7 24 7 10 9 15 4 10 -4 -4 -20 0 -34 10 -26 16
-26 16 -8 -4 12 -14 15 -23 7 -28 -5 -3 -8 -11 -5 -16 4 -5 1 -9 -4 -9 -6 0
-11 -7 -11 -15 0 -8 -4 -15 -10 -15 -5 0 -10 5 -10 10 0 6 -5 10 -12 10 -6 0
-8 -3 -5 -7 8 -7 -11 -33 -24 -33 -5 0 -9 8 -9 18 0 14 -2 15 -10 2 -10 -15
-10 -14 -10 38 0 4 5 7 10 7 11 0 14 9 8 27 -3 7 -12 9 -22 5 -11 -4 -16 -13
-12 -22 3 -8 0 -15 -7 -15 -8 0 -6 -4 3 -10 10 -7 11 -10 2 -10 -10 0 -10 -4
0 -20 7 -11 18 -20 25 -20 7 0 27 -14 45 -31 18 -17 27 -28 21 -24 -7 3 -13 1
-13 -4 0 -6 9 -11 21 -11 17 0 19 4 13 22 -6 20 -5 21 9 9 9 -7 15 -17 12 -21
-3 -5 -1 -10 4 -12 4 -1 5 -12 0 -23 -7 -19 -8 -19 -8 3 -1 13 -5 20 -11 17
-6 -4 -21 -8 -34 -11 -20 -3 -23 0 -22 23 1 14 -5 28 -11 30 -7 3 -13 0 -13
-7 0 -6 4 -9 9 -5 6 3 9 -4 8 -15 -1 -11 -5 -20 -9 -20 -4 0 -5 -7 -2 -15 5
-12 2 -14 -12 -8 -17 6 -17 5 -5 -10 8 -11 9 -17 3 -17 -6 0 -18 12 -26 28 -9
15 -15 21 -16 12 0 -9 4 -20 10 -26 13 -13 1 -56 -14 -47 -6 3 -6 0 2 -8 15
-16 16 -29 1 -29 -5 0 -7 5 -3 11 4 7 1 10 -7 7 -8 -3 -15 -11 -15 -19 -1 -8
-3 -17 -4 -21 -1 -5 -3 -11 -4 -15 -1 -5 -5 -14 -9 -21 -6 -8 3 -17 27 -27 20
-9 36 -21 36 -28 0 -8 -3 -8 -9 2 -5 7 -13 11 -19 7 -6 -3 -12 0 -15 6 -2 7
-8 10 -12 6 -4 -4 -3 -14 4 -22 9 -11 9 -15 -1 -18 -7 -3 -12 -18 -10 -37 2
-26 -1 -32 -13 -27 -20 7 -19 -4 2 -19 15 -11 14 -15 -13 -40 -17 -17 -22 -26
-11 -22 11 4 17 1 17 -9 0 -8 -4 -12 -10 -9 -5 3 -10 1 -10 -5 0 -6 -12 -3
-27 7 -17 12 -24 13 -19 4 7 -10 3 -12 -15 -6 -13 4 -28 12 -34 17 -7 7 -3 8
10 4 11 -3 26 -1 34 3 10 7 0 9 -30 7 -24 -1 -52 1 -61 6 -11 5 -18 5 -18 -2
0 -5 7 -11 15 -11 30 -3 34 -4 47 -16 6 -7 18 -13 25 -13 8 0 16 -7 19 -15 4
-8 10 -12 15 -9 5 3 7 10 4 15 -13 20 11 7 28 -15 11 -15 26 -23 38 -21 10 2
18 -1 16 -8 -1 -7 4 -11 11 -9 14 2 15 -7 2 -28 -7 -11 -10 -12 -10 -2 0 21
-27 45 -33 29 -4 -8 -6 -8 -6 2 -1 10 -7 7 -20 -7 -10 -12 -22 -18 -26 -14 -5
4 -5 1 -1 -6 6 -10 11 -10 22 -1 8 6 17 9 21 5 3 -3 0 -6 -8 -6 -12 0 -11 -2
1 -10 11 -7 6 -9 -17 -6 -18 2 -30 0 -28 -5 3 -4 1 -10 -5 -14 -6 -4 -7 -11
-4 -17 4 -5 -4 -4 -17 3 -21 11 -22 10 -12 -2 8 -10 9 -20 3 -29 -7 -11 -10
-12 -10 -2 0 7 -4 10 -10 7 -13 -8 -13 -3 0 30 9 23 13 25 25 15 10 -9 15 -9
15 -1 0 10 -7 13 -26 10 -14 -2 -23 26 -11 33 9 6 8 8 -3 8 -13 0 -13 1 0 10
8 5 11 12 7 16 -3 4 -15 1 -24 -7 -17 -13 -17 -13 -3 5 11 15 11 18 1 12 -10
-7 -12 -3 -6 15 4 13 4 21 0 17 -12 -12 -15 -62 -3 -69 7 -4 6 -14 -3 -30 -11
-21 -10 -22 3 -12 13 11 15 9 12 -15 -1 -15 -2 -29 -3 -31 -1 -2 -10 4 -21 14
-11 10 -17 22 -13 28 4 6 1 7 -6 3 -7 -5 -10 -11 -6 -14 3 -3 -5 -12 -17 -19
-23 -13 -22 -13 7 -11 36 2 78 -19 69 -34 -5 -8 -1 -9 12 -4 16 6 16 4 -4 -17
-27 -29 -29 -47 -2 -22 15 14 23 15 33 6 8 -6 17 -8 21 -4 4 4 4 -1 0 -11 -5
-14 -3 -17 7 -14 8 3 13 11 11 17 -1 7 2 10 8 6 8 -5 8 -11 0 -20 -7 -8 -7
-15 -1 -19 5 -4 13 -2 16 4 5 8 12 7 23 -2 12 -10 14 -10 8 0 -7 12 6 17 17 6
12 -12 -5 -32 -24 -27 -10 3 -19 1 -19 -5 0 -5 -7 -13 -16 -16 -12 -5 -15 -2
-10 10 7 19 -43 73 -62 66 -6 -2 -9 -9 -6 -14 4 -7 2 -8 -4 -4 -7 4 -12 2 -12
-3 0 -6 9 -11 19 -11 11 0 22 -4 25 -8 3 -5 -5 -8 -17 -8 -13 1 -29 13 -40 31
-17 29 -17 29 -15 5 3 -22 0 -25 -24 -22 -16 2 -28 -1 -28 -7 0 -6 8 -11 18
-12 13 0 14 -2 2 -6 -8 -3 -23 -13 -33 -21 -16 -14 -17 -14 -12 0 4 9 0 18 -9
21 -12 5 -14 -3 -10 -41 3 -26 7 -53 9 -59 5 -16 25 -17 25 -2 0 5 -5 7 -11 4
-7 -5 -9 3 -7 21 2 17 8 28 16 27 6 -2 12 4 12 12 0 23 30 18 32 -5 0 -11 1
-25 2 -32 1 -6 -6 -13 -14 -15 -12 -4 -12 -3 -2 5 11 7 11 10 -2 15 -11 5 -16
1 -16 -12 0 -21 16 -30 42 -23 10 2 15 10 11 20 -4 13 -3 14 5 4 5 -8 8 -24 6
-38 -3 -31 8 -31 23 1 6 14 7 25 2 25 -4 0 -5 8 -2 17 5 14 8 14 11 2 3 -7 10
-17 16 -21 8 -5 7 -8 -1 -8 -7 0 -10 -7 -7 -17 5 -15 4 -16 -5 -3 -9 13 -11
13 -11 -2 0 -9 -8 -21 -17 -26 -9 -6 -18 -17 -19 -26 -3 -19 -3 -19 30 -6 17
6 26 6 26 0 0 -6 -3 -10 -7 -11 -5 0 -17 -2 -28 -4 -69 -13 -88 -17 -103 -21
-14 -5 -14 -3 2 10 10 8 23 13 29 9 6 -3 7 -1 3 6 -6 9 -14 8 -32 -4 -22 -14
-24 -14 -24 2 0 24 10 38 38 52 15 8 22 8 22 1 0 -6 5 -8 10 -5 6 3 10 -1 10
-9 0 -11 -8 -14 -30 -11 -18 2 -28 0 -24 -6 3 -6 9 -8 12 -5 3 3 11 1 17 -4
14 -12 48 -2 40 10 -3 5 -1 12 5 15 6 4 2 14 -12 24 -21 18 -23 17 -57 -2 -40
-23 -50 -35 -47 -51 2 -6 1 -8 -1 -3 -8 12 -20 8 -20 -8 0 -8 9 -15 20 -15 13
0 17 -5 13 -16 -3 -9 -6 -18 -6 -20 0 -3 -4 -3 -9 0 -5 4 -7 -3 -4 -14 3 -11
9 -17 14 -14 5 3 6 11 3 17 -4 7 -3 8 2 4 5 -5 9 -14 9 -19 0 -6 7 -14 15 -16
11 -4 11 0 -3 21 -16 25 -16 27 2 37 25 13 41 13 41 0 0 -5 -8 -10 -17 -10
-17 -1 -17 -1 0 -11 13 -8 15 -14 7 -30 -6 -10 -17 -19 -24 -19 -18 0 -14 -32
5 -38 8 -3 18 -11 22 -18 4 -8 15 -14 23 -14 8 0 13 -4 9 -10 -3 -5 -13 -6
-23 -3 -13 5 -14 3 -5 -7 6 -7 9 -19 6 -26 -8 -23 26 -29 43 -8 15 18 15 18
10 1 -3 -10 -6 -21 -6 -23 0 -2 -16 -4 -36 -4 l-37 0 6 46 c3 34 1 47 -10 51
-8 3 -19 0 -24 -8 -12 -20 -11 -31 3 -23 7 4 8 3 4 -4 -4 -7 -2 -12 4 -12 6 0
8 -5 5 -10 -9 -14 -36 14 -38 39 -1 12 -7 17 -17 14 -8 -3 -3 5 13 17 15 12
25 26 21 31 -3 5 -9 7 -14 4 -4 -3 -11 7 -15 22 -5 21 -8 24 -15 13 -6 -10 -2
-23 13 -40 12 -14 18 -22 13 -18 -5 4 -14 4 -20 0 -13 -10 -50 8 -53 26 -2 6
4 12 12 12 8 0 15 -6 15 -14 0 -8 5 -18 12 -22 7 -5 8 -3 3 6 -12 19 -8 69 7
88 9 13 7 12 -9 -2 -13 -10 -20 -23 -17 -27 3 -5 -2 -6 -11 -3 -10 4 -15 2
-13 -7 2 -7 -2 -13 -9 -14 -6 0 -15 -4 -20 -9 -5 -5 -2 -6 6 -1 11 6 13 2 9
-18 -3 -17 -1 -24 8 -20 6 2 14 1 17 -4 3 -5 -2 -9 -11 -10 -37 -3 -55 -10
-64 -26 -5 -9 -5 -17 -1 -17 4 0 1 -5 -7 -10 -11 -7 -6 -9 19 -7 19 1 36 7 38
13 2 7 -6 10 -19 9 -13 -1 -15 0 -5 2 9 2 17 9 17 15 0 5 7 7 16 4 9 -4 23 -1
31 6 13 10 15 9 11 -7 -2 -12 -10 -19 -21 -17 -21 4 -23 -14 -2 -22 8 -3 15
-11 14 -18 0 -10 -2 -10 -6 0 -2 6 -9 10 -14 6 -5 -3 -9 0 -9 7 0 7 -2 10 -5
7 -3 -3 1 -18 10 -34 8 -16 15 -24 15 -18 0 7 7 14 15 18 12 4 13 2 2 -14 -6
-11 -18 -20 -25 -20 -7 0 -11 -4 -8 -9 3 -5 -1 -12 -10 -15 -25 -10 -27 -7
-11 17 9 14 12 29 7 37 -5 9 -10 3 -15 -19 -7 -33 -14 -38 -32 -20 -7 7 -11 3
-11 -15 0 -15 5 -23 11 -19 19 12 76 12 84 0 13 -20 13 -46 1 -53 -8 -5 -9 -2
-5 9 3 9 2 19 -4 22 -5 4 -7 11 -4 16 4 5 2 9 -3 9 -6 0 -13 -7 -16 -16 -5
-14 -7 -14 -22 0 -23 23 -30 20 -9 -4 19 -21 7 -28 -13 -8 -9 9 -12 9 -12 -1
0 -7 -5 -9 -12 -5 -6 4 -8 3 -4 -4 3 -6 2 -13 -4 -17 -5 -3 -10 -1 -10 6 0 7
-3 9 -6 6 -4 -4 -1 -13 5 -21 7 -8 10 -20 7 -25 -4 -6 3 -15 15 -21 15 -8 19
-9 15 -1 -4 6 -3 11 3 11 6 0 8 7 5 15 -3 8 -9 14 -12 13 -19 -2 -23 3 -13 16
7 8 20 12 31 9 15 -4 17 -9 10 -23 -11 -20 -4 -31 15 -24 7 3 16 1 20 -5 3 -6
11 -11 17 -11 7 0 7 5 -1 14 -9 11 -6 17 14 30 14 9 24 24 23 34 -2 10 5 17
17 19 19 3 19 2 1 -5 -20 -9 -19 -12 29 -48 19 -14 19 -14 -5 -3 -23 11 -24
11 -11 -4 11 -14 11 -18 -3 -23 -11 -4 -22 1 -31 12 -14 18 -14 18 -15 -3 0
-25 -15 -37 -32 -27 -17 11 -48 13 -48 3 0 -4 12 -10 26 -13 20 -5 24 -10 15
-19 -14 -14 -15 -30 -1 -22 5 3 10 1 10 -4 0 -6 -7 -11 -15 -11 -8 0 -15 5
-15 11 0 6 -9 9 -20 6 -11 -3 -23 -1 -26 4 -3 5 2 9 11 9 22 0 11 16 -16 23
-16 4 -19 3 -11 -5 17 -17 -3 -47 -28 -41 -11 3 -20 1 -20 -5 0 -6 12 -10 27
-9 21 1 28 -3 31 -18 2 -15 1 -16 -6 -7 -7 11 -10 11 -15 -3 -4 -9 -3 -13 3
-10 6 3 10 1 10 -5 0 -6 5 -8 10 -5 6 4 10 3 9 -2 -5 -28 3 -43 24 -44 18 -1
18 -2 4 -6 -24 -6 -69 5 -63 15 9 14 -10 33 -27 26 -9 -3 -14 -10 -11 -15 3
-5 10 -7 15 -4 5 4 5 -5 -1 -20 -12 -33 -13 -48 -1 -41 5 3 14 0 20 -8 9 -10
8 -15 -4 -20 -8 -3 -15 -11 -15 -17 0 -8 3 -9 13 0 11 8 18 6 32 -9 16 -18 16
-20 2 -20 -10 0 -17 5 -17 11 0 8 -4 8 -12 2 -7 -6 -28 -9 -46 -8 -26 3 -31 0
-22 -10 7 -8 7 -15 1 -19 -5 -3 -11 -3 -14 1 -2 5 -2 2 -1 -5 2 -6 -1 -12 -6
-12 -6 0 -10 7 -10 15 0 8 -5 15 -11 15 -7 0 -4 -11 6 -27 16 -23 16 -25 1
-20 -9 4 -16 4 -16 2 0 -9 56 -59 67 -61 19 -3 25 13 8 20 -8 3 -15 0 -15 -7
0 -23 -20 18 -20 42 0 15 5 21 13 18 8 -3 20 -1 28 4 8 5 9 9 3 9 -7 0 -14 6
-17 13 -3 8 1 14 9 14 7 0 11 -4 8 -9 -3 -4 -1 -8 5 -8 5 0 12 4 16 10 7 12
55 -29 55 -47 0 -16 -17 -17 -22 -1 -3 9 -6 9 -11 1 -5 -7 1 -17 13 -23 11 -6
20 -7 20 -2 0 5 6 9 13 9 7 0 13 -8 13 -17 0 -19 -10 -20 -42 -2 -12 6 -23 9
-26 7 -9 -9 -5 30 4 42 17 21 -11 24 -32 3 -11 -11 -25 -20 -30 -20 -5 0 -10
-7 -10 -15 0 -9 6 -12 15 -9 8 4 12 11 9 16 -4 6 -1 9 7 6 19 -6 25 -58 7 -59
-7 -1 -17 -1 -22 0 -4 1 -5 -10 -2 -24 4 -15 2 -25 -4 -25 -6 0 -8 6 -4 13 5
8 2 7 -9 -2 -10 -8 -20 -11 -24 -7 -4 3 2 12 12 20 13 9 15 15 6 20 -6 4 -14
0 -17 -8 -3 -9 -14 -16 -23 -16 -14 1 -14 2 2 11 19 11 23 29 6 29 -5 0 -8 -4
-5 -9 7 -11 -20 -22 -38 -15 -9 3 -17 -3 -21 -15 -3 -12 -12 -21 -18 -22 -7 0
-4 -4 7 -8 17 -7 17 -8 2 -24 -9 -9 -23 -14 -31 -11 -8 4 -15 1 -15 -5 0 -6 5
-11 11 -11 5 0 7 -5 4 -10 -3 -5 -1 -10 4 -10 6 0 11 5 11 12 0 9 3 9 11 1 8
-8 8 -16 0 -30 -6 -10 -11 -14 -11 -9 0 6 -9 0 -20 -12 -11 -12 -19 -25 -18
-29 1 -4 -2 -19 -6 -32 -6 -18 -10 -20 -17 -10 -4 7 -4 18 0 24 13 16 9 42 -6
42 -11 0 -13 -10 -9 -36 3 -20 5 -42 6 -49 0 -7 5 -10 10 -7 6 3 10 1 10 -5 0
-7 7 -10 15 -6 21 8 32 -22 25 -74 -3 -32 -7 -40 -12 -27 -4 9 -19 22 -34 27
-19 8 -23 14 -16 23 5 7 6 21 1 32 -5 15 -8 16 -8 4 -1 -9 -11 -21 -23 -28
-23 -11 -23 -11 2 -6 24 6 24 5 6 -9 -11 -9 -15 -17 -8 -17 7 -1 17 -3 22 -4
6 -1 16 -3 23 -4 9 -1 9 -3 -1 -10 -10 -6 -10 -10 3 -21 11 -9 15 -9 15 -1 0
8 6 6 16 -4 15 -14 17 -14 29 1 9 13 14 14 20 4 5 -9 4 -11 -3 -6 -8 5 -12 0
-12 -14 0 -18 3 -19 20 -10 18 10 26 29 20 55 -1 5 2 7 6 2 4 -4 9 -15 10 -25
1 -9 4 -26 7 -37 4 -16 0 -21 -20 -23 -14 -1 -21 2 -18 8 8 13 -1 13 -27 -1
-18 -9 -20 -9 -15 4 3 9 -1 18 -9 21 -23 9 -34 7 -34 -5 0 -5 4 -8 9 -4 5 3
13 1 16 -5 4 -6 1 -9 -6 -8 -16 4 -18 -31 -4 -51 7 -11 7 -13 -2 -8 -6 4 -14
1 -17 -5 -3 -7 -5 1 -3 18 3 29 -14 59 -27 47 -10 -11 -7 -41 6 -45 17 -6 1
-56 -20 -61 -14 -3 -13 -5 6 -14 21 -8 22 -11 9 -21 -8 -7 -21 -11 -28 -10 -9
2 -14 -6 -14 -22 0 -14 6 -26 13 -26 6 -1 15 -2 18 -3 4 0 -1 -13 -11 -27 -14
-22 -15 -28 -4 -35 12 -7 11 -9 0 -9 -11 0 -10 -3 3 -13 18 -13 66 -12 66 2 0
4 -6 13 -12 20 -10 11 -10 12 -1 7 7 -4 21 -2 30 3 10 6 13 11 7 11 -6 0 -11
7 -11 15 0 12 3 12 16 2 12 -10 14 -9 8 6 -4 10 -3 16 2 12 15 -9 24 15 11 29
-8 11 -8 15 2 19 10 4 10 6 1 6 -18 1 -16 18 2 18 8 0 12 -4 9 -9 -3 -4 -1 -8
5 -8 5 0 15 8 21 18 10 15 10 15 7 -3 -2 -12 5 -25 18 -33 15 -10 15 -12 2 -8
-9 3 -17 1 -17 -5 0 -6 -5 -7 -10 -4 -6 4 -8 11 -5 16 4 5 -1 9 -9 9 -10 0
-14 -8 -12 -27 3 -21 9 -27 22 -26 11 1 13 0 7 -3 -7 -3 -13 -14 -13 -24 0 -9
-6 -23 -13 -29 -10 -8 -14 -7 -14 4 0 8 5 11 10 8 5 -3 8 0 5 7 -6 19 -28 25
-28 7 0 -7 -9 -22 -20 -32 -11 -10 -17 -22 -13 -28 3 -6 1 -7 -5 -3 -7 4 -12
1 -12 -6 0 -10 -2 -10 -9 1 -5 7 -13 11 -19 7 -6 -3 -13 -2 -17 4 -3 5 -14 10
-23 10 -15 -1 -15 -2 2 -15 11 -8 14 -15 7 -15 -7 0 -9 -5 -6 -10 3 -6 1 -10
-4 -10 -10 0 -16 28 -12 58 3 21 -7 13 -23 -19 -14 -28 -14 -30 0 -18 13 11
15 10 12 -7 -1 -10 -6 -21 -10 -24 -4 -3 -1 -18 7 -33 7 -15 10 -27 4 -27 -5
0 -9 6 -10 13 0 6 -4 3 -8 -8 -5 -11 -6 -24 -3 -30 9 -14 12 -38 5 -31 -4 3
-12 1 -20 -6 -8 -6 -13 -7 -12 -2 4 22 -2 35 -13 28 -7 -4 -8 -3 -4 4 10 17
24 15 29 -5 3 -11 5 -8 4 7 0 14 4 37 8 52 5 21 4 28 -6 28 -11 0 -11 3 1 11
12 8 12 9 -5 7 -11 -1 -31 4 -44 11 -22 12 -23 14 -7 23 13 7 21 5 33 -9 11
-13 13 -14 10 -2 -3 8 0 25 7 36 11 21 14 23 36 23 15 0 12 26 -5 40 -12 10
-18 10 -30 0 -10 -9 -15 -9 -15 -1 0 6 -5 11 -10 11 -6 0 -8 -13 -5 -30 3 -17
1 -30 -5 -30 -5 0 -10 6 -11 13 -2 34 -11 73 -20 83 -5 6 -5 15 -1 19 4 5 1 5
-6 1 -10 -6 -10 -11 -1 -22 9 -11 9 -14 -1 -14 -9 0 -7 -7 6 -21 19 -22 19
-22 -3 -10 -30 15 -37 14 -19 -5 9 -8 13 -20 10 -26 -4 -7 -2 -8 5 -4 23 15
23 -24 0 -45 -13 -11 -19 -19 -14 -16 6 2 19 -4 29 -14 18 -18 18 -18 -3 -14
-12 2 -19 0 -16 -6 4 -5 18 -8 32 -7 21 2 28 -3 36 -26 7 -21 6 -30 -4 -37
-20 -12 -35 7 -19 26 10 12 10 19 2 27 -7 7 -13 9 -13 5 -1 -4 -3 -11 -4 -17
-1 -5 -3 -16 -4 -22 -1 -8 -8 -5 -18 7 l-16 20 8 -20 c4 -11 8 -27 9 -35 1 -8
12 -19 24 -25 24 -11 31 -28 8 -19 -10 4 -14 -1 -13 -14 1 -16 5 -19 19 -11
12 6 18 6 18 -1 0 -5 -5 -10 -11 -10 -6 0 -9 -6 -6 -14 4 -10 0 -14 -12 -11
-10 2 -18 -3 -18 -12 0 -9 7 -13 19 -10 12 4 18 0 19 -11 0 -12 3 -10 9 5 13
32 17 29 12 -7 -4 -30 -5 -30 -24 -13 -17 15 -21 15 -28 3 -6 -10 -10 -11 -10
-3 0 7 -7 10 -15 7 -17 -7 -19 4 -6 25 6 9 6 22 0 33 -7 12 -6 25 2 41 l11 22
-21 -22 c-22 -24 -27 -43 -11 -43 6 0 10 -5 10 -10 0 -7 -6 -7 -20 0 -11 6
-19 14 -19 18 3 20 -3 28 -23 29 -22 2 -22 1 2 -12 22 -13 21 -20 -3 -16 -5 1
-6 -3 -2 -9 3 -6 10 -8 15 -5 13 8 39 -35 33 -54 -4 -9 -3 -13 2 -9 4 4 17 2
29 -4 11 -7 25 -11 29 -10 5 1 6 -2 3 -6 -3 -5 -17 -7 -30 -5 -21 4 -24 2 -19
-16 3 -11 14 -23 24 -26 19 -6 17 -25 -2 -25 -6 0 -7 5 -3 11 4 7 1 10 -6 7
-7 -2 -15 -14 -17 -27 -2 -14 1 -20 8 -15 7 4 10 1 7 -7 -3 -8 -11 -13 -18
-11 -11 2 -11 0 -1 -12 9 -10 9 -16 1 -21 -8 -5 -5 -11 7 -20 17 -13 16 -14
-4 -8 -17 4 -23 1 -23 -11 0 -22 -9 -20 -31 6 -11 11 -19 16 -19 10 0 -6 5
-14 10 -17 6 -4 7 -11 4 -17 -5 -7 -2 -8 6 -3 10 6 12 4 7 -8 -4 -11 0 -15 14
-14 10 1 19 6 19 12 0 5 5 3 10 -5 5 -9 5 -19 0 -24 -5 -5 -3 -14 5 -22 19
-19 25 -17 26 9 0 21 1 21 8 2 10 -23 4 -45 -11 -42 -6 1 -13 -5 -15 -13 -3
-9 -1 -11 4 -5 12 15 47 19 37 4 -5 -8 -2 -11 8 -7 8 4 20 3 27 -2 9 -5 2 -9
-17 -12 -17 -2 -29 -1 -26 4 3 4 -2 8 -10 8 -24 0 -19 -15 14 -40 35 -27 33
-39 -2 -16 -14 9 -28 13 -32 9 -4 -4 -4 0 -1 9 4 9 1 19 -6 24 -7 4 -10 3 -5
-4 3 -6 2 -13 -3 -16 -10 -7 -8 28 3 55 5 11 0 22 -14 32 -15 11 -18 16 -8 20
9 4 7 6 -4 6 -22 1 -23 -12 -3 -29 17 -14 20 -30 4 -30 -5 0 -8 4 -5 9 3 5 0
11 -7 14 -9 3 -12 -4 -11 -24 1 -16 -2 -27 -6 -24 -5 3 -7 23 -6 45 2 22 -1
43 -5 46 -5 3 -6 -2 -3 -10 4 -12 0 -14 -20 -10 -19 3 -26 0 -26 -11 0 -9 5
-13 11 -9 8 5 8 1 0 -13 -6 -11 -7 -23 -4 -27 3 -3 1 -6 -5 -6 -7 0 -12 11
-12 25 0 25 -14 33 -25 15 -3 -6 0 -10 7 -10 10 0 10 -2 -1 -9 -10 -7 -10 -10
-1 -13 9 -3 8 -8 -3 -20 -9 -9 -21 -18 -27 -20 -15 -5 -1 -38 16 -38 8 0 14
-4 14 -10 0 -5 -3 -9 -7 -9 -23 4 -31 -3 -28 -21 4 -21 -9 -27 -20 -10 -3 6
-1 10 5 10 6 0 9 4 5 9 -3 5 0 13 5 16 7 5 5 12 -7 22 -10 8 -12 11 -4 7 10
-5 12 -3 5 7 -5 8 -7 21 -6 29 1 8 -7 21 -18 28 -11 7 -20 8 -20 2 0 -5 -6 -8
-12 -6 -7 1 -9 1 -5 -2 4 -2 2 -11 -5 -20 -9 -11 -10 -14 -1 -8 7 4 22 2 33
-4 17 -9 19 -14 10 -26 -7 -7 -15 -12 -19 -10 -8 5 -25 -15 -29 -35 -1 -9 4
-16 12 -16 8 0 11 7 8 19 -2 10 1 18 7 18 6 0 11 -5 11 -12 0 -6 7 -19 16 -29
14 -16 14 -18 -5 -29 -17 -9 -21 -8 -21 5 0 9 -9 15 -22 14 -22 0 -22 -1 -3
-9 14 -6 15 -9 5 -10 -22 -1 19 -23 51 -27 17 -2 26 2 26 12 0 8 -4 12 -9 9
-4 -3 -8 -1 -8 4 0 6 7 13 16 16 22 8 26 8 19 -4 -3 -5 -1 -10 4 -10 6 0 11
-5 11 -12 0 -6 -3 -8 -7 -5 -3 4 -13 -2 -20 -13 -12 -17 -12 -24 -3 -35 8 -10
9 -15 2 -15 -6 0 -9 -8 -6 -18 5 -14 4 -14 -4 -2 -6 8 -8 18 -6 22 3 4 0 8 -6
8 -7 0 -10 -6 -7 -14 3 -8 1 -17 -6 -20 -9 -3 -9 -5 0 -5 7 -1 10 -8 6 -18 -5
-12 -3 -14 7 -8 9 5 11 4 6 -3 -4 -7 -3 -12 3 -12 6 0 8 -7 5 -15 -8 -21 -22
-19 -20 3 1 11 -5 16 -18 14 -10 -2 -22 2 -26 8 -5 9 -9 9 -14 1 -4 -6 -2 -11
4 -11 6 0 9 -4 5 -10 -3 -5 -12 -7 -20 -3 -11 4 -13 1 -9 -11 5 -12 2 -15 -12
-10 -11 3 -5 -3 11 -13 21 -14 32 -16 37 -9 4 6 1 13 -6 16 -12 4 -12 7 0 18
8 7 14 10 14 6 0 -3 8 0 17 7 15 12 16 12 11 -2 -4 -9 -1 -22 5 -28 9 -9 7
-11 -8 -6 -17 6 -16 3 5 -15 14 -12 19 -18 11 -14 -9 4 -12 2 -9 -7 3 -8 15
-14 26 -13 17 0 19 -2 10 -13 -8 -10 -14 -11 -22 -3 -16 16 -26 12 -35 -13
-11 -30 6 -67 28 -60 12 4 13 3 5 -6 -11 -12 -47 -4 -39 9 2 4 -2 16 -10 26
-14 18 -15 17 -9 -9 5 -22 3 -26 -10 -21 -9 3 -16 14 -17 23 0 14 -1 14 -7 0
-6 -12 -14 -14 -40 -7 -19 5 -30 13 -26 19 4 8 9 7 15 -2 7 -11 13 -9 31 9 20
19 20 22 5 22 -13 0 -17 5 -12 19 6 21 -15 34 -40 24 -10 -3 -15 0 -13 8 2 8
-6 14 -19 15 -12 1 -20 -2 -17 -7 2 -4 12 -5 22 -2 9 3 14 3 10 -2 -4 -4 -2
-15 5 -23 8 -11 8 -14 0 -9 -6 4 -15 3 -18 -3 -5 -8 -12 -7 -23 2 -15 12 -16
11 -3 -5 9 -11 21 -15 33 -11 17 5 18 3 9 -15 -7 -12 -19 -21 -27 -21 -8 0
-12 -5 -8 -11 4 -7 10 -7 16 -1 7 7 15 6 24 -3 17 -17 9 -42 -16 -50 -23 -7
-15 -42 11 -50 20 -7 57 21 44 33 -3 4 -12 -1 -19 -11 -17 -23 -26 -22 -26 4
0 11 5 17 10 14 6 -4 10 -3 9 2 -4 20 2 27 12 13 9 -12 10 -11 6 8 -4 17 -1
22 14 22 10 0 19 -5 19 -11 0 -5 -5 -7 -10 -4 -5 3 -10 1 -10 -4 0 -6 4 -11
10 -11 5 0 7 -13 4 -30 -6 -30 9 -43 19 -17 4 9 6 9 6 0 1 -7 6 -13 12 -13 5
0 7 4 4 10 -3 5 1 10 10 10 9 0 13 -5 10 -10 -3 -6 1 -10 10 -10 10 0 13 5 9
12 -5 8 0 7 11 -2 17 -14 18 -13 12 3 -4 10 -7 21 -7 23 0 3 -5 2 -10 -1 -6
-3 -10 0 -10 7 0 7 12 14 26 14 23 2 25 -1 19 -27 -4 -19 -3 -29 5 -29 7 0 10
6 7 14 -3 8 0 17 7 19 10 4 12 -1 9 -16 -4 -18 -3 -19 6 -7 7 10 11 11 11 3 0
-9 22 -13 76 -13 57 0 73 3 68 12 -6 10 -4 10 7 2 17 -12 122 -18 115 -6 -3 5
1 9 9 9 8 0 12 -4 9 -8 -8 -13 300 -8 308 5 5 8 8 7 8 -1 0 -10 408 -13 2005
-13 l2005 0 0 2373 c0 2219 -1 2374 -17 2397 -9 14 -24 31 -33 38 -21 18 -92
49 -132 58 -50 10 -403 13 -483 4z m-3135 -2658 c14 -9 32 -15 40 -13 8 1 12
0 8 -4 -3 -3 -14 -8 -25 -10 -10 -2 -20 -4 -22 -4 -2 -1 3 -9 10 -18 7 -10 9
-15 5 -11 -5 4 -15 3 -22 -3 -8 -7 -14 -7 -19 1 -10 16 -38 12 -32 -5 4 -8 2
-17 -4 -21 -17 -10 20 -30 52 -28 16 1 27 -2 24 -6 -3 -4 -15 -6 -27 -2 -16 4
-19 2 -13 -9 8 -12 6 -12 -8 -1 -9 8 -22 10 -28 6 -7 -4 -9 -3 -5 4 3 6 2 13
-3 16 -5 4 -13 2 -16 -4 -5 -8 -12 -7 -23 2 -14 12 -14 10 -3 -10 7 -12 16
-20 21 -17 6 3 7 -1 4 -10 -6 -14 -8 -14 -21 2 -14 17 -14 17 -9 0 3 -10 6
-23 6 -28 0 -6 4 -8 10 -4 5 3 18 0 29 -7 19 -11 18 -12 -6 -25 -31 -16 -33
-16 -33 1 0 21 -26 40 -36 25 -5 -8 -3 -9 6 -4 8 5 11 4 6 -3 -3 -5 0 -13 6
-15 8 -3 6 -6 -4 -6 -17 -1 -22 9 -19 38 2 8 -2 10 -11 5 -10 -6 -10 -4 0 9
12 14 11 19 -3 33 -11 12 -13 20 -6 27 14 14 14 27 0 27 -5 0 -7 -4 -4 -10 3
-5 2 -10 -4 -10 -5 0 -13 5 -16 10 -3 6 -1 10 5 10 6 0 8 5 5 11 -4 6 -13 8
-21 5 -8 -3 -11 0 -7 9 4 11 10 12 23 5 11 -6 21 -14 24 -19 4 -5 17 -8 31 -7
13 2 22 -1 19 -6 -3 -5 -12 -7 -19 -4 -17 6 -25 -26 -13 -48 12 -21 31 -10 23
14 -3 11 0 20 10 24 8 3 15 1 15 -4 0 -6 4 -10 10 -10 5 0 7 6 4 14 -3 8 -1
17 5 20 6 4 8 14 5 24 -5 13 -4 14 4 3 7 -9 11 -10 17 -2 3 7 15 9 24 6 10 -3
24 1 31 10 10 12 8 16 -11 24 -28 10 -40 4 -19 -9 13 -8 12 -10 -2 -10 -17 0
-23 12 -18 35 1 5 -8 1 -19 -10 -17 -15 -24 -16 -34 -6 -10 10 -8 12 8 9 13
-2 19 2 17 11 -4 17 41 7 78 -17z"/>
</g>
</svg>
