<?xml version="1.0" standalone="no"?>
<!DOCTYPE svg PUBLIC "-//W3C//DTD SVG 20010904//EN"
 "http://www.w3.org/TR/2001/REC-SVG-20010904/DTD/svg10.dtd">
<svg version="1.0" xmlns="http://www.w3.org/2000/svg"
 width="640.000000pt" height="480.000000pt" viewBox="0 0 640.000000 480.000000"
 preserveAspectRatio="xMidYMid meet">
<metadata>
Created by potrace 1.16, written by Peter Selinger 2001-2019
</metadata>
<g transform="translate(0.000000,480.000000) scale(0.100000,-0.100000)"
fill="#000000" stroke="none">
<path d="M5300 4789 c-341 -41 -653 -114 -1540 -361 -1138 -316 -1667 -426
-2250 -469 -202 -15 -599 -6 -759 16 -244 34 -514 106 -683 183 l-68 31 0
-2095 0 -2094 3200 0 3200 0 0 2084 c0 2266 3 2138 -55 2292 -76 201 -231 334
-460 395 -68 18 -113 22 -295 25 -118 1 -249 -2 -290 -7z"/>
</g>
</svg>
